<svg width="19" height="14" viewBox="0 0 19 14" fill="none" xmlns="http://www.w3.org/2000/svg">
<path d="M16.8806 0.317551L6.22257 11.3896L1.78657 6.83355C1.69142 6.73283 1.57671 6.6526 1.44947 6.59776C1.32223 6.54292 1.18513 6.51464 1.04657 6.51464C0.908016 6.51464 0.770918 6.54292 0.643675 6.59776C0.516432 6.6526 0.401722 6.73283 0.306572 6.83355C0.109751 7.04061 0 7.31537 0 7.60105C0 7.88673 0.109751 8.16149 0.306572 8.36855L5.48657 13.6886C5.91157 14.0816 6.54657 14.1246 6.96657 13.6886L18.3606 1.85255C18.5569 1.64526 18.6664 1.37059 18.6664 1.08505C18.6664 0.799515 18.5569 0.524841 18.3606 0.317551C18.2652 0.217219 18.1504 0.13733 18.0232 0.0827402C17.896 0.0281505 17.759 0 17.6206 0C17.4821 0 17.3452 0.0281505 17.2179 0.0827402C17.0907 0.13733 16.9759 0.217219 16.8806 0.317551Z" fill="#4A4A4A"/>
</svg>
