<?xml version="1.0" encoding="UTF-8"?>
<svg width="20px" height="20px" viewBox="0 0 20 20" version="1.1" xmlns="http://www.w3.org/2000/svg" xmlns:xlink="http://www.w3.org/1999/xlink">
    <title>7DCBF7FF-8C6C-4D37-AD95-A47DEE260A2D</title>
    <g id="approved" stroke="none" stroke-width="1" fill="none" fill-rule="evenodd">
        <g id="Icons" transform="translate(-686.000000, -219.000000)">
            <g id="trash-icon" transform="translate(686.000000, 219.000000)">
                <rect id="Rectangle" transform="translate(10.000000, 10.000000) rotate(90.000000) translate(-10.000000, -10.000000) " x="0" y="0" width="20" height="20"></rect>
                <g id="Layer_2" transform="translate(3.125000, 1.875000)" fill="#2274A6" fill-rule="nonzero">
                    <path d="M8.27272727,0 C9.32708907,0 10.1818182,0.826551231 10.1818182,1.84615385 L10.181,2.461 L13.3636364,2.46153846 C13.7150903,2.46153846 14,2.73705554 14,3.07692308 C14,3.41679062 13.7150903,3.69230769 13.3636364,3.69230769 L12.727,3.692 L12.7272727,12.9230769 C12.7272727,14.6224146 11.3027242,16 9.54545455,16 L4.45454545,16 C2.6972758,16 1.27272727,14.6224146 1.27272727,12.9230769 L1.272,3.692 L0.636363636,3.69230769 C0.284909705,3.69230769 0,3.41679062 0,3.07692308 C0,2.73705554 0.284909705,2.46153846 0.636363636,2.46153846 L3.818,2.461 L3.81818182,1.84615385 C3.81818182,0.826551231 4.67291093,0 5.72727273,0 L8.27272727,0 Z M11.454,3.692 L2.545,3.692 L2.54545455,12.9230769 C2.54545455,13.9426795 3.40018366,14.7692308 4.45454545,14.7692308 L9.54545455,14.7692308 C10.5998163,14.7692308 11.4545455,13.9426795 11.4545455,12.9230769 L11.454,3.692 Z M5.72727273,6.76923077 C6.07872666,6.76923077 6.36363636,7.04474785 6.36363636,7.38461538 L6.36363636,11.6923077 C6.36363636,12.0321752 6.07872666,12.3076923 5.72727273,12.3076923 C5.3758188,12.3076923 5.09090909,12.0321752 5.09090909,11.6923077 L5.09090909,7.38461538 C5.09090909,7.04474785 5.3758188,6.76923077 5.72727273,6.76923077 Z M8.27272727,6.76923077 C8.6241812,6.76923077 8.90909091,7.04474785 8.90909091,7.38461538 L8.90909091,11.6923077 C8.90909091,12.0321752 8.6241812,12.3076923 8.27272727,12.3076923 C7.92127334,12.3076923 7.63636364,12.0321752 7.63636364,11.6923077 L7.63636364,7.38461538 C7.63636364,7.04474785 7.92127334,6.76923077 8.27272727,6.76923077 Z M8.27272727,1.23076923 L5.72727273,1.23076923 C5.3758188,1.23076923 5.09090909,1.50628631 5.09090909,1.84615385 L5.09090909,2.46153846 L8.90909091,2.46153846 L8.90909091,1.84615385 C8.90909091,1.50628631 8.6241812,1.23076923 8.27272727,1.23076923 Z" id="Combined-Shape"></path>
                </g>
            </g>
        </g>
    </g>
</svg>
