<svg width="20" height="20" viewBox="0 0 20 20" xmlns="http://www.w3.org/2000/svg">
    <g fill="none" fill-rule="evenodd">
        <path d="M20 0v20H0V0z"/>
        <path d="M13.089 2.344a1.18 1.18 0 0 1 1.505-.134l.044.034.119.103 2.9 2.907c.458.46.457 1.203-.002 1.663L7.421 17.15a1.18 1.18 0 0 1-.68.335l-3.852.508a.786.786 0 0 1-.883-.877l.498-3.89c.033-.26.152-.5.337-.684zm-2.063 3.713-7.353 7.318-.433 3.384 3.346-.44 7.353-7.354-2.913-2.908zm2.893-2.878L11.93 5.157l2.911 2.905 1.979-1.977-2.863-2.873-.04-.033z" fill="#2274A6" fill-rule="nonzero"/>
    </g>
</svg>
