<svg xmlns="http://www.w3.org/2000/svg" width="18" height="18" viewBox="0 0 18 18">
    <g fill="none" fill-rule="evenodd">
        <g>
            <g>
                <path d="M0 0H20V20H0z" transform="translate(-313.000000, -180.000000) translate(312.000000, 179.000000) translate(10.000000, 10.000000) rotate(90.000000) translate(-10.000000, -10.000000)"/>
                <path fill="#2274a6" fill-rule="nonzero" d="M10 1c4.97 0 9 4.03 9 9 0 2.387-.948 4.676-2.636 6.364C14.676 18.052 12.387 19 10 19c-4.97 0-9-4.03-9-9s4.03-9 9-9zm0 1.385c-4.206 0-7.615 3.41-7.615 7.615 0 4.206 3.41 7.615 7.615 7.615 4.206 0 7.615-3.41 7.615-7.615 0-2.02-.802-3.957-2.23-5.385S12.02 2.385 10 2.385zm0 6.107c.381 0 .69.309.69.69v5.249c0 .38-.309.69-.69.69-.381 0-.69-.31-.69-.69V9.182c0-.381.309-.69.69-.69zm0-2.65c.381 0 .69.309.69.69 0 .381-.309.69-.69.69-.381 0-.69-.309-.69-.69 0-.381.309-.69.69-.69z" transform="translate(-313.000000, -180.000000) translate(312.000000, 179.000000)"/>
            </g>
        </g>
    </g>
</svg>
