<svg width="30" height="30" viewBox="0 0 30 30" fill="none" xmlns="http://www.w3.org/2000/svg">
<rect x="-1" y="1" width="20" height="20" rx="3" transform="matrix(1 0 0 -1 6 26)" stroke="white" stroke-width="2"/>
<path fill-rule="evenodd" clip-rule="evenodd" d="M9.5 8.5C8.94771 8.5 8.5 8.94771 8.5 9.5V12.5C8.5 13.0523 8.94771 13.5 9.5 13.5H12.5C13.0523 13.5 13.5 13.0523 13.5 12.5V9.5C13.5 8.94771 13.0523 8.5 12.5 8.5H9.5ZM17.5 8.5C16.9477 8.5 16.5 8.94771 16.5 9.5V12.5C16.5 13.0523 16.9477 13.5 17.5 13.5H20.5C21.0523 13.5 21.5 13.0523 21.5 12.5V9.5C21.5 8.94771 21.0523 8.5 20.5 8.5H17.5ZM8.5 17.5C8.5 16.9477 8.94771 16.5 9.5 16.5H12.5C13.0523 16.5 13.5 16.9477 13.5 17.5V20.5C13.5 21.0523 13.0523 21.5 12.5 21.5H9.5C8.94771 21.5 8.5 21.0523 8.5 20.5V17.5ZM17.5 16.5C16.9477 16.5 16.5 16.9477 16.5 17.5V20.5C16.5 21.0523 16.9477 21.5 17.5 21.5H20.5C21.0523 21.5 21.5 21.0523 21.5 20.5V17.5C21.5 16.9477 21.0523 16.5 20.5 16.5H17.5Z" fill="white"/>
</svg>
