<svg width="22" height="20" viewBox="0 0 22 20" fill="none" xmlns="http://www.w3.org/2000/svg">
<path fill-rule="evenodd" clip-rule="evenodd" d="M20.514 10.848C20.34 11.067 16.214 16.2 11 16.2C5.78598 16.2 1.65998 11.067 1.48598 10.848L1.28998 10.6L1.48598 10.352C1.65998 10.133 5.78598 5 11 5C16.214 5 20.34 10.133 20.514 10.352L20.71 10.6L20.514 10.848ZM19.676 10.6C18.788 9.584 15.198 5.8 11 5.8C6.79598 5.8 3.21098 9.583 2.32398 10.6C3.21198 11.616 6.80198 15.4 11 15.4C15.204 15.4 18.789 11.617 19.676 10.6Z" fill="#2274A6"/>
<path d="M20.514 10.848L20.7097 11.0035L20.7101 11.003L20.514 10.848ZM1.48598 10.848L1.28984 11.003L1.29024 11.0035L1.48598 10.848ZM1.28998 10.6L1.09384 10.445L0.971328 10.6L1.09384 10.755L1.28998 10.6ZM1.48598 10.352L1.29024 10.1965L1.28984 10.197L1.48598 10.352ZM20.514 10.352L20.7101 10.197L20.7097 10.1965L20.514 10.352ZM20.71 10.6L20.9061 10.755L21.0286 10.6L20.9061 10.445L20.71 10.6ZM19.676 10.6L19.8644 10.7643L20.0079 10.5998L19.8642 10.4355L19.676 10.6ZM2.32398 10.6L2.13557 10.4357L1.9921 10.6002L2.13574 10.7645L2.32398 10.6ZM11 16.45C13.6869 16.45 16.0755 15.1294 17.7993 13.8043C19.5269 12.4764 20.6164 11.121 20.7097 11.0035L20.3182 10.6925C20.2376 10.794 19.177 12.1146 17.4946 13.4079C15.8084 14.7041 13.5271 15.95 11 15.95V16.45ZM1.29024 11.0035C1.3836 11.121 2.47304 12.4764 4.20062 13.8043C5.92444 15.1294 8.3131 16.45 11 16.45V15.95C8.47286 15.95 6.19152 14.7041 4.50534 13.4079C2.82292 12.1146 1.76236 10.794 1.68172 10.6925L1.29024 11.0035ZM1.09384 10.755L1.28984 11.003L1.68212 10.693L1.48612 10.445L1.09384 10.755ZM1.28984 10.197L1.09384 10.445L1.48612 10.755L1.68212 10.507L1.28984 10.197ZM11 4.75C8.3131 4.75 5.92444 6.07057 4.20062 7.39567C2.47304 8.72365 1.3836 10.079 1.29024 10.1965L1.68172 10.5075C1.76236 10.406 2.82292 9.08535 4.50534 7.79208C6.19152 6.49593 8.47286 5.25 11 5.25V4.75ZM20.7097 10.1965C20.6164 10.079 19.5269 8.72365 17.7993 7.39567C16.0755 6.07057 13.6869 4.75 11 4.75V5.25C13.5271 5.25 15.8084 6.49593 17.4946 7.79208C19.177 9.08535 20.2376 10.406 20.3182 10.5075L20.7097 10.1965ZM20.9061 10.445L20.7101 10.197L20.3178 10.507L20.5138 10.755L20.9061 10.445ZM20.7101 11.003L20.9061 10.755L20.5138 10.445L20.3178 10.693L20.7101 11.003ZM11 6.05C13.026 6.05 14.9224 6.96466 16.4359 8.02383C17.9464 9.08091 19.0509 10.2647 19.4877 10.7645L19.8642 10.4355C19.4131 9.91929 18.2786 8.70309 16.7226 7.61417C15.1695 6.52734 13.172 5.55 11 5.55V6.05ZM2.51239 10.7643C2.94867 10.2641 4.05164 9.08035 5.56147 8.02343C7.07422 6.96447 8.97092 6.05 11 6.05V5.55C8.82503 5.55 6.82723 6.52703 5.27473 7.61382C3.71932 8.70265 2.58628 9.91891 2.13557 10.4357L2.51239 10.7643ZM11 15.15C8.97398 15.15 7.07755 14.2353 5.56407 13.1762C4.05356 12.1191 2.94906 10.9353 2.51221 10.4355L2.13574 10.7645C2.5869 11.2807 3.7214 12.4969 5.27739 13.5858C6.83041 14.6727 8.82797 15.65 11 15.65V15.15ZM19.4876 10.4357C19.0513 10.9359 17.9483 12.1196 16.4385 13.1766C14.9257 14.2355 13.029 15.15 11 15.15V15.65C13.1749 15.65 15.1727 14.673 16.7252 13.5862C18.2806 12.4974 19.4137 11.2811 19.8644 10.7643L19.4876 10.4357Z" fill="#2274A6"/>
<path fill-rule="evenodd" clip-rule="evenodd" d="M14.6 10.6C14.6 12.585 12.985 14.2 11 14.2C9.01496 14.2 7.39996 12.585 7.39996 10.6C7.40217 8.61269 9.01265 7.0022 11 7C12.985 7 14.6 8.615 14.6 10.6ZM13.8 10.6C13.8 9.056 12.544 7.8 11 7.8C9.45596 7.8 8.19996 9.056 8.19996 10.6C8.20162 12.1457 9.45425 13.3983 11 13.4C12.544 13.4 13.8 12.144 13.8 10.6Z" fill="#2274A6"/>
<path d="M7.39996 10.6L7.14996 10.5997V10.6H7.39996ZM11 7V6.75L10.9997 6.75L11 7ZM8.19996 10.6H7.94996L7.94996 10.6003L8.19996 10.6ZM11 13.4L10.9997 13.65H11V13.4ZM11 14.45C13.123 14.45 14.85 12.7231 14.85 10.6H14.35C14.35 12.4469 12.8469 13.95 11 13.95V14.45ZM7.14996 10.6C7.14996 12.7231 8.87689 14.45 11 14.45V13.95C9.15303 13.95 7.64996 12.4469 7.64996 10.6H7.14996ZM10.9997 6.75C8.87452 6.75236 7.15232 8.47456 7.14996 10.5997L7.64996 10.6003C7.65201 8.75082 9.15078 7.25205 11.0002 7.25L10.9997 6.75ZM14.85 10.6C14.85 8.47693 13.123 6.75 11 6.75V7.25C12.8469 7.25 14.35 8.75307 14.35 10.6H14.85ZM11 8.05C12.4059 8.05 13.55 9.19407 13.55 10.6H14.05C14.05 8.91793 12.682 7.55 11 7.55V8.05ZM8.44996 10.6C8.44996 9.19407 9.59403 8.05 11 8.05V7.55C9.31789 7.55 7.94996 8.91793 7.94996 10.6H8.44996ZM11.0002 13.15C9.59238 13.1485 8.45147 12.0076 8.44996 10.5997L7.94996 10.6003C7.95176 12.2838 9.31612 13.6482 10.9997 13.65L11.0002 13.15ZM13.55 10.6C13.55 12.0059 12.4059 13.15 11 13.15V13.65C12.682 13.65 14.05 12.2821 14.05 10.6H13.55Z" fill="#2274A6"/>
</svg>
