<svg width="230" height="37" viewBox="0 0 230 37" fill="none" xmlns="http://www.w3.org/2000/svg">
<g clip-path="url(#clip0_237_2)">
<path d="M72.7035 0C72.8108 0.0531718 72.9182 0.0683638 73.0332 0.0683638C75.1108 0.129132 77.0965 0.600082 79.0132 1.35968C81.0295 2.15726 82.8388 3.28906 84.4642 4.7171C86.3272 6.35024 87.7608 8.29481 88.8572 10.49C89.2328 11.2496 89.5395 12.0396 89.8078 12.8448C89.8462 12.9663 89.8768 13.0879 89.9075 13.2094C89.9458 13.3689 89.8692 13.4525 89.7082 13.4601C89.5625 13.4677 89.4245 13.4677 89.2788 13.4677C85.6908 13.4677 82.0952 13.4677 78.5072 13.4677C77.8402 13.4677 77.8402 13.4677 77.8402 14.1513C77.8402 14.3488 77.8325 14.5463 77.8402 14.7438C77.8555 15.0628 77.8785 15.0856 78.2005 15.1616C79.0592 15.3667 79.9178 15.5718 80.7535 15.8756C81.0218 15.9743 81.2748 16.0959 81.5125 16.2554C81.8652 16.4985 82.0338 16.8175 82.0415 17.2505C82.0568 18.2076 81.8422 19.1267 81.5662 20.0306C81.0832 21.603 80.3395 23.0614 79.5422 24.5046C79.3275 24.8996 79.0898 25.287 78.8445 25.6744C78.6758 25.9403 78.6222 25.9479 78.4075 25.6972C77.7405 24.9224 77.0888 24.14 76.4295 23.3652C75.5095 22.2866 74.5818 21.2232 73.6695 20.1369C72.4812 18.7317 71.3388 17.2884 70.2425 15.8148C70.0432 15.5414 70.0508 15.5034 70.3575 15.3363C71.5382 14.6982 72.6498 13.969 73.6695 13.0955C74.7198 12.1915 75.6475 11.1813 76.1765 9.87477C76.4985 9.08479 76.6978 8.27202 76.7285 7.41367C76.7668 6.38822 76.6595 5.38555 76.2685 4.42845C75.3715 2.23322 73.6925 0.979881 71.3772 0.524122C70.9325 0.432971 70.4802 0.357011 70.0278 0.334223C69.8898 0.326627 69.7442 0.311435 69.5908 0.205091C70.0048 0.129132 70.3728 0.0759598 70.7562 0.0759598C70.9555 0.0759598 71.1548 0.0987477 71.3465 0C71.7912 0 72.2512 0 72.7035 0Z" fill="#ECAA42"/>
<path d="M0 22.1803C0.506 21.9449 0.958333 21.6258 1.44133 21.3524C1.771 21.1701 1.77867 21.1701 1.96267 21.4891C2.45333 22.3095 3.013 23.0615 3.772 23.6616C5.68867 25.1883 8.87033 24.1249 9.34567 21.7246C9.50667 20.9042 9.33033 20.1522 8.89333 19.4534C8.68633 19.1192 8.42567 18.8153 8.15733 18.5267C7.314 17.6379 6.37867 16.8556 5.39733 16.1263C4.45433 15.4199 3.496 14.7211 2.68333 13.8703C1.771 12.9133 1.265 11.7663 1.28033 10.4294C1.29567 8.05942 2.944 6.26677 5.32833 5.91736C7.09933 5.6591 8.60967 6.2212 9.89 7.43655C10.3347 7.86193 10.7333 8.31769 11.0937 8.80383C11.2853 9.06209 11.2853 9.10007 11.0477 9.28238C10.6643 9.57862 10.281 9.86727 9.89 10.1559C9.65233 10.323 9.62933 10.323 9.43767 10.0876C9.05433 9.609 8.65567 9.15325 8.19567 8.75066C7.39067 8.04423 6.44 7.80116 5.41267 8.01385C3.588 8.39365 3.059 10.0648 3.634 11.4776C3.933 12.222 4.49267 12.7689 5.11367 13.2551C6.07967 14.0071 7.06867 14.7211 8.03467 15.4655C8.80133 16.058 9.522 16.6885 10.1507 17.4329C11.017 18.4583 11.615 19.6053 11.6303 20.9574C11.661 23.0767 10.6107 24.6111 8.80133 25.6517C6.72367 26.8519 3.657 26.5252 1.85533 24.6718C1.25733 24.0565 0.743667 23.3881 0.299 22.6589C0.214667 22.5146 0.145667 22.3551 0 22.2487C0 22.2411 0 22.2107 0 22.1803Z" fill="white"/>
<path d="M230 13.2095C229.831 13.3083 229.647 13.3007 229.455 13.3007C228.804 13.3007 228.144 13.3007 227.493 13.3007C227.056 13.3007 227.033 13.3311 227.025 13.7564C227.017 14.7971 227.025 15.8453 227.025 16.886C227.025 19.7041 227.025 22.5298 227.025 25.3479C227.025 26.0543 227.109 26.0847 226.266 26.0771C225.998 26.0771 225.722 26.0847 225.453 26.0695C225.116 26.0543 225.062 26.0011 225.047 25.6593C225.039 25.515 225.047 25.3783 225.047 25.2339C225.047 21.4815 225.047 17.7291 225.047 13.9767C225.047 13.2855 225.047 13.2855 224.334 13.2855C223.882 13.2855 223.422 13.2931 222.969 13.2855C222.594 13.2779 222.548 13.2323 222.54 12.8677C222.532 12.5563 222.532 12.2448 222.54 11.9334C222.548 11.6447 222.601 11.5916 222.9 11.584C223.383 11.5688 223.866 11.5764 224.357 11.5764C224.426 11.5764 224.503 11.5764 224.572 11.5764C225.016 11.5688 225.047 11.5384 225.047 11.075C225.047 9.92046 225.047 8.76587 225.047 7.60369C225.047 7.27706 225.039 6.95803 225.055 6.6314C225.07 6.30477 225.131 6.24401 225.469 6.23641C225.852 6.22881 226.235 6.22881 226.626 6.23641C226.971 6.24401 227.025 6.28958 227.025 6.6314C227.033 7.391 227.025 8.15819 227.025 8.91779C227.025 9.6546 227.025 10.3838 227.025 11.1206C227.025 11.546 227.056 11.5688 227.493 11.5688C228.144 11.5764 228.804 11.5688 229.455 11.5688C229.639 11.5688 229.831 11.5536 229.992 11.6599C230 12.1917 230 12.7006 230 13.2095Z" fill="white"/>
<path d="M70.825 37C70.3036 36.8253 69.7593 36.8405 69.2226 36.7569C67.835 36.5442 66.4933 36.1796 65.19 35.6707C65.1133 35.6403 65.0366 35.6023 64.96 35.5643C65.0136 35.4276 65.1056 35.4884 65.1746 35.496C68.456 36.0277 71.423 35.3137 74.068 33.3083C74.9113 32.6703 75.6473 31.9335 76.391 31.1891C76.9276 30.6422 76.874 30.8017 77.2343 31.1815C78.2616 32.2601 79.2813 33.3387 80.3086 34.4174C80.3393 34.4477 80.37 34.4781 80.393 34.5085C80.669 34.8275 80.6613 34.8807 80.2933 35.0554C78.553 35.8986 76.7283 36.4683 74.8116 36.7569C74.3056 36.8329 73.792 36.8253 73.3013 36.9924C72.4733 37 71.6453 37 70.825 37Z" fill="#ECAA42"/>
<path d="M58.6811 31.3333C50.1941 22.9853 52.0111 8.04403 63.3425 2.17993C63.3961 2.27108 63.3118 2.30147 63.2658 2.34704C62.0161 3.43327 61.2571 4.80054 60.9965 6.41089C60.6821 8.38584 61.0501 10.2545 62.0928 11.9787C62.8978 13.3156 63.8101 14.5766 64.7301 15.8299C65.0061 16.2021 65.0061 16.2021 64.6075 16.4604C63.4958 17.1744 62.4225 17.9492 61.4105 18.7923C59.3021 20.5546 57.8915 22.7195 57.6078 25.4768C57.4085 27.429 57.6001 29.3431 58.6121 31.0978C58.6505 31.1586 58.7041 31.2118 58.6811 31.3333Z" fill="#ECAA42"/>
<path d="M69.4374 32.3588C67.7507 32.374 66.3247 31.9866 65.0981 30.9915C64.0171 30.118 63.2811 29.0014 62.8747 27.6949C62.1924 25.5376 62.2921 23.3728 63.0357 21.2535C63.5417 19.8103 64.4694 18.6709 65.7267 17.7897C66.0181 17.5846 66.0564 17.5846 66.2787 17.8733C67.076 18.9215 67.8657 19.9774 68.7091 20.9876C69.9664 22.4992 71.216 24.0184 72.4657 25.5376C73.4394 26.7226 74.3977 27.9076 75.3637 29.0925C75.6091 29.3964 75.6167 29.4268 75.3484 29.7382C74.5894 30.6573 73.6311 31.2954 72.5271 31.7359C71.4921 32.1537 70.4264 32.3892 69.4374 32.3588Z" fill="#ECAA42"/>
<path d="M168.26 13.9005C168.598 13.5359 168.858 13.2397 169.127 12.951C169.993 12.0243 171.074 11.485 172.324 11.2951C173.765 11.0748 175.099 11.3559 176.28 12.2522C176.717 12.5864 177.054 12.9966 177.307 13.4828C177.476 13.8094 177.629 14.136 177.805 14.4778C177.982 14.3943 178.028 14.2348 178.112 14.1056C178.971 12.8295 180.075 11.8572 181.585 11.447C183.249 10.9989 184.836 11.1584 186.231 12.275C187.021 12.9131 187.496 13.7486 187.772 14.7133C187.994 15.5033 188.102 16.3237 188.109 17.1364C188.132 19.9545 188.125 22.7802 188.125 25.5983C188.125 26.0237 188.086 26.0617 187.665 26.0693C187.281 26.0769 186.898 26.0769 186.507 26.0693C186.185 26.0617 186.147 26.0085 186.131 25.6895C186.124 25.5604 186.131 25.4388 186.131 25.3097C186.131 22.7954 186.131 20.2888 186.131 17.7745C186.131 17.0529 186.07 16.3388 185.963 15.6248C185.733 14.098 184.399 13.1789 182.965 13.1106C180.926 13.0194 179.063 14.493 178.557 16.4376C178.319 17.3567 178.219 18.2986 178.212 19.2481C178.189 21.2382 178.204 23.2284 178.196 25.2185C178.196 25.3477 178.196 25.4692 178.196 25.5983C178.189 26.0389 178.15 26.0693 177.698 26.0769C177.368 26.0845 177.039 26.0845 176.717 26.0769C176.264 26.0693 176.226 26.0389 176.218 25.5983C176.218 25.416 176.218 25.2337 176.218 25.0514C176.218 22.6663 176.211 20.2812 176.211 17.896C176.211 17.1744 176.149 16.4604 176.034 15.7464C175.774 14.1512 174.585 13.1789 172.96 13.1182C171.197 13.0498 169.318 14.3183 168.705 16.2553C168.398 17.22 168.306 18.2226 168.291 19.2177C168.268 21.2914 168.283 23.3651 168.283 25.4388C168.283 26.0693 168.283 26.0693 167.639 26.0769C167.325 26.0769 167.011 26.0845 166.696 26.0693C166.382 26.0541 166.321 25.9933 166.298 25.6971C166.29 25.5831 166.29 25.4692 166.29 25.3553C166.29 20.9952 166.29 16.6351 166.29 12.275C166.29 11.5838 166.29 11.5838 167.003 11.5838C167.256 11.5838 167.517 11.5838 167.77 11.5838C168.222 11.5914 168.26 11.6217 168.268 12.0623C168.276 12.5029 168.268 12.9358 168.268 13.3764C168.26 13.5207 168.26 13.6575 168.26 13.9005Z" fill="white"/>
<path d="M150.688 13.9461C150.849 13.9005 150.911 13.779 150.995 13.6878C152.107 12.3889 153.487 11.5458 155.204 11.3103C157.335 11.0217 159.29 11.4546 160.977 12.8219C163.001 14.455 163.982 16.5743 163.883 19.1569C163.752 22.7802 161.046 25.6971 157.887 26.282C155.534 26.7225 153.418 26.2136 151.593 24.6412C151.432 24.5045 151.271 24.3678 151.118 24.2159C150.98 24.0867 150.849 23.9424 150.696 23.7829C150.604 23.9728 150.635 24.1323 150.635 24.2766C150.635 26.3503 150.635 28.424 150.635 30.4977C150.635 30.5813 150.635 30.6649 150.635 30.7484C150.635 31.3029 150.619 31.3181 150.06 31.3181C149.715 31.3181 149.377 31.3257 149.032 31.3105C148.718 31.3029 148.672 31.2421 148.657 30.9307C148.649 30.8168 148.657 30.7028 148.657 30.5889C148.657 24.4969 148.657 18.3974 148.657 12.3054C148.657 11.5762 148.657 11.5762 149.416 11.5762C149.669 11.5762 149.929 11.5686 150.182 11.5762C150.581 11.5838 150.627 11.6217 150.635 12.0091C150.642 12.5029 150.635 12.9966 150.642 13.4904C150.635 13.6423 150.604 13.7866 150.688 13.9461ZM156.139 13.1181C153.709 13.0346 151.593 14.6981 150.849 16.7718C150.527 17.6757 150.428 18.6024 150.527 19.5595C150.688 21.1243 151.332 22.4384 152.605 23.4031C154.154 24.5653 155.886 24.9451 157.772 24.4058C160.755 23.555 162.196 20.4331 161.836 18.0631C161.422 15.321 159.106 13.0194 156.139 13.1181Z" fill="white"/>
<path d="M123.349 13.9614C123.471 13.7943 123.425 13.6424 123.433 13.5133C123.441 13.0195 123.425 12.5258 123.441 12.0321C123.448 11.6523 123.51 11.5991 123.901 11.5915C124.284 11.5839 124.667 11.5839 125.058 11.5915C125.334 11.5991 125.38 11.6523 125.403 11.9181C125.411 12.0321 125.411 12.146 125.411 12.2599C125.411 18.3975 125.411 24.535 125.411 30.6726C125.411 31.3334 125.411 31.3334 124.752 31.3334C124.437 31.3334 124.123 31.341 123.809 31.3258C123.525 31.3106 123.471 31.2499 123.448 30.9688C123.441 30.8397 123.441 30.7182 123.441 30.589C123.441 28.5305 123.441 26.472 123.441 24.4059C123.441 24.2388 123.479 24.0717 123.379 23.897C123.188 23.935 123.103 24.0945 122.988 24.2084C122.283 24.9224 121.486 25.5149 120.535 25.8719C117.798 26.905 115.237 26.6011 112.953 24.7325C110.921 23.069 110.047 20.8738 110.185 18.2911C110.277 16.6352 110.875 15.1692 111.979 13.9007C112.953 12.7765 114.118 11.9333 115.552 11.5459C117.905 10.9079 120.129 11.1813 122.099 12.7233C122.551 13.0727 122.935 13.5057 123.349 13.9614ZM117.905 13.1183C117.576 13.1259 117.246 13.1107 116.924 13.1715C116.587 13.2322 116.257 13.3082 115.935 13.4221C113.413 14.3412 111.833 16.977 112.224 19.6204C112.424 20.9801 113.006 22.1651 114.011 23.0994C115.406 24.3983 117.093 24.892 118.979 24.5274C120.366 24.2616 121.547 23.5931 122.406 22.4613C123.402 21.1624 123.694 19.6736 123.517 18.0633C123.226 15.3743 120.834 13.0195 117.905 13.1183Z" fill="white"/>
<path d="M16.4759 23.6312C16.3839 23.8363 16.4145 23.9958 16.4145 24.1477C16.4145 26.1683 16.4145 28.1812 16.4145 30.2017C16.4145 30.3157 16.4145 30.4296 16.4145 30.5435C16.4069 31.136 16.3915 31.1588 15.7859 31.1664C15.4869 31.1664 15.1879 31.174 14.8889 31.1664C14.4825 31.1588 14.4442 31.1208 14.4365 30.7334C14.4365 30.6499 14.4365 30.5663 14.4365 30.4828C14.4365 24.3604 14.4365 18.2381 14.4365 12.1157C14.4365 11.4245 14.4365 11.4245 15.1419 11.4245C15.3719 11.4245 15.5942 11.4245 15.8242 11.4245C16.3992 11.4245 16.4069 11.4397 16.4145 12.0246C16.4145 12.4727 16.4145 12.9285 16.4145 13.3766C16.4145 13.4982 16.3839 13.6273 16.4759 13.7716C16.6599 13.6501 16.7749 13.483 16.9129 13.3311C18.0015 12.1385 19.3202 11.3561 20.9455 11.1358C23.2455 10.8244 25.2925 11.3637 27.0405 12.9133C28.4052 14.121 29.2945 15.6023 29.5475 17.4101C30.0382 20.8283 28.5585 23.9806 25.3462 25.5226C22.6475 26.8215 20.0025 26.4949 17.5875 24.6794C17.2042 24.368 16.8669 24.011 16.4759 23.6312ZM27.6385 18.6862C27.6232 18.4356 27.6385 18.1773 27.6002 17.9266C27.1939 15.0326 24.7405 12.6246 21.3595 12.9513C19.7112 13.1108 18.4079 13.8552 17.4189 15.1389C16.3609 16.5062 16.1002 18.0709 16.3455 19.7497C16.8592 23.2894 20.4242 24.9605 23.1995 24.3224C25.9979 23.6768 27.6999 20.9954 27.6385 18.6862Z" fill="white"/>
<path d="M90.6734 18.5267C90.7117 21.36 90.0677 24.0414 88.8257 26.5784C88.0284 28.1964 87.024 29.6776 85.7667 30.9917C85.552 31.2195 85.3527 31.455 85.1304 31.6753C84.885 31.9108 84.839 31.9108 84.54 31.7209C83.896 31.3183 83.321 30.8322 82.7767 30.3156C81.895 29.4953 81.044 28.6369 80.2467 27.733C79.9477 27.3912 79.94 27.3608 80.2314 26.981C81.044 25.9327 81.688 24.7934 82.263 23.6084C83.0834 21.9297 83.8654 20.2434 84.6704 18.5571C84.8314 18.2152 85.0154 17.881 85.2224 17.5544C85.7744 16.6808 86.564 16.1036 87.53 15.7541C88.335 15.4579 89.1784 15.2984 90.0217 15.1692C90.3207 15.1237 90.3974 15.1768 90.4587 15.4883C90.5814 16.1415 90.6427 16.8024 90.681 17.4632C90.6887 17.8202 90.6734 18.1697 90.6734 18.5267Z" fill="#ECAA42"/>
<path d="M97.4891 16.263C97.4891 13.2322 97.4891 10.1938 97.4891 7.16299C97.4891 6.51733 97.4891 6.51733 98.1561 6.51733C101.491 6.51733 104.826 6.51733 108.161 6.51733C108.215 6.51733 108.276 6.51733 108.33 6.51733C108.774 6.52493 108.805 6.55531 108.813 7.01107C108.82 7.36049 108.82 7.7175 108.813 8.06691C108.805 8.50748 108.774 8.53786 108.314 8.54546C108.199 8.54546 108.084 8.54546 107.969 8.54546C105.378 8.54546 102.779 8.54546 100.188 8.54546C99.5514 8.54546 99.5514 8.54546 99.5438 9.18352C99.5438 10.7635 99.5438 12.3434 99.5438 13.9234C99.5438 14.0222 99.5361 14.1209 99.5514 14.2197C99.5744 14.4855 99.6128 14.5235 99.8964 14.5387C100.027 14.5463 100.149 14.5387 100.28 14.5387C102.886 14.5387 105.493 14.5387 108.1 14.5387C108.721 14.5387 108.721 14.5387 108.721 15.1388C108.721 15.4806 108.728 15.8148 108.713 16.1566C108.705 16.4529 108.652 16.4984 108.36 16.5136C108.23 16.5212 108.107 16.5212 107.977 16.5212C105.424 16.5212 102.879 16.5212 100.326 16.5212C100.226 16.5212 100.126 16.5212 100.027 16.5212C99.5744 16.5288 99.5438 16.5516 99.5438 17.0074C99.5438 19.1798 99.5438 21.3523 99.5438 23.5247C99.5438 23.5931 99.5438 23.669 99.5514 23.7374C99.5514 23.9501 99.6741 24.0413 99.8734 24.0413C100.004 24.0413 100.126 24.0413 100.257 24.0488C102.848 24.0488 105.447 24.0488 108.038 24.0488C108.721 24.0488 108.721 24.0488 108.721 24.7249C108.721 25.0363 108.728 25.3478 108.721 25.6592C108.713 26.0162 108.667 26.0618 108.291 26.077C108.207 26.077 108.123 26.077 108.038 26.077C104.749 26.077 101.453 26.077 98.1638 26.077C97.4814 26.077 97.4814 26.077 97.4814 25.4009C97.4891 22.3549 97.4891 19.309 97.4891 16.263Z" fill="white"/>
<path d="M198.827 19.0432C196.849 19.0432 194.864 19.0432 192.886 19.0432C192.295 19.0432 192.249 19.1039 192.326 19.6812C192.502 21.0561 193.031 22.2563 194.066 23.2209C195.032 24.1249 196.175 24.5882 197.493 24.6262C199.019 24.6718 200.391 24.2388 201.58 23.2893C202.139 22.8411 202.538 22.2563 202.929 21.6638C203.236 21.2004 203.228 21.1928 203.719 21.4435C204.01 21.5954 204.301 21.7321 204.585 21.8992C204.838 22.0436 204.861 22.0967 204.731 22.3322C203.519 24.5578 201.725 25.9859 199.149 26.3429C197.923 26.5176 196.711 26.4568 195.508 26.1302C194.112 25.758 192.978 24.9984 192.073 23.8818C191.153 22.75 190.517 21.4815 190.34 20.0306C189.949 16.8935 191.015 14.3412 193.568 12.4423C194.657 11.6371 195.937 11.2877 197.294 11.2345C198.429 11.1889 199.548 11.2801 200.614 11.7054C202.891 12.6246 204.347 14.2729 205.03 16.5972C205.221 17.2353 205.283 17.8962 205.344 18.557C205.375 18.9292 205.298 19.0128 204.93 19.028C204.8 19.0356 204.677 19.028 204.547 19.028C202.645 19.0432 200.736 19.0432 198.827 19.0432ZM197.815 17.3417C199.41 17.3417 201.005 17.3417 202.599 17.3417C202.699 17.3417 202.799 17.3341 202.898 17.3417C203.082 17.3493 203.167 17.2809 203.113 17.0834C202.753 15.7845 202.078 14.7059 200.905 13.9766C199.77 13.2702 198.536 12.9892 197.194 13.1183C195.922 13.2398 194.848 13.7488 193.944 14.6375C193.3 15.268 192.916 16.0503 192.625 16.8859C192.472 17.3265 192.479 17.3417 192.939 17.3417C194.572 17.3417 196.19 17.3417 197.815 17.3417Z" fill="white"/>
<path d="M44.6351 13.8018C44.7425 13.6499 44.7041 13.5056 44.7041 13.3765C44.7118 12.8523 44.7041 12.3358 44.7118 11.8117C44.7195 11.4699 44.7655 11.4243 45.1181 11.4167C45.5015 11.4091 45.8848 11.4091 46.2758 11.4167C46.5748 11.4243 46.6131 11.4699 46.6361 11.7661C46.6438 11.8649 46.6361 11.9636 46.6361 12.0623C46.6361 16.4452 46.6361 20.8357 46.6361 25.2186C46.6361 25.887 46.6361 25.887 45.9385 25.8946C45.7085 25.8946 45.4861 25.8946 45.2561 25.8946C44.7425 25.887 44.7195 25.8642 44.7118 25.3705C44.7118 24.9223 44.7118 24.4666 44.7118 24.0184C44.7118 23.8969 44.7501 23.7677 44.6351 23.631C44.4128 23.7602 44.2671 23.9728 44.0908 24.14C43.0021 25.173 41.7448 25.887 40.2498 26.1225C37.7735 26.5251 35.5961 25.9098 33.7715 24.1627C32.5525 22.993 31.7781 21.5953 31.5251 19.9318C31.1265 17.3871 31.7858 15.1463 33.5951 13.2777C34.7681 12.0699 36.2018 11.3103 37.8885 11.0977C40.0581 10.8242 42.0208 11.3103 43.6768 12.7916C43.8685 12.9587 44.0295 13.1562 44.2058 13.3385C44.3361 13.498 44.4511 13.6803 44.6351 13.8018ZM44.8115 18.7012C44.8115 16.9162 44.1981 15.5033 42.8718 14.3032C41.6758 13.2245 40.2498 12.8219 38.6551 12.9359C37.6201 13.0118 36.6771 13.3385 35.8338 13.931C33.6565 15.4805 32.7595 18.4354 33.9018 20.9876C35.6115 24.816 40.3418 25.568 43.2398 22.7271C44.3668 21.6409 44.8115 20.2432 44.8115 18.7012Z" fill="white"/>
<path d="M73.7304 7.16305C73.7151 8.84935 73.3394 10.2698 72.3657 11.5003C71.6527 12.3967 70.7711 13.1031 69.7974 13.7108C69.6517 13.8019 69.5061 13.8931 69.3604 13.9766C69.0461 14.1513 69.0154 14.1513 68.7931 13.8703C68.5631 13.5665 68.3331 13.255 68.1107 12.9512C67.4437 12.0169 66.8151 11.0598 66.2861 10.0419C65.8031 9.11521 65.4734 8.13533 65.4427 7.09468C65.3967 5.27165 66.0331 3.75245 67.6814 2.77257C68.3407 2.37758 69.0691 2.30162 69.8204 2.3472C70.3187 2.37758 70.8094 2.46114 71.2771 2.65863C72.2814 3.08401 72.9254 3.8436 73.3011 4.83108C73.6154 5.62106 73.7074 6.46422 73.7304 7.16305Z" fill="#ECAA42"/>
<path d="M209.791 13.9539C210.22 13.4981 210.596 13.0576 211.048 12.6929C212.589 11.4396 214.337 10.9914 216.284 11.3485C218.301 11.7207 219.819 13.2778 220.248 15.3667C220.401 16.1111 220.493 16.8707 220.501 17.6303C220.516 20.2813 220.516 22.9323 220.516 25.5833C220.516 26.0315 220.478 26.0695 220.033 26.0771C219.688 26.0847 219.351 26.0847 219.006 26.0771C218.6 26.0695 218.554 26.0163 218.538 25.5985C218.531 25.4542 218.538 25.3175 218.538 25.1731C218.531 22.6209 218.531 20.0686 218.515 17.5164C218.508 16.8555 218.439 16.1947 218.262 15.549C217.825 13.9767 216.668 13.1335 215.027 13.0348C212.336 12.8601 210.205 15.0857 209.898 17.3113C209.752 18.3595 209.729 19.4154 209.729 20.4788C209.729 22.0588 209.729 23.6388 209.729 25.2187C209.729 25.3327 209.729 25.4466 209.729 25.5605C209.722 26.0315 209.676 26.0771 209.223 26.0847C208.855 26.0922 208.48 26.0923 208.112 26.0771C207.82 26.0695 207.774 26.0087 207.751 25.72C207.744 25.6213 207.751 25.5226 207.751 25.4238C207.751 21.0333 207.751 16.6505 207.751 12.26C207.751 11.5915 207.751 11.5915 208.441 11.5915C208.694 11.5915 208.955 11.5915 209.208 11.5915C209.691 11.5991 209.722 11.6295 209.729 12.0929C209.737 12.5562 209.729 13.0272 209.729 13.4905C209.737 13.6197 209.699 13.764 209.791 13.9539Z" fill="white"/>
<path d="M141.059 16.0882C141.059 17.2428 141.066 18.405 141.059 19.5596C141.051 20.4483 140.936 21.3294 140.714 22.1954C140.139 24.4514 138.337 26.0389 136.006 26.3428C134.91 26.4871 133.814 26.4947 132.74 26.2212C130.448 25.6363 129.068 24.1627 128.562 21.8839C128.386 21.1016 128.294 20.2964 128.294 19.4912C128.294 17.0225 128.286 14.5538 128.286 12.0851C128.286 11.6294 128.324 11.599 128.769 11.5914C129.114 11.5838 129.451 11.5838 129.796 11.5914C130.164 11.599 130.21 11.6446 130.21 12.0168C130.218 12.5789 130.21 13.1486 130.21 13.7107C130.21 14.7665 130.226 15.8299 130.21 16.8858C130.195 18.0252 130.279 19.1722 130.295 20.3116C130.302 20.7749 130.371 21.2383 130.502 21.6864C130.831 22.8714 131.598 23.6918 132.717 24.1627C134.005 24.702 135.339 24.7248 136.627 24.1627C138.122 23.5171 138.874 22.3321 138.989 20.7218C139.096 19.2102 139.058 17.7062 139.065 16.1946C139.073 14.8273 139.065 13.46 139.065 12.0927C139.065 11.6218 139.096 11.5914 139.579 11.5914C139.878 11.5914 140.177 11.5914 140.476 11.5914C141.043 11.5914 141.059 11.6066 141.059 12.1535C141.059 13.46 141.059 14.7741 141.059 16.0882Z" fill="white"/>
<path d="M145.835 18.8457C145.835 21.0334 145.835 23.221 145.835 25.4011C145.835 26.0695 145.828 26.0771 145.138 26.0771C144.823 26.0771 144.509 26.0847 144.195 26.0695C143.926 26.0543 143.88 26.0011 143.857 25.7353C143.85 25.6213 143.85 25.5074 143.85 25.3935C143.85 21.0182 143.85 16.6505 143.85 12.2752C143.85 11.584 143.85 11.584 144.563 11.584C144.877 11.584 145.191 11.584 145.506 11.584C145.713 11.584 145.82 11.6903 145.82 11.8954C145.82 12.0246 145.828 12.1461 145.828 12.2752C145.835 14.4705 145.835 16.6581 145.835 18.8457Z" fill="white"/>
<path d="M144.846 8.81883C143.987 8.81883 143.267 8.10481 143.259 7.25406C143.251 6.40331 143.972 5.6665 144.823 5.6665C145.697 5.6665 146.425 6.38053 146.441 7.25406C146.441 8.07443 145.697 8.81883 144.846 8.81883Z" fill="white"/>
</g>
<defs>
<clipPath id="clip0_237_2">
<rect width="230" height="37" fill="white"/>
</clipPath>
</defs>
</svg>
