<svg width="20" height="20" viewBox="0 0 20 20" fill="none" xmlns="http://www.w3.org/2000/svg">
<path d="M6.26667 2.5H13.7333C15.8136 2.5 17.5 4.18639 17.5 6.26667V13.7333C17.5 15.8136 15.8136 17.5 13.7333 17.5H6.26667C4.18639 17.5 2.5 15.8136 2.5 13.7333V6.26667C2.5 4.18639 4.18639 2.5 6.26667 2.5Z" fill="white" stroke="#ABABAB"/>
<path d="M14 2H6C3.79086 2 2 3.79086 2 6V14C2 16.2091 3.79086 18 6 18H14C16.2091 18 18 16.2091 18 14V6C18 3.79086 16.2091 2 14 2Z" fill="#2274A6"/>
<path fill-rule="evenodd" clip-rule="evenodd" d="M13.314 7.2932C13.2212 7.20026 13.111 7.12652 12.9897 7.07621C12.8684 7.0259 12.7383 7 12.607 7C12.4757 7 12.3456 7.0259 12.2243 7.07621C12.103 7.12652 11.9928 7.20026 11.9 7.2932L8.536 10.6572L7.706 9.8292C7.51849 9.64183 7.26422 9.53661 6.99914 9.53671C6.73406 9.5368 6.47987 9.64219 6.2925 9.8297C6.10512 10.0172 5.99991 10.2715 6 10.5366C6.00009 10.8016 6.10549 11.0558 6.293 11.2432L7.829 12.7782C7.92178 12.8711 8.03199 12.9449 8.1533 12.9952C8.27462 13.0455 8.40466 13.0714 8.536 13.0714C8.66733 13.0714 8.79737 13.0455 8.91869 12.9952C9.04 12.9449 9.15021 12.8711 9.243 12.7782L13.313 8.7072C13.4059 8.61441 13.4797 8.50421 13.53 8.38289C13.5803 8.26158 13.6062 8.13153 13.6062 8.0002C13.6062 7.86887 13.5803 7.73882 13.53 7.61751C13.4797 7.49619 13.4059 7.38599 13.313 7.2932" fill="white"/>
<path d="M6.26667 2.5H13.7333C15.8136 2.5 17.5 4.18639 17.5 6.26667V13.7333C17.5 15.8136 15.8136 17.5 13.7333 17.5H6.26667C4.18639 17.5 2.5 15.8136 2.5 13.7333V6.26667C2.5 4.18639 4.18639 2.5 6.26667 2.5Z" fill="white" stroke="#ABABAB"/>
<path d="M6.26667 2.5H13.7333C15.8136 2.5 17.5 4.18639 17.5 6.26667V13.7333C17.5 15.8136 15.8136 17.5 13.7333 17.5H6.26667C4.18639 17.5 2.5 15.8136 2.5 13.7333V6.26667C2.5 4.18639 4.18639 2.5 6.26667 2.5Z" fill="white" stroke="#ABABAB"/>
<path d="M14 2H6C3.79086 2 2 3.79086 2 6V14C2 16.2091 3.79086 18 6 18H14C16.2091 18 18 16.2091 18 14V6C18 3.79086 16.2091 2 14 2Z" fill="#2274A6"/>
<path fill-rule="evenodd" clip-rule="evenodd" d="M13.314 7.2932C13.2212 7.20026 13.111 7.12652 12.9897 7.07621C12.8684 7.0259 12.7383 7 12.607 7C12.4757 7 12.3456 7.0259 12.2243 7.07621C12.103 7.12652 11.9928 7.20026 11.9 7.2932L8.536 10.6572L7.706 9.8292C7.51849 9.64183 7.26422 9.53661 6.99914 9.53671C6.73406 9.5368 6.47987 9.64219 6.2925 9.8297C6.10512 10.0172 5.99991 10.2715 6 10.5366C6.00009 10.8016 6.10549 11.0558 6.293 11.2432L7.829 12.7782C7.92178 12.8711 8.03199 12.9449 8.1533 12.9952C8.27462 13.0455 8.40466 13.0714 8.536 13.0714C8.66733 13.0714 8.79737 13.0455 8.91869 12.9952C9.04 12.9449 9.15021 12.8711 9.243 12.7782L13.313 8.7072C13.4059 8.61441 13.4797 8.50421 13.53 8.38289C13.5803 8.26158 13.6062 8.13153 13.6062 8.0002C13.6062 7.86887 13.5803 7.73882 13.53 7.61751C13.4797 7.49619 13.4059 7.38599 13.313 7.2932" fill="white"/>
</svg>
