<svg width="20" height="20" viewBox="0 0 20 20" fill="none" xmlns="http://www.w3.org/2000/svg">
<path d="M6.804 16.0001C6.591 16.0011 6.387 15.9201 6.236 15.7741C6.086 15.6281 6 15.4301 6 15.2221C6 15.0151 6.085 14.8161 6.236 14.6701L12.07 9.00208L6.236 3.33208C6.034 3.13608 5.955 2.84808 6.029 2.57908C6.103 2.30908 6.319 2.09908 6.596 2.02708C6.873 1.95408 7.168 2.03108 7.371 2.22908L13.764 8.44908C13.914 8.59608 14 8.79408 14 9.00208C14 9.20908 13.915 9.40808 13.764 9.55408L7.371 15.7741C7.221 15.9201 7.016 16.0011 6.804 16.0001Z" fill="#333333"/>
</svg>
