<svg width="20" height="20" viewBox="0 0 20 20" fill="none" xmlns="http://www.w3.org/2000/svg">
<path d="M3.99992 6.804C3.99892 6.591 4.07992 6.387 4.22592 6.236C4.37192 6.086 4.56992 6 4.77792 6C4.98492 6 5.18392 6.085 5.32992 6.236L10.9979 12.07L16.6679 6.236C16.8639 6.034 17.1519 5.955 17.4209 6.029C17.6909 6.103 17.9009 6.319 17.9729 6.596C18.0459 6.873 17.9689 7.168 17.7709 7.371L11.5509 13.764C11.4039 13.914 11.2059 14 10.9979 14C10.7909 14 10.5919 13.915 10.4459 13.764L4.22592 7.371C4.07992 7.221 3.99892 7.016 3.99992 6.804Z" fill="#333333"/>
</svg>
