<svg width="20" height="20" viewBox="0 0 20 20" fill="none" xmlns="http://www.w3.org/2000/svg">
<path d="M6.26667 2.5H13.7333C15.8136 2.5 17.5 4.18639 17.5 6.26667V13.7333C17.5 15.8136 15.8136 17.5 13.7333 17.5H6.26667C4.18639 17.5 2.5 15.8136 2.5 13.7333V6.26667C2.5 4.18639 4.18639 2.5 6.26667 2.5Z" fill="white" stroke="#ABABAB"/>
<path d="M14 2H6C3.79086 2 2 3.79086 2 6V14C2 16.2091 3.79086 18 6 18H14C16.2091 18 18 16.2091 18 14V6C18 3.79086 16.2091 2 14 2Z" fill="#2274A6"/>
<path fill-rule="evenodd" clip-rule="evenodd" d="M6 10C6 9.44772 6.44772 9 7 9H13C13.5523 9 14 9.44772 14 10C14 10.5523 13.5523 11 13 11H7C6.44772 11 6 10.5523 6 10Z" fill="white"/>
</svg>
