<svg xmlns="http://www.w3.org/2000/svg" width="20" height="19" viewBox="0 0 20 19">
    <g fill="none" fill-rule="evenodd">
        <g>
            <g>
                <path d="M0 0H30V30H0z" transform="translate(-420 -2367) translate(414 2362)"/>
                <path fill="#FFF" fill-rule="nonzero" d="M12.59 23.85c-.265-.037-.748-.194-.95-.307-.339-.195-.609-.459-.778-.748-.17-.282-.233-.584-.226-1.024.006-.66.157-1.105.621-1.821.158-.239.333-.528.39-.647.094-.195.107-.239.107-.521 0-.283-.013-.327-.107-.528-.145-.295-.459-.622-.716-.748-.113-.056-.314-.125-.44-.157-.339-.075-1.244-.062-2.066.026-.603.062-2.274.301-2.375.345-.044.013-.05-.747-.05-6.143 0-5.842.006-6.162.057-6.175.081-.025 1.796-.27 2.286-.326.239-.025.741-.057 1.124-.07.792-.025 1.08.02 1.445.189.283.132.565.433.729.76.113.226.119.264.119.515s-.013.295-.12.521c-.062.139-.238.421-.376.635-.434.647-.597 1.112-.628 1.734-.032.672.119 1.092.534 1.507.282.283.665.503 1.093.616.232.062.351.075.785.075.433 0 .552-.013.766-.075.634-.183 1.13-.572 1.344-1.068.12-.277.164-.503.164-.867-.007-.402-.063-.653-.245-1.011-.151-.296-.189-.358-.478-.716-.823-1.018-.791-2.136.076-2.538.634-.295 1.325-.295 3.662 0 .559.069 1.137.126 1.275.126h.257l-.025.364c-.012.195-.056.546-.1.779-.189.98-.24 1.338-.24 1.696.007.986.378 1.444 1.22 1.488.615.032.942-.113 1.84-.816.188-.145.672-.377.923-.44.245-.063.748-.069.999-.019.528.107.999.497 1.256 1.03.208.428.258.66.258 1.181.006.716-.17 1.25-.547 1.734-.527.672-1.426.873-2.424.54-.365-.12-.54-.213-.993-.515-.207-.138-.477-.295-.59-.358-.201-.094-.245-.107-.521-.107-.283 0-.327.013-.528.107-.295.145-.622.459-.748.716-.163.32-.207.597-.207 1.244.006.798.094 1.658.314 3.034.057.37.107.672.1.672-.024.019-.916-.082-2.587-.283-.415-.05-.76-.069-1.3-.069-.691-.006-.754.006-.98.075-.723.227-1.03.647-.987 1.345.032.47.214.867.679 1.444.276.346.496.773.578 1.118.044.183.056.315.037.61-.025.571-.157.88-.515 1.243-.263.264-.622.465-1.005.566-.307.081-.867.107-1.187.063z" transform="translate(-420 -2367) translate(414 2362) matrix(1 0 0 -1 0 28.872)"/>
            </g>
        </g>
    </g>
</svg>
