<?xml version="1.0" encoding="UTF-8"?>
<svg width="18px" height="22px" viewBox="0 0 18 22" version="1.1" xmlns="http://www.w3.org/2000/svg" xmlns:xlink="http://www.w3.org/1999/xlink">
    <!-- Generator: Sketch 42 (36781) - http://www.bohemiancoding.com/sketch -->
    <title>archive</title>
    <desc>Created with Sketch.</desc>
    <defs></defs>
    <g id="Page-1" stroke="none" stroke-width="1" fill="none" fill-rule="evenodd">
        <g id="archive" fill="#9B9B9B">
            <path d="M16.2,22 L1.8,22 C0.81,22 0,21.202 0,20.226 L0,1.774 C0,0.798 0.81,0 1.8,0 L9.126,0 C9.612,0 10.062,0.177 10.404,0.515 L17.478,7.487 C17.82,7.824 18,8.267 18,8.747 L18,20.226 C18,21.202 17.19,22 16.2,22 Z M1.8,0.71 C1.206,0.71 0.72,1.189 0.72,1.774 L0.72,20.226 C0.72,20.811 1.206,21.29 1.8,21.29 L16.2,21.29 C16.794,21.29 17.28,20.811 17.28,20.226 L17.28,8.746 C17.283789,8.46299223 17.1657776,8.19200297 16.956,8.002 L9.882,1.029 C9.68630366,0.820636279 9.4118178,0.704451789 9.126,0.709 L1.8,0.709 L1.8,0.71 Z" id="Shape"></path>
            <path d="M5.51784375,16.7649062 C5.72617812,16.7649062 5.97617562,16.7193338 6.26784375,16.6281875 L6.26784375,17.5149062 C5.97096727,17.6477194 5.60638758,17.714125 5.17409375,17.714125 C4.69752887,17.714125 4.35052713,17.5936835 4.13307812,17.3527969 C3.91562912,17.1119103 3.80690625,16.7505857 3.80690625,16.2688125 L3.80690625,14.1633437 L3.23659375,14.1633437 L3.23659375,13.6594375 L3.89284375,13.261 L4.23659375,12.339125 L4.9983125,12.339125 L4.9983125,13.2688125 L6.22096875,13.2688125 L6.22096875,14.1633437 L4.9983125,14.1633437 L4.9983125,16.2688125 C4.9983125,16.4380842 5.04583807,16.5630829 5.14089062,16.6438125 C5.23594318,16.7245421 5.36159297,16.7649062 5.51784375,16.7649062 Z M10.9514375,13.2688125 L10.9514375,13.8742812 L10.2678438,14.0500625 C10.3928444,14.245376 10.4553438,14.4641238 10.4553438,14.7063125 C10.4553438,15.1750648 10.2919339,15.5402956 9.96510938,15.8020156 C9.63828482,16.0637357 9.18451332,16.1945937 8.60378125,16.1945937 L8.3889375,16.182875 L8.21315625,16.1633437 C8.0907598,16.2570942 8.0295625,16.3612598 8.0295625,16.4758437 C8.0295625,16.6477196 8.24831031,16.7336562 8.6858125,16.7336562 L9.428,16.7336562 C9.90716906,16.7336562 10.2723998,16.8365198 10.5237031,17.04225 C10.7750065,17.2479802 10.9006563,17.5500605 10.9006563,17.9485 C10.9006563,18.4589192 10.6877678,18.8547486 10.2619844,19.136 C9.836201,19.4172514 9.22487898,19.557875 8.428,19.557875 C7.81862195,19.557875 7.35313182,19.4517563 7.03151562,19.2395156 C6.70989943,19.027275 6.54909375,18.7297519 6.54909375,18.3469375 C6.54909375,18.0839154 6.63112418,17.8638655 6.7951875,17.6867812 C6.95925082,17.509697 7.20013383,17.3833962 7.51784375,17.307875 C7.3954473,17.2557914 7.28867754,17.1705058 7.19753125,17.0520156 C7.10638496,16.9335254 7.0608125,16.8078757 7.0608125,16.6750625 C7.0608125,16.508395 7.1089891,16.3697245 7.20534375,16.2590469 C7.3016984,16.1483692 7.44101992,16.0396464 7.6233125,15.932875 C7.39414469,15.8339162 7.21250588,15.6750636 7.07839062,15.4563125 C6.94427537,15.2375614 6.87721875,14.9797515 6.87721875,14.682875 C6.87721875,14.2063101 7.03216512,13.8378242 7.3420625,13.5774062 C7.65195988,13.3169883 8.09466379,13.1867812 8.6701875,13.1867812 C8.79258395,13.1867812 8.93776479,13.1978488 9.10573438,13.2199844 C9.27370396,13.2421199 9.38112477,13.2583958 9.428,13.2688125 L10.9514375,13.2688125 Z M7.58034375,18.2531875 C7.58034375,18.4172508 7.659119,18.5461558 7.81667187,18.6399062 C7.97422475,18.7336567 8.19492566,18.7805312 8.47878125,18.7805312 C8.90586672,18.7805312 9.24049879,18.7219381 9.4826875,18.60475 C9.72487621,18.4875619 9.84596875,18.3274073 9.84596875,18.1242812 C9.84596875,17.9602179 9.77435488,17.8469378 9.631125,17.7844375 C9.48789512,17.7219372 9.26654316,17.6906875 8.9670625,17.6906875 L8.349875,17.6906875 C8.13112391,17.6906875 7.94818303,17.7421193 7.80104687,17.8449844 C7.65391072,17.9478495 7.58034375,18.0839158 7.58034375,18.2531875 Z M8.0139375,14.6985 C8.0139375,14.9354804 8.06797342,15.1229785 8.17604688,15.261 C8.28412033,15.3990215 8.44883223,15.4680312 8.6701875,15.4680312 C8.89414695,15.4680312 9.05820781,15.3990215 9.162375,15.261 C9.26654219,15.1229785 9.318625,14.9354804 9.318625,14.6985 C9.318625,14.1724557 9.10248133,13.9094375 8.6701875,13.9094375 C8.23268531,13.9094375 8.0139375,14.1724557 8.0139375,14.6985 Z M14.70925,17.636 L11.2600313,17.636 L11.2600313,16.932875 L13.2834688,14.1789687 L11.381125,14.1789687 L11.381125,13.2688125 L14.6389375,13.2688125 L14.6389375,14.04225 L12.6701875,16.7258437 L14.70925,16.7258437 L14.70925,17.636 Z" id="9B9B9B"></path>
        </g>
    </g>
</svg>