<svg xmlns="http://www.w3.org/2000/svg" width="8" height="14" viewBox="0 0 8 14">
    <g fill="none" fill-rule="evenodd">
        <g>
            <g>
                <path d="M0 0H20V20H0z" transform="translate(-202.000000, -3167.000000) translate(196.000000, 3164.000000) translate(10.000000, 10.000000) rotate(90.000000) translate(-10.000000, -10.000000)"/>
                <path fill="#FFF" fill-rule="nonzero" d="M6.804 17c-.213.001-.417-.08-.568-.226-.15-.146-.236-.344-.236-.552 0-.207.085-.406.236-.552l5.834-5.668-5.834-5.67c-.202-.196-.281-.484-.207-.753.074-.27.29-.48.567-.552.277-.073.572.004.775.202l6.393 6.22c.15.147.236.345.236.553 0 .207-.085.406-.236.552l-6.393 6.22c-.15.146-.355.227-.567.226z" transform="translate(-202.000000, -3167.000000) translate(196.000000, 3164.000000) translate(10.000000, 10.000000) scale(-1, 1) translate(-10.000000, -10.000000)"/>
            </g>
        </g>
    </g>
</svg>
