<?xml version="1.0" encoding="UTF-8"?>
<svg width="30px" height="30px" viewBox="0 0 30 30" version="1.1" xmlns="http://www.w3.org/2000/svg" xmlns:xlink="http://www.w3.org/1999/xlink">
    <!-- Generator: sketchtool 62 (101010) - https://sketch.com -->
    <title>FBD39C1B-E51C-492D-8E7E-0E3B311D34D0</title>
    <desc>Created with sketchtool.</desc>
    <g id="Page-1" stroke="none" stroke-width="1" fill="none" fill-rule="evenodd">
        <g id="XC_menu+header" transform="translate(-255.000000, -6307.000000)">
            <g id="Group-35" transform="translate(235.000000, 6205.000000)">
                <g id="Group-25" transform="translate(0.000000, 77.000000)">
                    <g id="Burger-menu" transform="translate(20.000000, 25.000000)">
                        <g>
                            <rect id="Rectangle" x="0" y="0" width="30" height="30"></rect>
                            <path d="M24.1666667,10.2 C24.3923611,10.2 24.5876736,10.1208333 24.7526042,9.9625 C24.9175347,9.80416667 25,9.61666667 25,9.4 L25,9.4 L25,7.8 C25,7.58333333 24.9175347,7.39583333 24.7526042,7.2375 C24.5876736,7.07916667 24.3923611,7 24.1666667,7 L24.1666667,7 L5.83333333,7 C5.60763889,7 5.41232639,7.07916667 5.24739583,7.2375 C5.08246528,7.39583333 5,7.58333333 5,7.8 L5,7.8 L5,9.4 C5,9.61666667 5.08246528,9.80416667 5.24739583,9.9625 C5.41232639,10.1208333 5.60763889,10.2 5.83333333,10.2 L5.83333333,10.2 L24.1666667,10.2 Z M24.1666667,16.6 C24.3923611,16.6 24.5876736,16.5208333 24.7526042,16.3625 C24.9175347,16.2041667 25,16.0166667 25,15.8 L25,15.8 L25,14.2 C25,13.9833333 24.9175347,13.7958333 24.7526042,13.6375 C24.5876736,13.4791667 24.3923611,13.4 24.1666667,13.4 L24.1666667,13.4 L5.83333333,13.4 C5.60763889,13.4 5.41232639,13.4791667 5.24739583,13.6375 C5.08246528,13.7958333 5,13.9833333 5,14.2 L5,14.2 L5,15.8 C5,16.0166667 5.08246528,16.2041667 5.24739583,16.3625 C5.41232639,16.5208333 5.60763889,16.6 5.83333333,16.6 L5.83333333,16.6 L24.1666667,16.6 Z M24.1666667,23 C24.3923611,23 24.5876736,22.9208333 24.7526042,22.7625 C24.9175347,22.6041667 25,22.4166667 25,22.2 L25,22.2 L25,20.6 C25,20.3833333 24.9175347,20.1958333 24.7526042,20.0375 C24.5876736,19.8791667 24.3923611,19.8 24.1666667,19.8 L24.1666667,19.8 L5.83333333,19.8 C5.60763889,19.8 5.41232639,19.8791667 5.24739583,20.0375 C5.08246528,20.1958333 5,20.3833333 5,20.6 L5,20.6 L5,22.2 C5,22.4166667 5.08246528,22.6041667 5.24739583,22.7625 C5.41232639,22.9208333 5.60763889,23 5.83333333,23 L5.83333333,23 L24.1666667,23 Z" id="" fill="#FFFFFF" fill-rule="nonzero"></path>
                        </g>
                    </g>
                </g>
            </g>
        </g>
    </g>
</svg>