<?xml version="1.0" encoding="UTF-8" standalone="no"?>
<svg width="20px" height="20px" viewBox="0 0 20 20" version="1.1" xmlns="http://www.w3.org/2000/svg" xmlns:xlink="http://www.w3.org/1999/xlink">
    <!-- Generator: Sketch 41.1 (35376) - http://www.bohemiancoding.com/sketch -->
    <title>Shape</title>
    <desc>Created with Sketch.</desc>
    <defs></defs>
    <g id="3" stroke="none" stroke-width="1" fill="none" fill-rule="evenodd">
        <g id="Switch-Trial-" transform="translate(-529.000000, -533.000000)" fill="#1C9AE8">
            <g id="1" transform="translate(486.000000, 379.000000)">
                <g id="Group-21" transform="translate(21.000000, 26.000000)">
                    <g id="Group-22">
                        <g id="Group-30" transform="translate(22.000000, 117.000000)">
                            <g id="Group-27" transform="translate(0.000000, 1.000000)">
                                <path d="M5.20820296,18.791797 C4.81707326,19.1829267 4.8236289,19.8236289 5.203125,20.203125 L9,24 L18.2968194,14.7031806 C18.6851753,14.3148247 18.6892946,13.6892946 18.291797,13.291797 L18.308203,13.308203 C17.9170733,12.9170733 17.2837221,12.9162779 16.8962259,13.3037741 L9,21.2 L5.9,18.1 L5.20820296,18.791797 Z M10,28 C5.6,28 2,24.4 2,20 C2,15.6 5.6,12 10,12 C10.8,12 11.5,12.1 12.2,12.3 L13.8,10.7 C12.6,10.3 11.3,10 10,10 C4.5,10 0,14.5 0,20 C0,25.5 4.5,30 10,30 C15.5,30 20,25.5 20,20 L18,20 C18,24.4 14.4,28 10,28 Z" id="Shape"></path>
                            </g>
                        </g>
                    </g>
                </g>
            </g>
        </g>
    </g>
</svg>