<svg height="225" viewBox="0 0 433 225" width="433" xmlns="http://www.w3.org/2000/svg"><g fill="none" fill-rule="evenodd"><g transform="matrix(-1 0 0 1 116 114)"><rect fill="#fff" height="78.6" rx="12" stroke="#ebeff6" stroke-width="1.4" width="78.6" x=".7" y=".7"/><path d="m59.2380952 38.047619h-2.8571428v-7.6190476c0-2.0952381-1.7142857-3.8095238-3.8095238-3.8095238h-7.6190476v-2.8571428c0-2.6666667-2.0952381-4.7619048-4.7619048-4.7619048s-4.7619048 2.0952381-4.7619048 4.7619048v2.8571428h-7.6190476c-2.0952381 0-3.8095238 1.7142857-3.8095238 3.8095238v7.2380953h2.8571429c2.8571428 0 5.1428571 2.2857143 5.1428571 5.1428571 0 2.8571429-2.2857143 5.1428572-5.1428571 5.1428572h-2.8571429v7.2380952c0 2.0952381 1.7142857 3.8095238 3.8095238 3.8095238h7.2380952v-2.8571429c0-2.8571428 2.2857143-5.1428571 5.1428572-5.1428571 2.8571428 0 5.1428571 2.2857143 5.1428571 5.1428571v2.8571429h7.2380953c2.0952381 0 3.8095238-1.7142857 3.8095238-3.8095238v-7.6190476h2.8571428c2.6666667 0 4.7619048-2.0952381 4.7619048-4.7619048s-2.0952381-4.7619048-4.7619048-4.7619048z" fill="#ebeff6" fill-rule="nonzero"/></g><g transform="matrix(0 -1 1 0 0 90)"><rect fill="#fff" height="58.6" rx="8" stroke="#ebeff6" stroke-width="1.4" width="58.6" x=".7" y=".7"/><path d="m42.4285714 28.5357143h-2.1428571v-5.7142857c0-1.5714286-1.2857143-2.8571429-2.8571429-2.8571429h-5.7142857v-2.1428571c0-2-1.5714286-3.5714286-3.5714286-3.5714286s-3.5714285 1.5714286-3.5714285 3.5714286v2.1428571h-5.7142857c-1.5714286 0-2.8571429 1.2857143-2.8571429 2.8571429v5.4285714h2.1428571c2.1428572 0 3.8571429 1.7142857 3.8571429 3.8571429 0 2.1428571-1.7142857 3.8571428-3.8571429 3.8571428h-2.1428571v5.4285714c0 1.5714286 1.2857143 2.8571429 2.8571429 2.8571429h5.4285714v-2.1428571c0-2.1428572 1.7142857-3.8571429 3.8571428-3.8571429 2.1428572 0 3.8571429 1.7142857 3.8571429 3.8571429v2.1428571h5.4285714c1.5714286 0 2.8571429-1.2857143 2.8571429-2.8571429v-5.7142857h2.1428571c2 0 3.5714286-1.5714285 3.5714286-3.5714285s-1.5714286-3.5714286-3.5714286-3.5714286z" fill="#ebeff6" fill-rule="nonzero"/></g><g transform="translate(311)"><rect fill="#fff" height="78.6" rx="12" stroke="#ebeff6" stroke-width="1.4" width="78.6" x=".7" y=".7"/><path d="m58.2380952 38.047619h-2.8571428v-7.6190476c0-2.0952381-1.7142857-3.8095238-3.8095238-3.8095238h-7.6190476v-2.8571428c0-2.6666667-2.0952381-4.7619048-4.7619048-4.7619048s-4.7619048 2.0952381-4.7619048 4.7619048v2.8571428h-7.6190476c-2.0952381 0-3.8095238 1.7142857-3.8095238 3.8095238v7.2380953h2.8571429c2.8571428 0 5.1428571 2.2857143 5.1428571 5.1428571 0 2.8571429-2.2857143 5.1428572-5.1428571 5.1428572h-2.8571429v7.2380952c0 2.0952381 1.7142857 3.8095238 3.8095238 3.8095238h7.2380952v-2.8571429c0-2.8571428 2.2857143-5.1428571 5.1428572-5.1428571 2.8571428 0 5.1428571 2.2857143 5.1428571 5.1428571v2.8571429h7.2380953c2.0952381 0 3.8095238-1.7142857 3.8095238-3.8095238v-7.6190476h2.8571428c2.6666667 0 4.7619048-2.0952381 4.7619048-4.7619048s-2.0952381-4.7619048-4.7619048-4.7619048z" fill="#ebeff6" fill-rule="nonzero"/></g><g transform="translate(373 115)"><rect fill="#fff" height="58.6" rx="8" stroke="#ebeff6" stroke-width="1.4" width="58.6" x=".7" y=".7"/><rect fill="#fff" height="58.6" rx="8" stroke="#ebeff6" stroke-width="1.4" width="58.6" x=".7" y=".7"/><path d="m43.4285714 28.5357143h-2.1428571v-5.7142857c0-1.5714286-1.2857143-2.8571429-2.8571429-2.8571429h-5.7142857v-2.1428571c0-2-1.5714286-3.5714286-3.5714286-3.5714286s-3.5714285 1.5714286-3.5714285 3.5714286v2.1428571h-5.7142857c-1.5714286 0-2.8571429 1.2857143-2.8571429 2.8571429v5.4285714h2.1428571c2.1428572 0 3.8571429 1.7142857 3.8571429 3.8571429 0 2.1428571-1.7142857 3.8571428-3.8571429 3.8571428h-2.1428571v5.4285714c0 1.5714286 1.2857143 2.8571429 2.8571429 2.8571429h5.4285714v-2.1428571c0-2.1428572 1.7142857-3.8571429 3.8571428-3.8571429 2.1428572 0 3.8571429 1.7142857 3.8571429 3.8571429v2.1428571h5.4285714c1.5714286 0 2.8571429-1.2857143 2.8571429-2.8571429v-5.7142857h2.1428571c2 0 3.5714286-1.5714285 3.5714286-3.5714285s-1.5714286-3.5714286-3.5714286-3.5714286z" fill="#ebeff6" fill-rule="nonzero"/></g><g transform="translate(81 21)"><path d="m-.7 9.99740716c0-4.8048221 3.89369936-8.69740716 8.7023611-8.69740716h223.9952779c4.804929 0 8.702361 3.89618905 8.702361 8.69740716v179.99736084c0 1.494917-1.2073 2.705232-2.702727 2.705232h-235.99454576c-1.4953177 0-2.70272724-1.205429-2.70272724-2.705232z" fill="#fff" stroke="#ebeff6" stroke-width="1.4"/><rect fill="#ebeff6" height="46" rx="1" width="40" x="20" y="116"/><g stroke="#ebeff6" stroke-linecap="round" stroke-linejoin="round" stroke-width="3" transform="translate(22 168)"><path d="m0 1h36"/><path d="m5 7h26"/></g><rect fill="#ebeff6" height="46" rx="1" width="40" x="73" y="116"/><g stroke="#ebeff6" stroke-linecap="round" stroke-linejoin="round" stroke-width="3" transform="translate(75 168)"><path d="m0 1h36"/><path d="m5 7h26"/></g><rect fill="#ebeff6" height="46" rx="1" width="40" x="127" y="116"/><g stroke="#ebeff6" stroke-linecap="round" stroke-linejoin="round" stroke-width="3" transform="translate(129 168)"><path d="m0 1h36"/><path d="m5 7h26"/></g><g stroke="#ebeff6" stroke-linecap="round" stroke-linejoin="round" stroke-width="3" transform="translate(182 168)"><path d="m0 1h36"/><path d="m5 7h26"/></g><rect fill="#ebeff6" height="46" rx="1" width="40" x="180" y="116"/><g transform="translate(20 46)"><path d="m0 .9913525c0-.54750887.44043064-.9913525 1.00494712-.9913525h197.99010588c.555017 0 1.004947.4484582 1.004947.9913525v58.017295c0 .5475089-.440431.9913525-1.004947.9913525h-197.99010588c-.55501697 0-1.00494712-.4484582-1.00494712-.9913525z" fill="#ebeff6"/><g stroke="#fff" stroke-linecap="round" stroke-linejoin="round" transform="translate(50 18)"><path d="m40 23h20" stroke-width="8"/><g stroke-width="3"><path d="m20 1.5h60"/><path d="m0 8.5h100"/></g></g></g><rect fill="#ebeff6" height="10px" rx="1" width="34" x="20" y="26"/><g stroke="#ebeff6" stroke-linecap="round" stroke-linejoin="round" stroke-width="3" transform="translate(96 30)"><path d="m0 1h14"/><path d="m27 1h14"/><path d="m54 1h14"/><path d="m81 1h14"/><path d="m108 1h14"/></g><path d="m-.7 5.99306515c0-3.69241609 3.00464546-6.69306515 6.69249477-6.69306515h228.01501023c3.696665 0 6.692495 2.99560178 6.692495 6.69306515v9.70693485h-241.4z" fill="#ebeff6" stroke="#ebeff6" stroke-width="1.4"/><g fill="#fff"><circle cx="8" cy="8" r="2"/><circle cx="15" cy="8" r="2"/><circle cx="22" cy="8" r="2"/></g></g><g transform="translate(280 124)"><g stroke="#64676d" stroke-linecap="round"><path d="m4 22.2868217h69.5193798c2.209139 0 4 1.790861 4 4v69.5193799c0 2.2091389-1.790861 4-4 4h-69.5193798c-2.209139 0-4-1.7908611-4-4v-69.5193799c0-2.209139 1.790861-4 4-4z" fill="#f8fcff" stroke-width="1.8"/><path d="m28.1007752 70.7364341c3.0063606-3.875969 6.5593321-5.8139535 10.6589147-5.8139535s7.6525542 1.9379845 10.6589148 5.8139535" fill-rule="nonzero" stroke-linejoin="round" stroke-width="2"/><path d="m20.6718346 33.5917313v-15.503876c0-9.98964664 8.0982087-18.0878553 18.0878553-18.0878553 9.9896467 0 18.0878553 8.09820866 18.0878553 18.0878553v15.503876" fill-rule="nonzero" stroke-linejoin="round" stroke-width="2"/></g><g fill="#64676d" fill-rule="nonzero"><circle cx="28.100775" cy="53.294574" r="2.906977"/><circle cx="50.064599" cy="53.294574" r="2.906977"/></g></g></g></svg>