<?xml version="1.0" encoding="UTF-8" standalone="no"?>
<svg width="12px" height="16px" viewBox="0 0 12 16" version="1.1" xmlns="http://www.w3.org/2000/svg" xmlns:xlink="http://www.w3.org/1999/xlink">
    <!-- Generator: Sketch 49.2 (51160) - http://www.bohemiancoding.com/sketch -->
    <title>lock_open</title>
    <desc>Created with Sketch.</desc>
    <defs></defs>
    <g id="Upgrade_tool" stroke="none" stroke-width="1" fill="none" fill-rule="evenodd">
        <g id="Marketplace_upgrade_mode_unlock_v2" transform="translate(-1043.000000, -153.000000)">
            <g id="advanced-mode" transform="translate(1034.000000, 146.000000)">
                <g id="Group-4">
                    <g id="lock_open" transform="translate(10.000000, 8.000000)">
                        <path d="M0.651162791,14 C0.29172093,14 0,13.7082791 0,13.3488372 L0,6.18604651 C0,5.82660465 0.29172093,5.53488372 0.651162791,5.53488372 L9.76744186,5.53488372 C10.1268837,5.53488372 10.4186047,5.82660465 10.4186047,6.18604651 L10.4186047,13.3488372 C10.4186047,13.7082791 10.1268837,14 9.76744186,14 L0.651162791,14 Z" id="Shape" stroke="#2274a6" stroke-linecap="round"></path>
                        <path d="M7.62428576,1.07212095 C7.02852956,0.413668346 6.16724039,0 5.20930233,0 C3.41111628,0 1.95348837,1.45762791 1.95348837,3.25581395 L1.95348837,5.53488372" id="Shape" stroke="#2274a6" stroke-linecap="round"></path>
                        <path d="M6.18604651,9.11627907 C6.18604651,8.5767907 5.7487907,8.13953488 5.20930233,8.13953488 C4.66981395,8.13953488 4.23255814,8.5767907 4.23255814,9.11627907 C4.23255814,9.4044186 4.35986047,9.66097674 4.55813953,9.83972093 L4.55813953,10.744186 C4.55813953,11.1036279 4.84986047,11.3953488 5.20930233,11.3953488 C5.56874419,11.3953488 5.86046512,11.1036279 5.86046512,10.744186 L5.86046512,9.83972093 C6.05874419,9.66097674 6.18604651,9.4044186 6.18604651,9.11627907 Z" id="Shape" fill="#2274a6" fill-rule="nonzero"></path>
                    </g>
                </g>
            </g>
        </g>
    </g>
</svg>
