<?xml version="1.0" encoding="UTF-8"?>
<svg width="98px" height="98px" viewBox="0 0 98 98" version="1.1" xmlns="http://www.w3.org/2000/svg" xmlns:xlink="http://www.w3.org/1999/xlink">
    <!-- Generator: Sketch 42 (36781) - http://www.bohemiancoding.com/sketch -->
    <title>logo</title>
    <desc>Created with Sketch.</desc>
    <defs></defs>
    <g id="Page-1" stroke="none" stroke-width="1" fill="none" fill-rule="evenodd">
        <g id="logo" transform="translate(-1.000000, -1.000000)">
            <path d="M14.05,1.00638298 L85.95,1.00638298 C93.1585106,1.00638298 99.0031915,6.85106383 99.0031915,14.0595745 L99.0031915,85.9425532 C99.0031915,93.1521277 93.1595745,98.9957447 85.95,98.9957447 L14.05,98.9957447 C6.84148936,98.9957447 0.996808511,93.1521277 0.996808511,85.9425532 L0.996808511,14.0595745 C0.99787234,6.85 6.84148936,1.00638298 14.05,1.00638298 Z" id="Shape" fill="#F29221"></path>
            <path d="M75.912766,48.6329787 C74.4308511,50.1159574 71.5404255,53.0095745 69.1957447,55.356383 C71.5351064,57.6978723 74.4074468,60.5734043 75.8829787,62.05 C76.4574468,62.6255319 76.8595745,63.493617 76.8595745,64.3138298 L76.8595745,76.1329787 C76.8595745,77.4691489 76.5776596,77.6478723 75.2468085,77.6478723 C70.6489362,77.6478723 70.6053191,77.6446809 69.6414894,77.6446809 L69.6414894,68.6574468 C69.6414894,67.5074468 69.4606383,66.9765957 68.6734043,66.1776596 C67.406383,64.8904255 63.8521277,61.3031915 62.562766,59.9925532 C61.8606383,59.2797872 60.837234,58.9638298 59.9457447,58.9638298 L40.0606383,58.9638298 C39.1702128,58.9638298 38.1457447,59.2797872 37.443617,59.9925532 C36.1542553,61.3021277 32.6010638,64.8904255 31.3329787,66.1776596 C30.5468085,66.9765957 30.3648936,67.5074468 30.3648936,68.6574468 L30.3648936,76.0148936 C30.3648936,77.3212766 30.0170213,77.6691489 28.6851064,77.6691489 C27.9617021,77.6691489 27.7106383,77.6712766 23.0989362,77.6712766 L23.0989362,64.312766 C23.0989362,63.4925532 23.5010638,62.6244681 24.0755319,62.0489362 C25.556383,60.5670213 28.4425532,57.6765957 30.7851064,55.3308511 C28.4457447,52.9882979 25.5691489,50.1095745 24.0925532,48.6319149 C23.5170213,48.0553191 23.1159574,47.187234 23.1159574,46.3680851 L23.1159574,22.3808511 C29.5893617,22.3808511 29.287234,22.3851064 30.3680851,22.3851064 L30.3680851,42.0148936 C30.3680851,43.1648936 30.5489362,43.6957447 31.3361702,44.4946809 C32.6031915,45.7819149 36.156383,49.3691489 37.4468085,50.6787234 C38.1489362,51.3925532 39.1734043,51.7074468 40.0638298,51.7074468 L59.943617,51.7074468 C60.8340426,51.7074468 61.8585106,51.3914894 62.5606383,50.6787234 C63.85,49.3691489 67.4031915,45.7808511 68.6702128,44.4946809 C69.4574468,43.6957447 69.6382979,43.1648936 69.6382979,42.0148936 L69.6382979,22.3851064 C70.7180851,22.3851064 70.4159574,22.3808511 76.8893617,22.3808511 L76.8893617,46.3680851 C76.8893617,47.1882979 76.4882979,48.056383 75.912766,48.6329787 Z" id="Shape" fill="#FFFFFF"></path>
            <polygon id="Shape" fill="#FFFFFF" points="37.943617 36.0606383 43.3159574 36.0606383 43.3159574 41.4106383 37.943617 41.4106383"></polygon>
            <polygon id="Shape" fill="#FFFFFF" points="57.7893617 36.0606383 63.1617021 36.0606383 63.1617021 41.4106383 57.7893617 41.4106383"></polygon>
            <polygon id="Shape" fill="#FFFFFF" points="37.943617 26.1861702 43.3159574 26.1861702 43.3159574 31.5361702 37.943617 31.5361702"></polygon>
            <polygon id="Shape" fill="#FFFFFF" points="57.812766 26.1861702 63.1851064 26.1861702 63.1851064 31.5361702 57.812766 31.5361702"></polygon>
            <polygon id="Shape" fill="#FFFFFF" points="47.8904255 36.0840426 53.262766 36.0840426 53.262766 41.4340426 47.8904255 41.4340426"></polygon>
            <polygon id="Shape" fill="#FFFFFF" points="47.8904255 26.1861702 53.262766 26.1861702 53.262766 31.5361702 47.8904255 31.5361702"></polygon>
            <path d="M30.7308511,83.037234 C28.362766,83.037234 26.3840426,81.3914894 25.8617021,79.1829787 L29.8287234,79.1829787 C30.9510638,79.1829787 31.8606383,78.2734043 31.8606383,77.1521277 L31.8606383,73.1542553 C34.0808511,73.6670213 35.7382979,75.6521277 35.7382979,78.0297872 C35.7382979,80.7946809 33.4968085,83.037234 30.7308511,83.037234 Z" id="Shape" fill="#B14C26"></path>
            <path d="M77.2765957,83.037234 C74.9170213,83.037234 72.9446809,81.4031915 72.4138298,79.2074468 L76.3744681,79.2074468 C77.4968085,79.2074468 78.406383,78.2978723 78.406383,77.1755319 L78.406383,73.1542553 C80.6276596,73.6670213 82.2840426,75.6521277 82.2840426,78.0297872 C82.2840426,80.7946809 80.0425532,83.037234 77.2765957,83.037234 Z" id="Shape" fill="#B14C26"></path>
        </g>
    </g>
</svg>