<svg height="187" viewBox="0 0 400 187" width="400" xmlns="http://www.w3.org/2000/svg" xmlns:xlink="http://www.w3.org/1999/xlink"><defs><rect id="a" height="31" rx="1" width="31"/><rect id="b" height="31" rx="1" width="31"/><rect id="c" height="31" rx="1" width="31"/><rect id="d" height="31" rx="1" width="31"/><rect id="e" height="31" rx="1" width="31"/><rect id="f" height="31" rx="1" width="31"/><rect id="g" height="31" rx="1" width="31"/><rect id="h" height="31" rx="1" width="31"/><path id="i" d="m0 15h44v135h-39c-2.76142375 0-5-2.238576-5-5z"/><rect id="j" height="4" rx="1" width="40" x="49" y="38"/><circle id="k" cx="50" cy="50" r="45"/><rect id="l" height="14" rx="7" width="50" x="-1.372583" y="17"/><filter id="m" height="135.7%" width="110%" x="-5%" y="-17.9%"><feOffset dx="1" dy="5" in="SourceAlpha" result="shadowOffsetInner1"/><feComposite in="shadowOffsetInner1" in2="SourceAlpha" k2="-1" k3="1" operator="arithmetic" result="shadowInnerInner1"/><feColorMatrix in="shadowInnerInner1" type="matrix" values="0 0 0 0 1   0 0 0 0 1   0 0 0 0 1  0 0 0 1 0"/></filter></defs><g fill="none" fill-rule="evenodd"><g transform="translate(28 100)"><rect fill="#fff" fill-rule="evenodd" height="60" rx="6" width="60"/><rect height="58.6" rx="6" stroke="#ebeff6" stroke-width="1.4" width="58.6" x=".7" y=".7"/><path d="m33.8944737 36.2134211c-.1152632-1.2726316-.0710526-2.1607895-.0710526-3.3236843.5763157-.3023684 1.6089473-2.2302631 1.783421-3.8589473.4531579-.0371053 1.1676316-.4792106 1.3768421-2.2247369.1128947-.9371052-.3355263-1.4644737-.6086842-1.6302631.7373684-2.2176316 2.2689474-9.0781579-2.8326316-9.7871053-.525-.9221053-1.8694737-1.3886842-3.6165789-1.3886842-6.99.1286842-7.8331579 5.2784211-6.3007895 11.1757895-.2723684.1657894-.7207895.6931579-.6086842 1.6302631.21 1.7455263.9236842 2.1876316 1.3768421 2.2247369.1736842 1.6278947 1.2473684 3.5565789 1.8252632 3.8589473 0 1.1628948.043421 2.0510527-.0718422 3.3236843-1.3831578 3.718421-10.7155263 2.6747368-11.1465789 9.8463157h30c-.4302632-7.1715789-9.7223684-6.1278947-11.1055263-9.8463157z" fill="#ebeff6" fill-rule="nonzero"/></g><g transform="translate(0 10)"><rect fill="#fff" fill-rule="evenodd" height="50" rx="6" width="50"/><rect height="48.6" rx="6" stroke="#ebeff6" stroke-width="1.4" width="48.6" x=".7" y=".7"/><path d="m36.3988095 23.1547619h-1.7857143v-4.7619048c0-1.3095238-1.0714285-2.3809523-2.3809523-2.3809523h-4.7619048v-1.7857143c0-1.6666667-1.3095238-2.9761905-2.9761905-2.9761905-1.6666666 0-2.9761905 1.3095238-2.9761905 2.9761905v1.7857143h-4.7619047c-1.3095238 0-2.3809524 1.0714285-2.3809524 2.3809523v4.5238096h1.7857143c1.7857143 0 3.2142857 1.4285714 3.2142857 3.2142857s-1.4285714 3.2142857-3.2142857 3.2142857h-1.7857143v4.5238095c0 1.3095238 1.0714286 2.3809524 2.3809524 2.3809524h4.5238095v-1.7857143c0-1.7857143 1.4285714-3.2142857 3.2142857-3.2142857s3.2142857 1.4285714 3.2142857 3.2142857v1.7857143h4.5238096c1.3095238 0 2.3809523-1.0714286 2.3809523-2.3809524v-4.7619047h1.7857143c1.6666667 0 2.9761905-1.3095239 2.9761905-2.9761905 0-1.6666667-1.3095238-2.9761905-2.9761905-2.9761905z" fill="#ebeff6" fill-rule="nonzero"/></g><g transform="translate(350 100)"><rect fill="#fff" fill-rule="evenodd" height="50" rx="6" width="50"/><rect height="48.6" rx="6" stroke="#ebeff6" stroke-width="1.4" width="48.6" x=".7" y=".7"/><path d="m16 10h14l6 6v22c0 1.1045695-.8954305 2-2 2h-18c-1.1045695 0-2-.8954305-2-2v-26c0-1.1045695.8954305-2 2-2z" fill="#ebeff6"/><g stroke="#fff" stroke-linecap="round" stroke-linejoin="round"><g transform="translate(18 20)"><path d="m5.5 1.5h8" stroke-width="1.6"/><g stroke-width="1.8"><path d="m.5 2.43845529h2v-2h-1.99315552z"/><path d="m.5 7.43845529h2v-2h-1.99315552z"/><path d="m.5 12.4384553h2v-2h-1.99315552z"/></g><path d="m5.5 6.5h8" stroke-width="1.6"/><path d="m5.5 11.5h8" stroke-width="1.6"/></g><path d="m30 10v5c0 .5522847.4477153 1 1 1h5" stroke-width="1.6"/></g></g><path d="m70 100h18v60h-18z" fill="#fff"/><g transform="translate(70 30)"><path d="m4 0h192c2.209139 0 4 1.790861 4 4v144c0 1.104569-.895431 2-2 2h-196c-1.1045695 0-2-.895431-2-2v-144c0-2.209139 1.790861-4 4-4z" fill="#fff" fill-rule="evenodd"/><path d="m4 .7c-1.82253967 0-3.3 1.47746033-3.3 3.3v144c0 .71797.58202983 1.3 1.3 1.3h196c.71797 0 1.3-.58203 1.3-1.3v-144c0-1.82253967-1.47746-3.3-3.3-3.3z" stroke="#ebeff6" stroke-width="1.4"/><g transform="translate(49 50)"><path d="m6 36.5h20" stroke="#ebeff6" stroke-linecap="round" stroke-linejoin="round" stroke-width="2"/><path d="m9 40.5h13" stroke="#ebeff6" stroke-linecap="round" stroke-linejoin="round" stroke-width="2"/><use fill="#fff" xlink:href="#a"/><use fill="#ebeff6" xlink:href="#a"/></g><g transform="translate(86 50)"><path d="m6 36.5h20" stroke="#ebeff6" stroke-linecap="round" stroke-linejoin="round" stroke-width="2"/><path d="m9 40.5h13" stroke="#ebeff6" stroke-linecap="round" stroke-linejoin="round" stroke-width="2"/><use fill="#fff" xlink:href="#b"/><use fill="#ebeff6" xlink:href="#b"/></g><g transform="translate(123 50)"><path d="m6 36.5h20" stroke="#ebeff6" stroke-linecap="round" stroke-linejoin="round" stroke-width="2"/><path d="m9 40.5h13" stroke="#ebeff6" stroke-linecap="round" stroke-linejoin="round" stroke-width="2"/><use fill="#fff" xlink:href="#c"/><use fill="#ebeff6" xlink:href="#c"/></g><g transform="translate(160 50)"><path d="m6 36.5h20" stroke="#ebeff6" stroke-linecap="round" stroke-linejoin="round" stroke-width="2"/><path d="m9 40.5h13" stroke="#ebeff6" stroke-linecap="round" stroke-linejoin="round" stroke-width="2"/><use fill="#fff" xlink:href="#d"/><use fill="#ebeff6" xlink:href="#d"/></g><g transform="translate(49 101)"><path d="m6 36.5h20" stroke="#ebeff6" stroke-linecap="round" stroke-linejoin="round" stroke-width="2"/><path d="m9 40.5h13" stroke="#ebeff6" stroke-linecap="round" stroke-linejoin="round" stroke-width="2"/><use fill="#fff" xlink:href="#e"/><use fill="#ebeff6" xlink:href="#e"/></g><g transform="translate(86 101)"><path d="m6 36.5h20" stroke="#ebeff6" stroke-linecap="round" stroke-linejoin="round" stroke-width="2"/><path d="m9 40.5h13" stroke="#ebeff6" stroke-linecap="round" stroke-linejoin="round" stroke-width="2"/><use fill="#fff" xlink:href="#f"/><use fill="#ebeff6" xlink:href="#f"/></g><g transform="translate(123 101)"><path d="m6 36.5h20" stroke="#ebeff6" stroke-linecap="round" stroke-linejoin="round" stroke-width="2"/><path d="m9 40.5h13" stroke="#ebeff6" stroke-linecap="round" stroke-linejoin="round" stroke-width="2"/><use fill="#fff" xlink:href="#g"/><use fill="#ebeff6" xlink:href="#g"/></g><g transform="translate(160 101)"><path d="m6 36.5h20" stroke="#ebeff6" stroke-linecap="round" stroke-linejoin="round" stroke-width="2"/><path d="m9 40.5h13" stroke="#ebeff6" stroke-linecap="round" stroke-linejoin="round" stroke-width="2"/><use fill="#fff" xlink:href="#h"/><use fill="#ebeff6" xlink:href="#h"/></g><path d="m4 0h192c2.209139 0 4 1.790861 4 4v12.25h-200v-12.25c0-2.209139 1.790861-4 4-4z" fill="#fff" fill-rule="evenodd"/><path d="m.7 15.55h198.6v-11.55c0-1.82253967-1.47746-3.3-3.3-3.3h-192c-1.82253967 0-3.3 1.47746033-3.3 3.3z" stroke="#ebeff6" stroke-width="1.4"/><use fill="#fff" fill-rule="evenodd" xlink:href="#i"/><use fill="#ebeff6" fill-rule="evenodd" xlink:href="#i"/><path d="m.7 15.7v129.3c0 2.374824 1.92517558 4.3 4.3 4.3h38.3v-133.6z" stroke="#ebeff6" stroke-width="1.4"/><path d="m1.5 29.5h42" stroke="#fff" stroke-linecap="square"/><g transform="translate(44 20)"><path d="m.5 9.5h154" stroke="#ebeff6" stroke-linecap="square"/><g fill="#ebeff6"><rect height="5" rx="2.5" width="15" x="135" y=".5"/><rect height="5" rx="1" width="5" x="5" y=".5"/></g></g><use fill="#fff" xlink:href="#j"/><use fill="#ebeff6" xlink:href="#j"/><rect fill="#fff" height="6" rx="1" width="6" x="6" y="20"/><g stroke="#fff" stroke-linecap="round" stroke-linejoin="round" stroke-width="1.6" transform="translate(15 20.5)"><path d="m0 1h12"/><path d="m0 4h18"/></g><rect fill="#fff" height="5" rx="1" width="5" x="6" y="37"/><path d="m0 1h12" stroke="#fff" stroke-linecap="round" stroke-linejoin="round" stroke-width="2" transform="translate(15 38.5)"/><rect fill="#fff" height="5" rx="1" width="5" x="6" y="45"/><path d="m0 1h20" stroke="#fff" stroke-linecap="round" stroke-linejoin="round" stroke-width="2" transform="translate(15 46.5)"/><rect fill="#fff" height="5" rx="1" width="5" x="6" y="53"/><path d="m0 1h16" stroke="#fff" stroke-linecap="round" stroke-linejoin="round" stroke-width="2" transform="translate(15 54.5)"/><rect fill="#fff" height="5" rx="1" width="5" x="6" y="61"/><path d="m0 1h9" stroke="#fff" stroke-linecap="round" stroke-linejoin="round" stroke-width="2" transform="translate(15 62.5)"/><g fill="#ebeff6"><circle cx="8.125" cy="8.125" r="1.875"/><circle cx="14.375" cy="8.125" r="1.875"/><circle cx="20.625" cy="8.125" r="1.875"/></g></g><g transform="translate(290)"><rect fill="#fff" fill-rule="evenodd" height="80" rx="8" width="80"/><rect height="78.6" rx="8" stroke="#ebeff6" stroke-width="1.4" width="78.6" x=".7" y=".7"/><path d="m58.6520376 23.5764156c-.8620689-1.0971787-7.3667711-1.9592477-10.7366771-4.5454546 0 0-.4702194-.1567399-.7836991.2351097-1.645768 2.4294671-3.291536 4.4670847-7.1316614 4.4670847s-5.4858934-2.0376176-7.1316614-4.4670847c-.2351098-.3918496-.7836991-.2351097-.7836991-.2351097-3.369906 2.507837-9.8746082 3.4482759-10.7366771 4.5454546-1.8808778 2.4294671-4.5454546 7.7586207-6.3479624 11.2068966 1.645768 2.7429468 5.4075235 4.3887148 8.0721003 4.6238245.862069-.8620689 2.1943574-3.369906 2.9780564-3.369906.3918496 0 1.1755486 2.6645769 1.1755486 8.3855801 0 4.3103449-1.4106583 13.0094045-1.4106583 15.7523513 3.369906 1.2539185 10.2664577 1.1755486 14.184953 1.1755486s10.815047.0783699 14.184953-1.1755486c0-2.7429468-1.4106583-11.4420064-1.4106583-15.7523513 0-5.7210032.783699-8.3855801 1.1755486-8.3855801.783699 0 2.1159874 2.5078371 2.9780564 3.369906 2.5862069-.2351097 6.3479624-1.9592476 8.0721003-4.6238245-1.8025078-3.4482759-4.4670846-8.7774295-6.3479624-11.2068966z" fill="#ebeff6" fill-rule="nonzero"/></g><g transform="translate(220 60)"><circle cx="50" cy="50" fill="#fff" fill-rule="evenodd" r="50"/><circle cx="50" cy="50" r="51" stroke="#fff" stroke-width="2"/><circle cx="50" cy="50" r="51" stroke="#64676d" stroke-width="2"/><g><use fill="#fff" fill-rule="evenodd" xlink:href="#k"/><use fill="#ecf5fc" fill-rule="evenodd" xlink:href="#k"/><circle cx="50" cy="50" r="44" stroke="#64676d" stroke-width="2"/></g></g><path d="m-.99378519 9 22.33159089.00878839c1.6602014.00065336 3.0060606 1.34770011 3.0060606 3.00118301 0 1.6568542-1.3436367 3-3.00353 3h-22.3403363z" fill="#fff" stroke="#64676d" stroke-width="2" transform="matrix(.70710678 .70710678 -.70710678 .70710678 314.907437 138.262876)"/><g transform="matrix(.70710678 .70710678 -.70710678 .70710678 326.890873 133.32233)"><use fill="#ecf5fc" fill-rule="evenodd" xlink:href="#l"/><use fill="#000" filter="url(#m)" xlink:href="#l"/><rect height="12" rx="6" stroke="#64676d" stroke-width="2" width="48" x="-.372583" y="18"/></g><g transform="translate(246 97)"><g fill="#64676d"><circle cx="7" cy="11" r="3"/><circle cx="40.103448" cy="11" r="3"/></g><g stroke="#64676d" stroke-linecap="round" stroke-linejoin="round" stroke-width="2"><path d="m13 30c2.5050781-2 6.1717448-3 11-3s8.4949219 1 11 3"/><g><path d="m.10344828 4.14538677c1.25646551-1.47126437 3.09554597-2.20689656 5.51724138-2.20689656 2.4216954 0 4.26077586.73563219 5.51724134 2.20689656" transform="matrix(.93969262 -.34202014 -.34202014 -.93969262 1.379373 7.822814)"/><path d="m35.6840634 4.14538677c1.2564655-1.47126437 3.095546-2.20689656 5.5172414-2.20689656s4.2607758.73563219 5.5172413 2.20689656" transform="matrix(-.93969262 -.34202014 .34202014 -.93969262 78.877463 19.992101)"/></g></g></g></g></svg>