<?xml version="1.0" encoding="UTF-8"?>
<svg width="462px" height="207px" viewBox="0 0 462 207" version="1.1" xmlns="http://www.w3.org/2000/svg" xmlns:xlink="http://www.w3.org/1999/xlink">
    <!-- Generator: Sketch 52.5 (67469) - http://www.bohemiancoding.com/sketch -->
    <title>updates &amp; upgrades</title>
    <desc>Created with Sketch.</desc>
    <defs>
        <rect id="path-1" x="0.222222222" y="0.111111111" width="46" height="130"></rect>
        <rect id="path-2" x="55" y="24.8888889" width="53.3333333" height="3.55555556" rx="1"></rect>
    </defs>
    <g id="Page-1" stroke="none" stroke-width="1" fill="none" fill-rule="evenodd">
        <g id="updates-&amp;-upgrades" transform="translate(-624.000000, -174.000000)">
            <g id="Group-4">
                <g id="updates-&amp;-upgrades" transform="translate(625.000000, 174.000000)">
                    <g id="Group-17" transform="translate(92.000000, 0.000000)">
                        <g id="Group-5" transform="translate(234.000000, 0.000000)" fill-rule="nonzero">
                            <g id="Group-8">
                                <path d="M59.5355723,94.8083181 C59.8814368,94.442312 60.3741081,93.6784732 61.0135863,92.5168015 C62.6711954,89.5056005 65,86.1851852 68,82.5555556 L68,82.64409 C68.0078694,82.6344604 68.0157497,82.6248303 68.023641,82.6152067 C68.9347879,81.5040448 77.0102821,74.6157215 79.1308594,71.9102117 C85.8768711,63.3034039 94.4999179,59 105,59 C101.624235,63.328394 99.0639069,66.5759341 97.3190159,68.7426202 C93.7864501,73.1291185 89.96902,78.3335894 86.7884223,80.2141657 C79.9729074,84.2439415 72.490113,88.1208496 64.3400389,91.8448899 C63.6237705,92.4348164 62.8665908,92.736775 61.8119165,94.4762481 C61.1370295,95.5893384 60.6677561,97.1650975 60.4040963,99.2035254 C60.7420897,100.964611 61.0549117,102.725697 61.29518,104.486783 C69.5298329,96.3947989 77.7647729,92.5781766 86,93.0369166 C86,95.5163111 84.1995425,98.5031411 80.5986274,101.997407 C76.4327437,106.039908 67.9839434,106.98351 67.9839434,115.901643 C65.7742373,115.354371 63.5435873,115.074794 61.2919933,115.062911 C60.9393446,118.381984 60.5121001,122.064494 60.6853031,126.11044 C60.7716179,128.126719 61.8250801,130.73164 62.7166795,133.925202 C65.2739984,126.206613 67.7501431,120.720649 70.1451137,117.467309 C72.6657875,114.043213 75.8047019,112.226467 79.5618567,112.01707 C83.4927327,109.339023 88.3324317,108 94.0809535,108 C114.727845,108 124.319026,119.333333 122.854497,142 C120.737318,138.685758 113.563305,137.515468 101.332461,138.48913 C89.5505798,139.427052 80.9731818,132.569876 75.6002665,117.917602 C73.2745307,118.754346 71.7411086,119.753985 71,120.91652 C67.6528962,126.166935 66.7555708,135.034283 65.7355332,136.656955 C64.7337868,138.250529 64.1278496,139.558863 63.9177216,140.581957 C64.0958089,143.469351 63.9848007,147.942032 63.584697,154 L60.6032431,154 C61.281463,148.88771 61.4933305,145.242911 61.2388456,143.065604 C61.0713589,141.632632 60.8465007,140.27259 60.590908,138.985478 C59.839491,136.403696 58.8494961,134.177263 57.6209234,132.306181 C56.795091,131.048461 55.6784223,129.340733 54.2709173,127.182997 C44.6456283,129.046692 36.8737388,127.721879 30.9552488,123.208559 C24.8762922,118.57287 20.6194067,111.754595 18.1845924,102.753734 C8.44442014,100.597623 2.38288933,100.799606 3.4134473e-11,103.359684 C2.07627608,84.5618618 10.4633974,74.8851264 25.161364,74.3294779 C22.1909857,73.3266241 19.4783968,71.8722426 17.0235972,69.9663334 C9.31114452,63.9783765 3.96994544,55.0985085 1,43.3267294 C1.80307904,45.7763482 8.75947987,45.4701459 21.8692025,42.4081224 C30.9569068,40.2855173 41.6498076,46.5982713 46.4436019,57.7182396 C47.701558,60.636269 48.1969585,65.3994898 47.9298033,72.0079021 C48.9592147,74.3746025 49.9234939,76.0304059 50.8226407,76.9753122 C51.8204796,78.0239334 53.0568897,79.5367039 54.531871,81.5136236 C53.7759266,76.9620308 52.1985883,72.1102085 52.0162773,66.9581568 C51.9071443,63.8740932 52.3467832,59.1305749 53.335194,52.7276019 C41.4686563,42.6876198 38.0051811,32.2790938 42.9447685,21.502024 C48.0822388,10.2932182 49.4584601,3.1258769 47.0734325,-1.38840051e-11 C68.8890052,6.33437718 76.2331413,19.2421242 69.1058408,38.723241 C66.4771778,45.9081903 62.1899993,50.7885475 56.2443053,53.3643128 C55.0722335,56.6377846 54.6804934,61.7907315 55.069085,68.8231535 C55.0794521,69.0107694 55.0935644,69.1999382 55.1111153,69.3906598 L59.2690392,64.5302555 C61.0203378,55.4765314 67.758682,46.8567347 79.4840717,38.6708654 C85.3513874,34.5747048 94.5233635,32.6845261 107,33.0003293 C100.772135,37.661142 97.6582031,41.3155554 97.6582031,43.9635695 C97.6582031,51.1740315 93.875357,57.8837349 86.9837108,63.7114003 C76.9516719,72.1946225 67.9148666,73.2726096 59.873295,66.9453617 C59.4861379,67.362155 59.0701412,67.8848722 58.6253048,68.5135135 C57.404966,70.2380925 56.5616856,72.2365442 56.0954636,74.5088686 C56.8529363,77.5690821 57.7841751,80.9388964 58.0262445,84.6183113 C58.249712,88.0149802 58.8661432,91.4116492 59.5355723,94.8083181 Z M50.4539078,84.0111266 C51.2598323,83.957789 52.0730952,84.0962149 52.8936964,84.4264042 C52.3273194,83.4311437 51.7666326,82.5611423 51.211636,81.8164001 C49.890678,80.0438249 47.9520563,77.7920738 45.3957707,75.0611468 C42.9369747,75.5265245 40.5769555,75.8188908 38.3157132,75.9382457 C43.4958607,77.4770664 47.5419256,80.1680267 50.4539078,84.0111266 Z M51.3372759,87.6771528 C47.7554088,93.8555866 43.793077,98.3301229 39.4502804,101.100762 C43.6110084,101.598226 47.7919915,103.916674 51.0071879,107.587866 C53.0470353,106.523659 55.5322444,105.783642 58.4628151,105.367814 C57.8512064,99.6324295 56.807416,94.8394444 55.9989085,90.9888588 L56,91 C55.5982464,90.010609 55.19916,89.0799303 54.8027407,88.2079638 C54.5363674,87.9645016 54.2687871,87.7574461 54,87.5867973 C52.8563733,86.8607264 51.9687987,86.8908449 51.3372759,87.6771528 Z M55.9655582,124.226935 C56.3276079,125.332705 56.9863441,126.679534 57.9417667,128.267424 C57.8131643,127.597985 57.7291775,126.98174 57.7063987,126.418688 C57.5328445,122.128734 57.8798219,118.393187 58.2144047,115.212047 C57.2862795,115.306479 56.3546549,115.445639 55.419531,115.629526 C55.9007733,117.78415 56.0827824,120.649953 55.9655582,124.226935 Z M18.8699195,102.907943 C19.3961634,103.028245 19.932778,103.155195 20.4797633,103.288793 C19.8114304,103.219784 19.2748158,103.092834 18.8699195,102.907943 Z" id="Combined-Shape" fill="#EBEFF6"></path>
                                <g id="Group-7" transform="translate(75.000000, 113.000000)" stroke="#FFFFFF" stroke-linecap="round" stroke-linejoin="round">
                                    <path d="M0.282226562,5.56420898 C5.79931641,2.60229492 13.3572591,2.8278096 22.9560547,6.24075301 C32.5548503,9.65369642 38.292806,13.9067788 40.1699219,19" id="Line-4"></path>
                                    <path d="M22.6582031,6.35302734 C24.9161784,9.90201823 25.6273329,13.4510091 24.7916667,17" id="Line-5"></path>
                                    <path d="M11.6501465,3.67724609 C14.1109212,6.9061827 14.8247613,10.680434 13.7916667,15" id="Line-5-Copy"></path>
                                    <path d="M21.7763072,-2.2693151 C24.3453889,-0.340132871 25.2378081,2.84829008 24.453565,7.29595374" id="Line-5-Copy-2" transform="translate(23.252495, 2.513319) rotate(-100.000000) translate(-23.252495, -2.513319) "></path>
                                    <path d="M31.842428,4.64672939 C33.4460621,6.29246636 33.7097426,8.24766858 32.6334696,10.5123361" id="Line-5-Copy-3" transform="translate(32.562129, 7.579533) rotate(-100.000000) translate(-32.562129, -7.579533) "></path>
                                </g>
                                <g id="Group-7-Copy-2" transform="translate(55.948725, 31.422523) scale(-1, 1) rotate(-106.000000) translate(-55.948725, -31.422523) translate(33.448725, 21.922523)" stroke="#FFFFFF" stroke-linecap="round" stroke-linejoin="round">
                                    <path d="M0.895328023,6.56232495 C8.67035023,2.93500024 17.3572591,2.8278096 26.9560547,6.24075301 C36.5548503,9.65369642 42.292806,13.9067788 44.1699219,19" id="Line-4"></path>
                                    <path d="M26.6582031,6.35302734 C28.9161784,9.90201823 29.6273329,13.4510091 28.7916667,17" id="Line-5"></path>
                                    <path d="M15.6501465,3.67724609 C18.1109212,6.9061827 18.8247613,10.680434 17.7916667,15" id="Line-5-Copy"></path>
                                    <path d="M25.7763072,-2.2693151 C28.3453889,-0.340132871 29.2378081,2.84829008 28.453565,7.29595374" id="Line-5-Copy-2" transform="translate(27.252495, 2.513319) rotate(-100.000000) translate(-27.252495, -2.513319) "></path>
                                    <path d="M35.842428,4.64672939 C37.4460621,6.29246636 37.7097426,8.24766858 36.6334696,10.5123361" id="Line-5-Copy-3" transform="translate(36.562129, 7.579533) rotate(-100.000000) translate(-36.562129, -7.579533) "></path>
                                </g>
                                <g id="Group-7-Copy-3" transform="translate(29.434704, 85.587347) scale(-1, 1) rotate(4.000000) translate(-29.434704, -85.587347) translate(6.434704, 76.587347)" stroke="#FFFFFF" stroke-linecap="round" stroke-linejoin="round">
                                    <path d="M0.895328023,8.56232495 C19.4224721,1.17942274 34.2676576,4.09087188 45.4308845,17.2966723" id="Line-4"></path>
                                    <path d="M31,7 C33.2579753,10.5489909 33.9691298,14.0979818 33.1334635,17.6469727" id="Line-5"></path>
                                    <path d="M16.5779541,4.60992557 C18.8213988,7.55368983 19.4721941,10.9946078 18.53034,14.9326796" id="Line-5-Copy"></path>
                                    <path d="M26.6343583,-2.33419968 C29.20344,-0.405017445 30.0958592,2.7834055 29.3116161,7.23106916" id="Line-5-Copy-2" transform="translate(28.110546, 2.448435) rotate(-100.000000) translate(-28.110546, -2.448435) "></path>
                                    <path d="M37.6980432,4.51208835 C39.3016773,6.15782531 39.5653578,8.11302754 38.4890847,10.377695" id="Line-5-Copy-3" transform="translate(38.417744, 7.444892) rotate(-100.000000) translate(-38.417744, -7.444892) "></path>
                                </g>
                                <g id="Group-7-Copy-5" transform="translate(43.582479, 115.531086) rotate(224.000000) translate(-43.582479, -115.531086) translate(24.582479, 107.031086)" stroke="#FFFFFF" stroke-linecap="round" stroke-linejoin="round">
                                    <path d="M0.786671482,6.24535788 C13.7572445,11.1046954 25.5739363,11.1877758 36.2367469,6.49459906" id="Line-4"></path>
                                    <path d="M25.8999066,9.52595172 C28.3196491,10.1413318 30.1007427,11.6650647 31.2431873,14.0971506" id="Line-5"></path>
                                    <path d="M11.3008767,9.04812498 C16.1867554,10.501473 18.6037528,13.0044916 18.5518689,16.557181" id="Line-5-Copy"></path>
                                    <path d="M19.1660074,1.08145648 C21.0470768,5.86986004 23.7157379,8.58769374 27.1719905,9.23495757" id="Line-5-Copy-2" transform="translate(23.168999, 5.158207) rotate(-100.000000) translate(-23.168999, -5.158207) "></path>
                                    <path d="M33.7439447,2.3058921 C35.6536981,4.00560617 36.0157268,5.97814983 34.8300306,8.22352306" id="Line-5-Copy-3" transform="translate(34.627619, 5.264708) rotate(40.000000) translate(-34.627619, -5.264708) "></path>
                                </g>
                                <g id="Group-7-Copy-6" transform="translate(58.947385, 99.908830) rotate(224.000000) translate(-58.947385, -99.908830) translate(44.947385, 87.408830)" stroke="#FFFFFF" stroke-linecap="round" stroke-linejoin="round">
                                    <path d="M0.0120659304,8.26892734 C3.35453497,7.82385871 6.37058308,8.69682364 9.06021024,10.8878221" id="Line-4"></path>
                                    <path d="M1.03794475,24.5918768 C3.56067365,15.0436039 5.78195387,10.3037849 7.70178539,10.37242" id="Line-5-Copy"></path>
                                    <path d="M6.05111914,8.66310503 C5.4876221,5.90904805 6.85851566,3.2318704 10.1637998,0.631572098" id="Line-5-Copy-4"></path>
                                    <path d="M19.1660074,1.08145648 C21.0470768,5.86986004 23.7157379,8.58769374 27.1719905,9.23495757" id="Line-5-Copy-2" transform="translate(23.168999, 5.158207) rotate(-100.000000) translate(-23.168999, -5.158207) "></path>
                                </g>
                                <g id="Group-7-Copy-2" transform="translate(78.506742, 50.730897) rotate(-46.000000) translate(-78.506742, -50.730897) translate(52.006742, 40.730897)" stroke="#FFFFFF" stroke-linecap="round" stroke-linejoin="round">
                                    <path d="M0.720302844,8.80399477 C19.7145036,3.09421679 36.9338874,5.18278636 52.3784544,15.0697035" id="Line-4"></path>
                                    <path d="M32.4947596,5.91673554 C34.9648117,9.79905988 35.7427603,13.6813842 34.8286054,17.5637085" id="Line-5" transform="translate(33.846884, 11.740222) rotate(-20.000000) translate(-33.846884, -11.740222) "></path>
                                    <path d="M19.8155783,3.79841267 C23.3630033,8.45321117 24.3920671,13.8941292 22.9027695,20.1211667" id="Line-5-Copy" transform="translate(21.689449, 11.959790) rotate(-30.000000) translate(-21.689449, -11.959790) "></path>
                                    <path d="M25.0429832,-1.60926898 C27.6120648,0.319913248 28.5044841,3.50833619 27.720241,7.95599985" id="Line-5-Copy-2" transform="translate(26.519170, 3.173365) rotate(-101.000000) translate(-26.519170, -3.173365) "></path>
                                    <path d="M42.2445383,2.72077368 C44.6683609,5.20823287 45.0669024,8.1634352 43.4401629,11.5863807" id="Line-5-Copy-3" transform="translate(43.332335, 7.153577) rotate(-90.000000) translate(-43.332335, -7.153577) "></path>
                                </g>
                                <g id="Group-7-Copy-4" transform="translate(81.254516, 77.368758) rotate(-46.000000) translate(-81.254516, -77.368758) translate(56.254516, 70.368758)" stroke="#FFFFFF" stroke-linecap="round" stroke-linejoin="round">
                                    <path d="M0.577164414,2.15159633 C19.1690919,5.84378414 30.3778027,0.374638731 49.2811469,9.41135496" id="Line-4"></path>
                                    <path d="M29.9840672,2.56766345 C33.8805466,5.88199143 36.1633833,9.14261687 36.8325773,12.3495398" id="Line-5" transform="translate(33.408322, 7.458602) rotate(-20.000000) translate(-33.408322, -7.458602) "></path>
                                    <path d="M20.0774688,1.62134572 C22.9824129,4.52114928 24.7545955,8.28699303 25.3940166,12.918877" id="Line-5-Copy" transform="translate(22.735743, 7.270111) rotate(-30.000000) translate(-22.735743, -7.270111) "></path>
                                    <path d="M26.5580727,-1.59903459 C28.1409236,0.838342117 28.7210853,3.33768457 28.2985577,5.89899275" id="Line-5-Copy-2" transform="translate(27.495084, 2.149979) rotate(-101.000000) translate(-27.495084, -2.149979) "></path>
                                    <path d="M41.2445383,-0.279226316 C43.6683609,2.20823287 44.0669024,5.1634352 42.4401629,8.58638068" id="Line-5-Copy-3" transform="translate(42.332335, 4.153577) rotate(-90.000000) translate(-42.332335, -4.153577) "></path>
                                </g>
                                <g id="Group-7-Copy" transform="translate(28.211076, 60.302929) scale(-1, -1) rotate(20.000000) translate(-28.211076, -60.302929) translate(6.211076, 48.802929)" stroke="#FFFFFF" stroke-linecap="round" stroke-linejoin="round">
                                    <path d="M0.733590172,3.06795553 C7.96157755,7.36542398 14.7635331,10.7426924 21.1394569,13.1997607 C27.5153807,15.656829 34.8147849,15.8927074 43.0376695,13.9073959" id="Line-4"></path>
                                    <path d="M17.4365745,11.804655 C19.6945497,15.3536459 20.4057042,18.9026368 19.570038,22.4516277" id="Line-5"></path>
                                    <path d="M26.0863678,6.16109801 C28.1124825,8.81968989 28.700233,11.9272746 27.8496196,15.483852" id="Line-5-Copy" transform="translate(27.156631, 10.822475) rotate(60.000000) translate(-27.156631, -10.822475) "></path>
                                    <path d="M13.7961313,0.843113136 C16.365213,2.77229537 17.2576323,5.96071831 16.4733892,10.408382" id="Line-5-Copy-2" transform="translate(15.272319, 5.625748) scale(1, -1) rotate(-38.000000) translate(-15.272319, -5.625748) "></path>
                                    <path d="M33.5756704,14.9205215 C35.1793044,16.5662584 35.442985,18.5214607 34.3667119,20.7861281" id="Line-5-Copy-3" transform="translate(34.295371, 17.853325) rotate(-20.000000) translate(-34.295371, -17.853325) "></path>
                                </g>
                            </g>
                            <g id="Group-6" transform="translate(38.000000, 146.000000)" stroke="#EBEFF6">
                                <path d="M2.76216482,0.7 L7.75401667,59.3 L42.2459833,59.3 L47.2378352,0.7 L2.76216482,0.7 Z" id="Rectangle" stroke-width="1.4" fill="#EBEFF6"></path>
                                <path d="M2,1 C1.44771525,1 1,1.44771525 1,2 L1,8 C1,8.55228475 1.44771525,9 2,9 L48,9 C48.5522847,9 49,8.55228475 49,8 L49,2 C49,1.44771525 48.5522847,1 48,1 L2,1 Z" id="Rectangle-Copy" stroke-width="2" fill="#FFFFFF"></path>
                            </g>
                        </g>
                        <path d="M12.5444444,57.0025364 C12.5444444,50.9817738 17.427195,46.1 23.4478173,46.1 L216.774405,46.1 C222.795104,46.1 227.677778,50.983334 227.677778,57.0025364 L227.677778,188.108575 C227.677778,194.129337 222.795027,199.011111 216.774405,199.011111 L23.4478173,199.011111 C17.427118,199.011111 12.5444444,194.127777 12.5444444,188.108575 L12.5444444,57.0025364 Z" id="Rectangle-24" stroke="#64676D" stroke-width="1.8" fill="#F8F9FB"></path>
                        <path d="M24.5,55.1 L215.5,55.1 C216.273199,55.1 216.9,55.7268014 216.9,56.5 L216.9,185.5 C216.9,186.273199 216.273199,186.9 215.5,186.9 L24.5,186.9 C23.7268014,186.9 23.1,186.273199 23.1,185.5 L23.1,56.5 C23.1,55.7268014 23.7268014,55.1 24.5,55.1 Z" id="Mask" stroke="#64676D" stroke-width="1.8" fill="#FFFFFF"></path>
                        <g id="Group-8-Copy-3" transform="translate(23.000000, 55.000000)">
                            <g id="Group-3" transform="translate(55.000000, 37.333333)">
                                <g id="Group-16">
                                    <path d="M5.33333333,32.4444444 L23.1111111,32.4444444" id="Line-3-Copy-3" stroke="#FAEED5" stroke-width="2" stroke-linecap="round" stroke-linejoin="round"></path>
                                    <path d="M8,36 L19.5555556,36" id="Line-3-Copy-2" stroke="#FAEED5" stroke-width="2" stroke-linecap="round" stroke-linejoin="round"></path>
                                    <rect id="Rectangle-2-Copy" fill="#FAEED5" x="0" y="0" width="27.5555556" height="27.5555556" rx="1"></rect>
                                    <polyline id="Line-2" stroke="#FFFFFF" stroke-width="2" stroke-linecap="round" stroke-linejoin="round" fill-rule="nonzero" points="10 14 13 17 19 11"></polyline>
                                </g>
                                <g id="Group-16-Copy" transform="translate(33.777778, 0.000000)">
                                    <path d="M5.33333333,32.4444444 L23.1111111,32.4444444" id="Line-3-Copy-3" stroke="#FAEED5" stroke-width="2" stroke-linecap="round" stroke-linejoin="round"></path>
                                    <path d="M8,36 L19.5555556,36" id="Line-3-Copy-2" stroke="#FAEED5" stroke-width="2" stroke-linecap="round" stroke-linejoin="round"></path>
                                    <rect id="Rectangle-2-Copy" fill="#FAEED5" x="0" y="0" width="27.5555556" height="27.5555556" rx="1"></rect>
                                    <polyline id="Line-2" stroke="#FFFFFF" stroke-width="2" stroke-linecap="round" stroke-linejoin="round" fill-rule="nonzero" points="10 14 13 17 19 11"></polyline>
                                </g>
                                <g id="Group-16-Copy-4" transform="translate(67.555556, 0.000000)">
                                    <path d="M5.33333333,32.4444444 L23.1111111,32.4444444" id="Line-3-Copy-3" stroke="#FAEED5" stroke-width="2" stroke-linecap="round" stroke-linejoin="round"></path>
                                    <path d="M8,36 L19.5555556,36" id="Line-3-Copy-2" stroke="#FAEED5" stroke-width="2" stroke-linecap="round" stroke-linejoin="round"></path>
                                    <rect id="Rectangle-2-Copy" fill="#FAEED5" x="0" y="0" width="27.5555556" height="27.5555556" rx="1"></rect>
                                    <polyline id="Line-2" stroke="#FFFFFF" stroke-width="2" stroke-linecap="round" stroke-linejoin="round" fill-rule="nonzero" points="10 14 13 17 19 11"></polyline>
                                </g>
                                <g id="Group-16-Copy-5" transform="translate(101.333333, 0.000000)">
                                    <path d="M5.33333333,32.4444444 L23.1111111,32.4444444" id="Line-3-Copy-3" stroke="#FAEED5" stroke-width="2" stroke-linecap="round" stroke-linejoin="round"></path>
                                    <path d="M8,36 L19.5555556,36" id="Line-3-Copy-2" stroke="#FAEED5" stroke-width="2" stroke-linecap="round" stroke-linejoin="round"></path>
                                    <rect id="Rectangle-2-Copy" fill="#FAEED5" x="0" y="0" width="27.5555556" height="27.5555556" rx="1"></rect>
                                    <polyline id="Line-2" stroke="#FFFFFF" stroke-width="2" stroke-linecap="round" stroke-linejoin="round" fill-rule="nonzero" points="10 14 13 17 19 11"></polyline>
                                </g>
                                <g id="Group-16-Copy-3" transform="translate(0.000000, 45.333333)">
                                    <path d="M5.33333333,32.4444444 L23.1111111,32.4444444" id="Line-3-Copy-3" stroke="#FAEED5" stroke-width="2" stroke-linecap="round" stroke-linejoin="round"></path>
                                    <path d="M8,36 L19.5555556,36" id="Line-3-Copy-2" stroke="#FAEED5" stroke-width="2" stroke-linecap="round" stroke-linejoin="round"></path>
                                    <rect id="Rectangle-2-Copy" fill="#FAEED5" x="0" y="0" width="27.5555556" height="27.5555556" rx="1"></rect>
                                    <polyline id="Line-2" stroke="#FFFFFF" stroke-width="2" stroke-linecap="round" stroke-linejoin="round" fill-rule="nonzero" points="10 14 13 17 19 11"></polyline>
                                </g>
                                <g id="Group-16-Copy-2" transform="translate(33.777778, 45.333333)">
                                    <path d="M5.33333333,32.4444444 L23.1111111,32.4444444" id="Line-3-Copy-3" stroke="#FAEED5" stroke-width="2" stroke-linecap="round" stroke-linejoin="round"></path>
                                    <path d="M8,36 L19.5555556,36" id="Line-3-Copy-2" stroke="#FAEED5" stroke-width="2" stroke-linecap="round" stroke-linejoin="round"></path>
                                    <rect id="Rectangle-2-Copy" fill="#FAEED5" x="0" y="0" width="27.5555556" height="27.5555556" rx="1"></rect>
                                    <polyline id="Line-2" stroke="#FFFFFF" stroke-width="2" stroke-linecap="round" stroke-linejoin="round" fill-rule="nonzero" points="10 14 13 17 19 11"></polyline>
                                </g>
                                <g id="Group-16-Copy-7" transform="translate(67.555556, 45.333333)">
                                    <path d="M5.33333333,32.4444444 L23.1111111,32.4444444" id="Line-3-Copy-3" stroke="#FAEED5" stroke-width="2" stroke-linecap="round" stroke-linejoin="round"></path>
                                    <path d="M8,36 L19.5555556,36" id="Line-3-Copy-2" stroke="#FAEED5" stroke-width="2" stroke-linecap="round" stroke-linejoin="round"></path>
                                    <rect id="Rectangle-2-Copy" fill="#FAEED5" x="0" y="0" width="27.5555556" height="27.5555556" rx="1"></rect>
                                    <polyline id="Line-2" stroke="#FFFFFF" stroke-width="2" stroke-linecap="round" stroke-linejoin="round" fill-rule="nonzero" points="10 14 13 17 19 11"></polyline>
                                </g>
                                <g id="Group-16-Copy-6" transform="translate(101.333333, 45.333333)">
                                    <path d="M5.33333333,32.4444444 L23.1111111,32.4444444" id="Line-3-Copy-3" stroke="#FAEED5" stroke-width="2" stroke-linecap="round" stroke-linejoin="round"></path>
                                    <path d="M8,36 L19.5555556,36" id="Line-3-Copy-2" stroke="#FAEED5" stroke-width="2" stroke-linecap="round" stroke-linejoin="round"></path>
                                    <rect id="Rectangle-2-Copy" fill="#FAEED5" x="0" y="0" width="27.5555556" height="27.5555556" rx="1"></rect>
                                    <polyline id="Line-2" stroke="#FFFFFF" stroke-width="2" stroke-linecap="round" stroke-linejoin="round" fill-rule="nonzero" points="10 14 13 17 19 11"></polyline>
                                </g>
                            </g>
                            <g id="Group-2" transform="translate(0.777778, 0.888889)">
                                <g id="Rectangle-Copy-2">
                                    <use fill="#FFFFFF" xlink:href="#path-1"></use>
                                    <rect stroke="#EBEFF6" stroke-width="1.4" stroke-linejoin="square" fill="#EBEFF6" x="0.922222222" y="0.811111111" width="44.6" height="128.6"></rect>
                                </g>
                                <path d="M0.722222222,14.1111111 L45.7222222,14.1111111" id="Line-3" stroke="#FFFFFF" stroke-linecap="square"></path>
                                <g id="Group-9" transform="translate(5.333333, 4.444444)">
                                    <rect id="Rectangle-5" fill="#FFFFFF" x="0" y="0" width="5.33333333" height="5.33333333" rx="1"></rect>
                                    <g id="Group-12" transform="translate(9.777778, 0.000000)" stroke="#FFFFFF" stroke-linecap="round" stroke-linejoin="round" stroke-width="1.6">
                                        <path d="M0,0.888888889 L10.6666667,0.888888889" id="Line"></path>
                                        <path d="M0,4.44444444 L16,4.44444444" id="Line-Copy-6"></path>
                                    </g>
                                </g>
                                <g id="Group-9-Copy" transform="translate(5.333333, 19.555556)">
                                    <rect id="Rectangle-5" fill="#FFFFFF" x="0" y="0" width="5.33333333" height="5.33333333" rx="1"></rect>
                                    <g id="Group-12" transform="translate(9.777778, 2.222222)" stroke="#FFFFFF" stroke-linecap="round" stroke-linejoin="round" stroke-width="2">
                                        <path d="M0,0.888888889 L10.6666667,0.888888889" id="Line"></path>
                                    </g>
                                </g>
                                <g id="Group-9-Copy-2" transform="translate(5.333333, 29.333333)">
                                    <rect id="Rectangle-5" fill="#FFFFFF" x="0" y="0" width="5.33333333" height="5.33333333" rx="1"></rect>
                                    <g id="Group-12" transform="translate(9.777778, 1.777778)" stroke="#FFFFFF" stroke-linecap="round" stroke-linejoin="round" stroke-width="2">
                                        <path d="M0,0.888888889 L17.7777778,0.888888889" id="Line"></path>
                                    </g>
                                </g>
                                <g id="Group-9-Copy-3" transform="translate(5.333333, 39.111111)">
                                    <rect id="Rectangle-5" fill="#FFFFFF" x="0" y="0" width="5.33333333" height="5.33333333" rx="1"></rect>
                                    <g id="Group-12" transform="translate(9.777778, 2.222222)" stroke="#FFFFFF" stroke-linecap="round" stroke-linejoin="round" stroke-width="2">
                                        <path d="M0,0.5 L14.2222222,0.5" id="Line"></path>
                                    </g>
                                </g>
                                <g id="Group-9-Copy-4" transform="translate(5.333333, 48.888889)">
                                    <rect id="Rectangle-5" fill="#FFFFFF" x="0" y="0" width="5.33333333" height="5.33333333" rx="1"></rect>
                                    <g id="Group-12" transform="translate(9.777778, 1.333333)" stroke="#FFFFFF" stroke-linecap="round" stroke-linejoin="round" stroke-width="2">
                                        <path d="M0,0.888888889 L8,0.888888889" id="Line"></path>
                                    </g>
                                </g>
                            </g>
                            <g id="Group-14-Copy" transform="translate(47.222222, 5.333333)">
                                <path d="M0.276801215,9.66666667 L145.276557,9.66666667" id="Line-3-Copy" stroke="#EBEFF6" stroke-linecap="square"></path>
                                <rect id="Rectangle-3-Copy-2" fill="#EBEFF6" x="118.888889" y="0" width="17.7777778" height="5.33333333" rx="2.66666667"></rect>
                                <rect id="Rectangle-3-Copy-3" fill="#EBEFF6" x="7.77777778" y="0" width="5.33333333" height="5.33333333" rx="1"></rect>
                                <rect id="Rectangle-3-Copy-4" fill="#EBEFF6" x="17.5555556" y="0" width="5.33333333" height="5.33333333" rx="1"></rect>
                            </g>
                            <g id="Rectangle-2-Copy">
                                <use fill="#FFFFFF" xlink:href="#path-2"></use>
                                <use fill="#EBEFF6" xlink:href="#path-2"></use>
                            </g>
                        </g>
                        <path d="M5,196.9 C2.73563253,196.9 0.9,198.735633 0.9,201 C0.9,203.264367 2.73563253,205.1 5,205.1 L235,205.1 C237.264367,205.1 239.1,203.264367 239.1,201 C239.1,198.735633 237.264367,196.9 235,196.9 L5,196.9 Z" id="Rectangle-24-Copy" stroke="#64676D" stroke-width="1.8" fill="#EBEFF6"></path>
                    </g>
                    <g id="Group-26" transform="translate(45.750000, 162.000000) scale(-1, 1) translate(-45.750000, -162.000000) translate(14.250000, 117.000000)">
                        <g id="Group-24" transform="translate(0.000000, 42.840909)">
                            <path d="M48.9914773,6.59090909 L52.3863636,6.59090909 C57.9092111,6.59090909 62.3863636,11.0680616 62.3863636,16.5909091 L62.3863636,25.1515152 C62.3863636,30.6743626 57.9092111,35.1515152 52.3863636,35.1515152 L48.9914773,35.1515152 C43.4686298,35.1515152 38.9914773,30.6743626 38.9914773,25.1515152 L38.9914773,16.5909091 C38.9914773,11.0680616 43.4686298,6.59090909 48.9914773,6.59090909 Z" id="Rectangle-9" fill="#EBEFF6"></path>
                            <path d="M37.7171266,12.9015152 L53.112013,12.9015152 C55.321152,12.9015152 57.112013,14.6923762 57.112013,16.9015152 L57.112013,25.2651515 C57.112013,27.4742905 55.321152,29.2651515 53.112013,29.2651515 L37.7171266,29.2651515 C35.5079876,29.2651515 33.7171266,27.4742905 33.7171266,25.2651515 L33.7171266,16.9015152 C33.7171266,14.6923762 35.5079876,12.9015152 37.7171266,12.9015152 Z" id="Rectangle-9-Copy" fill="#FFFFFF"></path>
                            <path d="M1,0 L48.0178571,0 C48.5701419,3.82276611e-15 49.0178571,0.44771525 49.0178571,1 L49.0178571,33.1363636 C49.0178571,40.3160654 43.1975589,46.1363636 36.0178571,46.1363636 L13,46.1363636 C5.82029825,46.1363636 -2.6734538e-15,40.3160654 -3.55271368e-15,33.1363636 L0,1 C-6.76353751e-17,0.44771525 0.44771525,1.01453063e-16 1,0 Z" id="Rectangle-8" fill="#EBEFF6"></path>
                            <g id="Group-27" transform="translate(27.851055, 0.280303)" stroke="#FFFFFF" stroke-width="2">
                                <path d="M5.34304629,0.549242424 L5.34304629,10.4356061" id="Line-6" fill="#FFFFFF" stroke-linecap="square"></path>
                                <path d="M2,8.40909091 C1.44771525,8.40909091 1,8.85680616 1,9.40909091 L1,17.4924242 C1,18.044709 1.44771525,18.4924242 2,18.4924242 L9.14042208,18.4924242 C9.69270683,18.4924242 10.1404221,18.044709 10.1404221,17.4924242 L10.1404221,9.40909091 C10.1404221,8.85680616 9.69270683,8.40909091 9.14042208,8.40909091 L2,8.40909091 Z" id="Rectangle-10" fill="#EBEFF6"></path>
                            </g>
                        </g>
                        <g id="Group-25" transform="translate(13.890828, 0.000000)" stroke="#EBEFF6" stroke-linecap="round" stroke-linejoin="round" stroke-width="1.4">
                            <path d="M13.0682898,0.485058131 C14.9250268,2.99588064 15.6677216,5.50670315 15.2963742,8.01752566 C14.7393531,11.7837594 11.3972265,13.0391707 10.2831843,16.8054045 C9.54048947,19.316227 10.4251672,22.0362847 12.9372176,24.9655776" id="Line-6-Copy"></path>
                            <path d="M23.0447983,13.0637163 C21.3751871,14.6288894 20.3532557,16.7130596 19.9790041,19.316227 C19.4176267,23.220978 22.2070885,25.6178288 23.3211307,28.7563569 C24.0638255,30.848709 23.6003673,32.9328793 21.9307561,35.0088677" id="Line-6-Copy-2" transform="translate(21.784656, 24.036292) scale(1, -1) translate(-21.784656, -24.036292) "></path>
                            <path d="M3.35729831,9.29748248 C1.6876871,10.8626556 0.665755689,12.9468259 0.291504081,15.5499932 C-0.269873332,19.4547442 2.5195885,21.851595 3.6336307,24.9901232 C4.37632551,27.0824753 3.91286731,29.1666455 2.2432561,31.2426339" id="Line-6-Copy-3"></path>
                        </g>
                    </g>
                    <path d="M0,205.5 L460,205.5" id="Line" stroke="#64676D" stroke-width="1.8" stroke-linecap="round"></path>
                </g>
            </g>
        </g>
    </g>
</svg>