<svg xmlns="http://www.w3.org/2000/svg" width="18" height="17" viewBox="0 0 18 17">
    <g fill="none" fill-rule="evenodd">
        <g>
            <g>
                <path d="M0 0H30V30H0z" transform="translate(-419 -2547) translate(414 2541)"/>
                <g fill="#FFF" fill-rule="nonzero">
                    <path d="M1.48 2.156h1.628L5.11 13.154c-.81.352-1.38 1.177-1.38 2.138 0 1.278 1.01 2.318 2.25 2.318s2.25-1.04 2.25-2.318c0-.272-.053-.53-.138-.773h4.777c-.084.242-.138.5-.138.772 0 1.279 1.009 2.319 2.25 2.319 1.24 0 2.25-1.04 2.25-2.318s-1.01-2.319-2.25-2.319H6.603l-.281-1.545H16.48c.345 0 .644-.242.728-.585l1.5-6.182c.056-.231.005-.476-.137-.662-.14-.189-.36-.299-.59-.299H4.915l-.448-2.46C4.403.875 4.092.61 3.731.61h-2.25c-.415 0-.75.346-.75.772 0 .427.335.774.749.774zm13.5 12.363c.414 0 .75.346.75.772 0 .428-.336.774-.75.774-.413 0-.75-.346-.75-.773 0-.426.337-.773.75-.773zm-8.25.772c0 .428-.336.774-.75.774-.413 0-.75-.346-.75-.773 0-.426.336-.773.75-.773.415 0 .75.346.75.772z" transform="translate(-419 -2547) translate(414 2541) translate(4.27 5.39)"/>
                </g>
            </g>
        </g>
    </g>
</svg>
