<?xml version="1.0" encoding="UTF-8"?>
<svg width="24px" height="24px" viewBox="0 0 24 24" version="1.1" xmlns="http://www.w3.org/2000/svg" xmlns:xlink="http://www.w3.org/1999/xlink">
    <!-- Generator: Sketch 62 (91390) - https://sketch.com -->
    <title>x-cart-glyph-black</title>
    <desc>Created with Sketch.</desc>
    <g id="Page-1" stroke="none" stroke-width="1" fill="none" fill-rule="evenodd">
        <g id="Left-Navigation_Bar+Header" transform="translate(-623.000000, -2800.000000)">
            <g id="x-cart-glyph-black" transform="translate(623.000000, 2800.000000)">
                <path d="M20.8034974,0 C22.5688476,0 24,1.47267246 24,3.2349961 L24,20.8088866 C24,22.5714344 22.5688476,24 20.8034974,24 L3.1963903,24 C1.43104013,24 1.77635684e-15,22.5714344 1.77635684e-15,20.8088866 L1.77635684e-15,3.2349961 C1.77635684e-15,1.47267246 1.43104013,0 3.1963903,0 L20.8034974,0 Z" id="Shape" fill="#AE71BF"></path>
                <path d="M7.77141878,17.9340659 C8.30510162,18.0572424 8.7032967,18.5341932 8.7032967,19.1050138 C8.7032967,19.7692634 8.16443248,20.3076924 7.49967156,20.3076924 C6.9307112,20.3076924 6.4550158,19.9124919 6.32967032,19.3821058 L6.32967032,19.3821058 L7.2830455,19.3821058 C7.5526981,19.3821058 7.77141878,19.1636273 7.77141878,18.8942476 L7.77141878,18.8942476 Z M18.8477355,17.9340659 C19.3817656,18.0572424 19.7802198,18.5341932 19.7802198,19.1050138 C19.7802198,19.7692634 19.2410049,20.3076924 18.5760321,20.3076924 C18.0084666,20.3076924 17.5342267,19.9152463 17.4065934,19.387835 L17.4065934,19.387835 L18.3589342,19.387835 C18.6288725,19.387835 18.8477355,19.1693565 18.8477355,18.8998666 L18.8477355,18.8998666 Z M7.30728474,5.27571112 C7.3314593,5.27573179 7.35648802,5.27574328 7.38461538,5.27574328 L7.38461538,5.27574328 L7.38461538,10.1159526 C7.38461538,10.3994133 7.36468092,10.5303979 7.55766032,10.7273273 C7.86815924,11.0446086 8.739378,11.9293769 9.05561232,12.2523139 C9.22767436,12.4282043 9.47890746,12.3956044 9.6971901,12.3956044 L9.6971901,12.3956044 L14.3069709,12.3956044 C14.525366,12.3956044 14.7762617,12.4282043 14.9486611,12.2523139 C15.2646705,11.9293769 16.1358893,11.0446086 16.4465007,10.7273273 C16.6394801,10.5303979 16.6153846,10.3994133 16.6153846,10.1159526 L16.6153846,10.1159526 L16.6153846,5.27574328 L16.780222,5.27560288 L16.780222,5.27560288 L18.4615385,5.27472528 L18.4615385,11.1896192 C18.4615385,11.3916387 18.363137,11.6057612 18.2220011,11.747944 C17.858759,12.1136376 17.1501557,12.82704 16.5753785,13.4056119 C17.1489187,13.9830527 17.8530236,14.6921568 18.2148037,15.0562668 C18.3557147,15.1982234 18.4615385,15.4123459 18.4615385,15.6145915 L18.4615385,15.6145915 L18.4615385,18.5290557 C18.4615385,18.8585532 18.3850664,18.989011 18.0588233,18.989011 L18.0588233,18.989011 L16.6153846,18.989011 L16.6153846,16.6858828 C16.6153846,16.402309 16.6403797,16.2714375 16.4474003,16.074395 C16.136789,15.7571137 15.2655702,14.8723454 14.9494483,14.5492953 C14.7773863,14.3736311 14.5262657,14.2417582 14.3077581,14.2417582 L14.3077581,14.2417582 L9.69651534,14.2417582 C9.47812024,14.2417582 9.2269996,14.3736311 9.0548251,14.5492953 C8.73870326,14.8723454 7.86748448,15.7571137 7.55676066,16.074395 C7.36400618,16.2714375 7.38461538,16.402309 7.38461538,16.6858828 L7.38461538,16.6858828 L7.38461538,18.5000988 C7.38461538,18.822244 7.23422866,18.989011 6.90787304,18.989011 L6.90787304,18.989011 L5.53846154,18.989011 L5.53846154,15.6145915 C5.53846154,15.4123459 5.6369755,15.1982234 5.77788644,15.0562668 C6.14090364,14.6907994 6.84849478,13.9783019 7.42282216,13.3998431 C6.84928198,12.8222892 6.14416494,12.1122803 5.78215988,11.747944 C5.64113648,11.6057612 5.54262252,11.3916387 5.54262252,11.1896192 L5.54262252,11.1896192 L5.54262252,5.27472528 Z M10.021978,8.7032967 L10.021978,10.021978 L8.7032967,10.021978 L8.7032967,8.7032967 L10.021978,8.7032967 Z M15.2967033,8.7032967 L15.2967033,10.021978 L13.978022,10.021978 L13.978022,8.7032967 L15.2967033,8.7032967 Z M12.6593407,8.7032967 L12.6593407,10.021978 L11.3406593,10.021978 L11.3406593,8.7032967 L12.6593407,8.7032967 Z M10.021978,6.06593406 L10.021978,7.38461538 L8.7032967,7.38461538 L8.7032967,6.06593406 L10.021978,6.06593406 Z M15.2967033,6.06593406 L15.2967033,7.38461538 L13.978022,7.38461538 L13.978022,6.06593406 L15.2967033,6.06593406 Z M12.6593407,6.06593406 L12.6593407,7.38461538 L11.3406593,7.38461538 L11.3406593,6.06593406 L12.6593407,6.06593406 Z" id="Combined-Shape" fill="#FFFFFF"></path>
            </g>
        </g>
    </g>
</svg>