<svg xmlns="http://www.w3.org/2000/svg" width="253" height="166" viewBox="0 0 253 166">
    <g fill="none" fill-rule="evenodd">
        <g fill-rule="nonzero">
            <g>
                <g>
                    <path fill="#FFF" stroke="#E7E7EB" stroke-width="2" d="M199 145.154H1V6c0-1.38.56-2.63 1.464-3.536C3.37 1.56 4.62 1 6 1h188c1.38 0 2.63.56 3.536 1.464C198.44 3.37 199 4.62 199 6v139.154z" transform="translate(-2375 -2631) translate(2375 2631)"/>
                    <g fill="#E7E7EB">
                        <path d="M0 0H176V49.231H0z" transform="translate(-2375 -2631) translate(2375 2631) translate(12.308 27.582)"/>
                    </g>
                    <path fill="#E7E7EB" d="M194 0c3.314 0 6 2.686 6 6v5.308c0 .552-.448 1-1 1H1c-.552 0-1-.448-1-1V6c0-3.314 2.686-6 6-6h188zM7.5 4.615c-.828 0-1.5.69-1.5 1.539 0 .85.672 1.538 1.5 1.538S9 7.004 9 6.154c0-.85-.672-1.539-1.5-1.539zm6 0c-.828 0-1.5.69-1.5 1.539 0 .85.672 1.538 1.5 1.538S15 7.004 15 6.154c0-.85-.672-1.539-1.5-1.539zm6 0c-.828 0-1.5.69-1.5 1.539 0 .85.672 1.538 1.5 1.538S21 7.004 21 6.154c0-.85-.672-1.539-1.5-1.539zM18.944 15.275c1.105 0 2 .895 2 2v5.23c0 1.105-.895 2-2 2h-4.636c-1.105 0-2-.895-2-2v-5.23c0-1.105.895-2 2-2h4.636zm167.15 2.84c.883 0 1.598.715 1.598 1.598 0 .882-.715 1.597-1.597 1.597H169.36c-.882 0-1.598-.715-1.598-1.597 0-.883.716-1.598 1.598-1.598h16.735zm-27.901 0c.882 0 1.597.715 1.597 1.598 0 .882-.715 1.597-1.597 1.597h-16.735c-.883 0-1.598-.715-1.598-1.597 0-.883.715-1.598 1.598-1.598h16.735zm-27.903 0c.883 0 1.598.715 1.598 1.598 0 .882-.715 1.597-1.598 1.597h-16.734c-.883 0-1.598-.715-1.598-1.597 0-.883.715-1.598 1.598-1.598h16.734zm-27.902 0c.883 0 1.598.715 1.598 1.598 0 .882-.715 1.597-1.598 1.597H85.654c-.883 0-1.598-.715-1.598-1.597 0-.883.715-1.598 1.598-1.598h16.734zm-58.461 0c.882 0 1.597.715 1.597 1.598 0 .882-.715 1.597-1.597 1.597H27.192c-.882 0-1.598-.715-1.598-1.597 0-.883.716-1.598 1.598-1.598h16.735z" transform="translate(-2375 -2631) translate(2375 2631)"/>
                    <g fill="#E7E7EB">
                        <path d="M0 0H36.252V36.252H0zM30.881 45.65c.742 0 1.343.601 1.343 1.343s-.601 1.343-1.343 1.343H5.371c-.742 0-1.343-.601-1.343-1.343s.601-1.343 1.343-1.343h25.51zm4.028-5.37c.742 0 1.343.6 1.343 1.342 0 .742-.601 1.343-1.343 1.343H1.343C.6 42.965 0 42.364 0 41.622c0-.741.601-1.342 1.343-1.342h33.566z" transform="translate(-2375 -2631) translate(2375 2631) translate(104.615 87.692)"/>
                    </g>
                    <g fill="#E7E7EB">
                        <path d="M30.881 45.65c.742 0 1.343.601 1.343 1.343s-.601 1.343-1.343 1.343H5.371c-.742 0-1.343-.601-1.343-1.343s.601-1.343 1.343-1.343h25.51zm4.028-5.37c.742 0 1.343.6 1.343 1.342 0 .742-.601 1.343-1.343 1.343H1.343C.6 42.965 0 42.364 0 41.622c0-.741.601-1.342 1.343-1.342h33.566zM0 0H36.252V36.252H0z" transform="translate(-2375 -2631) translate(2375 2631) translate(58.462 87.692)"/>
                    </g>
                    <g fill="#E7E7EB">
                        <path d="M0 0H36.252V36.252H0z" transform="translate(-2375 -2631) translate(2375 2631) translate(152.308 87.692)"/>
                    </g>
                    <g fill="#E7E7EB">
                        <path d="M0 0H36.252V36.252H0zM30.881 45.65c.742 0 1.343.601 1.343 1.343s-.601 1.343-1.343 1.343H5.371c-.742 0-1.343-.601-1.343-1.343s.601-1.343 1.343-1.343h25.51zm4.028-5.37c.742 0 1.343.6 1.343 1.342 0 .742-.601 1.343-1.343 1.343H1.343C.6 42.965 0 42.364 0 41.622c0-.741.601-1.342 1.343-1.342h33.566z" transform="translate(-2375 -2631) translate(2375 2631) translate(12.308 87.692)"/>
                    </g>
                </g>
                <g>
                    <g>
                        <path fill="#FFC845" stroke="#FFF" stroke-width="6" d="M97.197 77.073c-1.725 1.712-4.108 2.773-6.74 2.773H9.544c-1.872 0-3.701-.548-5.262-1.574C2.08 76.824.68 74.626.192 72.245-.296 69.86.132 67.29 1.594 65.1L42.05 4.49c.723-1.083 1.663-2.008 2.762-2.716l.742-.433c2.163-1.135 4.608-1.366 6.85-.786 2.196.567 4.195 1.91 5.546 3.936L98.407 65.1c1.04 1.557 1.593 3.384 1.593 5.252 0 2.624-1.07 5-2.803 6.721z" transform="translate(-2375 -2631) translate(2375 2631) translate(150 83)"/>
                        <path fill="#FFF" d="M49.825 26.145c1.639 0 2.999 1.304 3.255 3.013l.043.583v23.882c0 1.987-1.477 3.597-3.298 3.597-1.64 0-3-1.305-3.256-3.013l-.043-.584V29.741c0-1.986 1.477-3.596 3.299-3.596zM49.825 67.033c-1.822 0-3.299-1.465-3.299-3.271 0-1.807 1.477-3.271 3.299-3.271 1.821 0 3.298 1.464 3.298 3.27 0 1.807-1.477 3.272-3.298 3.272z" transform="translate(-2375 -2631) translate(2375 2631) translate(150 83)"/>
                    </g>
                </g>
            </g>
        </g>
    </g>
</svg>
