<svg xmlns="http://www.w3.org/2000/svg" width="22" height="22" viewBox="0 0 22 22">
    <g fill="none" fill-rule="evenodd">
        <g>
            <g>
                <g>
                    <g>
                        <g>
                            <path d="M0 0H30V30H0z" transform="translate(-657.000000, -4665.000000) translate(224.000000, 4439.000000) translate(70.000000, 0.000000) translate(0.000000, 4.000000) translate(359.000000, 218.000000)"/>
                            <path fill="#FFF" fill-rule="nonzero" stroke="#FFF" d="M12.627 5c4.213 0 7.628 3.375 7.628 7.537 0 1.81-.645 3.47-1.719 4.768l6.194 6.139c.36.357.36.933 0 1.29-.329.323-.841.352-1.203.087l-.103-.089-6.22-6.162c-1.274.946-2.86 1.507-4.577 1.507C8.415 20.077 5 16.702 5 12.54 5 8.375 8.415 5 12.627 5zm0 1.702c-3.262 0-5.905 2.613-5.905 5.837 0 3.222 2.644 5.836 5.905 5.836 3.262 0 5.905-2.613 5.905-5.838 0-3.222-2.643-5.835-5.905-5.835z" transform="translate(-657.000000, -4665.000000) translate(224.000000, 4439.000000) translate(70.000000, 0.000000) translate(0.000000, 4.000000) translate(359.000000, 218.000000)"/>
                        </g>
                    </g>
                </g>
            </g>
        </g>
    </g>
</svg>
