<svg xmlns="http://www.w3.org/2000/svg" width="16" height="19" viewBox="0 0 16 19">
    <g fill="none" fill-rule="evenodd">
        <g>
            <g>
                <path d="M0 0L30 0 30 30 0 30z" transform="translate(-999.000000, -4540.000000) translate(991.000000, 4534.000000) translate(15.000000, 15.000000) rotate(90.000000) translate(-15.000000, -15.000000)"/>
                <path fill="#ECAF0F" fill-rule="nonzero" d="M15.342 7C15.12 7.624 15 8.297 15 9c0 .223.012.444.036.66l.044.324h-4.063l.015 10.845.008.04c.016.034.053.056.095.064l.043.005 3.8-1.626h.073l3.835 1.626.043.01c.043-.003.08-.036.095-.076l.008-.043-.008-6.162c.619.216 1.284.333 1.976.333.341 0 .675-.028 1-.083v9.79c0 .113-.098.225-.208.208l-.048-.015-6.712-2.877h-.128L8.256 24.9c-.107 0-.213-.045-.246-.134L8 24.708V8.982c0-1.038.815-1.9 1.835-1.977L9.982 7h5.36zM21 6c1.657 0 3 1.343 3 3s-1.343 3-3 3-3-1.343-3-3 1.343-3 3-3z" transform="translate(-999.000000, -4540.000000) translate(991.000000, 4534.000000)"/>
            </g>
        </g>
    </g>
</svg>
