<svg xmlns="http://www.w3.org/2000/svg" width="16" height="16" viewBox="0 0 16 16">
  <path fill="#2274a6" fill-rule="evenodd" d="M3.485 1.545c.07.03.082.046.1.062.32.311.648.611.987.9 0 0-.119.111.223-.087a6.579 6.579 0 0 1 1.718-.68l.025-.007c.037-.457.058-.916.064-1.375 0 0 .045-.248.312-.284a8.08 8.08 0 0 1 2.209.005s.256.037.276.279c.006.446.026.89.06 1.334 0 0-.161-.006.22.096.599.164 1.17.412 1.696.733l.022.014c.35-.298.69-.607 1.018-.928 0 0 .191-.172.622.177.49.397.932.852 1.314 1.35.085.11.171.298.042.45-.312.32-.611.649-.9.987 0 0-.11-.119.087.223.307.538.536 1.116.68 1.718l.007.025c.457.037.916.058 1.375.064 0 0 .242-.018.294.385.086.685.086 1.38-.005 2.064-.018.139-.089.331-.289.348l-.198.003a20.7 20.7 0 0 0-1.136.058s.006-.162-.096.22a6.578 6.578 0 0 1-.733 1.696l-.013.022c.297.35.606.688.927 1.017 0 0 .173.191-.177.623a7.986 7.986 0 0 1-1.408 1.357c-.288.217-.596-.204-.933-.51a29.098 29.098 0 0 0-.478-.42 6.558 6.558 0 0 1-1.91.795l-.024.007c-.037.458-.058.916-.064 1.376 0 0-.045.247-.312.284a8.08 8.08 0 0 1-2.209-.005s-.256-.038-.276-.28l-.003-.198c-.01-.379-.028-.758-.058-1.135 0 0 .162.005-.22-.096a6.56 6.56 0 0 1-1.696-.734l-.021-.013c-.35.297-.69.607-1.018.927 0 0-.208.143-.422-.02a8.08 8.08 0 0 1-1.558-1.565s-.154-.207.002-.393c.312-.32.611-.647.9-.986 0 0 .11.12-.087-.223a6.584 6.584 0 0 1-.681-1.718l-.006-.025A20.448 20.448 0 0 0 .36 9.398s-.257-.013-.315-.565a7.97 7.97 0 0 1 .035-1.956c.05-.354.565-.276 1.021-.298.264-.013.634-.042.634-.042l.025-.101c.162-.64.419-1.25.763-1.811l.013-.022c-.297-.35-.606-.69-.927-1.018 0 0-.143-.207.02-.422a8.084 8.084 0 0 1 1.536-1.536s.11-.143.321-.082zM7.968.889a7.435 7.435 0 0 0-.741.042l-.031.003-.006.205c-.014.384.012.777-.077 1.153-.055.235-.45.246-.744.335-.527.16-1.029.4-1.49.705 0 0-.156.1-.32-.017a20.28 20.28 0 0 1-.98-.873l-.007-.007a7.253 7.253 0 0 0-1.097 1.088l-.04.05c.313.327.665.635.901 1.018.127.205-.143.49-.289.763a5.688 5.688 0 0 0-.555 1.552s-.04.182-.238.214c-.437.04-.873.065-1.31.076h-.01a7.247 7.247 0 0 0-.007 1.546l.007.063c.453.01.92-.021 1.357.082.23.055.244.437.326.711a5.68 5.68 0 0 0 .715 1.523s.1.157-.018.32c-.28.336-.57.663-.872.98l-.007.008c.322.403.687.771 1.088 1.097l.05.04c.327-.313.634-.665 1.017-.902.206-.126.492.144.764.29a5.68 5.68 0 0 0 1.551.554s.182.04.214.24c.04.434.065.871.076 1.309v.01c.513.057 1.032.06 1.546.007l.063-.007c.01-.453-.021-.92.083-1.358.055-.234.449-.246.744-.335.527-.16 1.03-.4 1.49-.705 0 0 .156-.1.32.018.337.28.663.571.98.872l.007.007a7.255 7.255 0 0 0 1.098-1.088l.04-.05c-.313-.327-.666-.634-.902-1.018-.127-.205.143-.49.289-.763a5.69 5.69 0 0 0 .555-1.552s.04-.181.238-.214c.435-.04.872-.065 1.31-.076h.01c.057-.513.06-1.031.007-1.545l-.007-.064c-.453-.01-.92.022-1.357-.082-.242-.057-.252-.473-.346-.777a5.623 5.623 0 0 0-.694-1.457s-.1-.157.017-.32c.28-.336.57-.662.873-.98l.006-.007a7.26 7.26 0 0 0-1.087-1.098l-.05-.04c-.328.313-.635.666-1.018.902-.2.123-.48-.135-.733-.273a5.65 5.65 0 0 0-1.582-.57s-.182-.041-.214-.24a20.249 20.249 0 0 1-.076-1.31S8.39.888 7.968.89zm.038 3.555c1.637.016 3.179 1.269 3.491 2.893.306 1.589-.622 3.33-2.122 3.962-1.667.704-3.82-.094-4.617-1.74-1.018-2.105.552-5.056 3.156-5.114h.092zm-.022.89c-1.51.014-2.844 1.498-2.628 3.04.177 1.261 1.377 2.3 2.663 2.293 1.56-.01 2.925-1.619 2.6-3.204-.245-1.19-1.377-2.134-2.635-2.13z"/>
</svg>
