<svg xmlns="http://www.w3.org/2000/svg" width="200" height="147" viewBox="0 0 200 147">
    <defs>
        <linearGradient id="fisu15z2la" x1="0%" x2="170.278%" y1="56.564%" y2="40.516%">
            <stop offset="0%" stop-color="#D6C8ED"/>
            <stop offset="32.294%" stop-color="#AEDAF9"/>
            <stop offset="100%" stop-color="#91CD78"/>
        </linearGradient>
        <linearGradient id="h1d5xl3jdb" x1=".863%" x2="517.822%" y1="76.779%" y2="-78.888%">
            <stop offset="0%" stop-color="#D6C8ED"/>
            <stop offset="32.294%" stop-color="#AEDAF9"/>
            <stop offset="100%" stop-color="#91CD78"/>
        </linearGradient>
        <linearGradient id="cwoxii6wec" x1="0%" x2="170.278%" y1="50.061%" y2="49.912%">
            <stop offset="0%" stop-color="#D6C8ED"/>
            <stop offset="32.294%" stop-color="#AEDAF9"/>
            <stop offset="100%" stop-color="#91CD78"/>
        </linearGradient>
        <linearGradient id="lmnr4vhprd" x1="0%" x2="170.278%" y1="51.133%" y2="48.363%">
            <stop offset="0%" stop-color="#D6C8ED"/>
            <stop offset="32.294%" stop-color="#AEDAF9"/>
            <stop offset="100%" stop-color="#91CD78"/>
        </linearGradient>
    </defs>
    <g fill="none" fill-rule="evenodd">
        <g fill-rule="nonzero">
            <g transform="translate(-1641 -1654) translate(1641 1654)">
                <path fill="#FFF" stroke="#E7E7EB" stroke-width="2" d="M199 145.154H1V6c0-1.38.56-2.63 1.464-3.536C3.37 1.56 4.62 1 6 1h188c1.38 0 2.63.56 3.536 1.464C198.44 3.37 199 4.62 199 6v139.154z"/>
                <g>
                    <path fill="#E7E7EB" d="M0 0H176V49.231H0z" transform="translate(12.308 27.582)"/>
                    <path fill="url(#fisu15z2la)" d="M0 0L19.491 0 99.435 49.231 0 49.231z" transform="translate(12.308 27.582)"/>
                </g>
                <path fill="#E7E7EB" d="M194 0c3.314 0 6 2.686 6 6v5.308c0 .552-.448 1-1 1H1c-.552 0-1-.448-1-1V6c0-3.314 2.686-6 6-6h188zM7.5 4.615c-.828 0-1.5.69-1.5 1.539 0 .85.672 1.538 1.5 1.538S9 7.004 9 6.154c0-.85-.672-1.539-1.5-1.539zm6 0c-.828 0-1.5.69-1.5 1.539 0 .85.672 1.538 1.5 1.538S15 7.004 15 6.154c0-.85-.672-1.539-1.5-1.539zm6 0c-.828 0-1.5.69-1.5 1.539 0 .85.672 1.538 1.5 1.538S21 7.004 21 6.154c0-.85-.672-1.539-1.5-1.539z"/>
                <rect width="19.93" height="3.195" x="168.147" y="18.423" fill="#E7E7EB" rx="1.598"/>
                <rect width="19.93" height="3.195" x="140.245" y="18.423" fill="#E7E7EB" rx="1.598"/>
                <rect width="19.93" height="3.195" x="112.343" y="18.423" fill="#E7E7EB" rx="1.598"/>
                <rect width="19.93" height="3.195" x="84.441" y="18.423" fill="#E7E7EB" rx="1.598"/>
                <rect width="8.636" height="9.231" x="12.692" y="15.582" fill="#E7E7EB" rx="2"/>
                <path fill="url(#h1d5xl3jdb)" d="M12.692 17.428c.058-.58.288-1.021.691-1.327l7.946 5.032v1.68c0 1.105-.896 2-2 2h-4.637c-1.104 0-2-.895-2-2v-5.385z"/>
                <rect width="19.93" height="3.195" x="25.979" y="18.423" fill="#E7E7EB" rx="1.598"/>
                <path fill="#E7E7EB" d="M105 88H141.252V124.25200000000001H105z"/>
                <g>
                    <path fill="url(#cwoxii6wec)" d="M123.573 45.958c.742 0 1.343.601 1.343 1.343 0 .741-.601 1.342-1.343 1.342h-25.51c-.742 0-1.343-.6-1.343-1.342 0-.742.601-1.343 1.343-1.343h25.51zm-46.153 0c.741 0 1.342.601 1.342 1.343 0 .741-.6 1.342-1.342 1.342H51.91c-.742 0-1.344-.6-1.344-1.342 0-.742.602-1.343 1.343-1.343h25.51zm-46.154 0c.741 0 1.342.601 1.342 1.343 0 .741-.6 1.342-1.342 1.342H5.756c-.742 0-1.343-.6-1.343-1.342 0-.742.6-1.343 1.342-1.343h25.51zm139.615-.308c.742 0 1.343.601 1.343 1.343s-.601 1.343-1.343 1.343h-25.51c-.742 0-1.343-.601-1.343-1.343s.601-1.343 1.343-1.343h25.51zm-43.28-5.063c.742 0 1.343.602 1.343 1.343 0 .742-.601 1.343-1.343 1.343H94.035c-.742 0-1.343-.601-1.343-1.343 0-.741.601-1.343 1.343-1.343h33.566zm-46.153 0c.741 0 1.342.602 1.342 1.343 0 .742-.6 1.343-1.342 1.343H47.88c-.741 0-1.343-.601-1.343-1.343 0-.741.602-1.343 1.343-1.343h33.567zm-46.154 0c.741 0 1.342.602 1.342 1.343 0 .742-.6 1.343-1.342 1.343H1.727c-.741 0-1.342-.601-1.342-1.343 0-.741.6-1.343 1.342-1.343h33.567zm139.615-.307c.742 0 1.343.6 1.343 1.342 0 .742-.601 1.343-1.343 1.343h-33.566c-.742 0-1.343-.601-1.343-1.343 0-.741.601-1.342 1.343-1.342h33.566z" transform="translate(12.308 87.692)"/>
                    <path fill="#E7E7EB" d="M140 0H176.252V36.252H140z" transform="translate(12.308 87.692)"/>
                </g>
                <path fill="url(#lmnr4vhprd)" d="M129.782 88l11.47 6.861v29.39H105V88h24.782zm-35.069 0v35.944H58.462V88h36.251zM48.56 88v35.944H12.308V88h36.251zm103.749 13.853l36.251 22.091h-36.251v-22.091z"/>
            </g>
        </g>
    </g>
</svg>
