<svg xmlns="http://www.w3.org/2000/svg" width="237" height="172" viewBox="0 0 237 172">
    <defs>
        <linearGradient id="lwah3s5yba" x1="0%" x2="101.949%" y1="52.095%" y2="48.973%">
            <stop offset="0%" stop-color="#E7DEF5"/>
            <stop offset="44.616%" stop-color="#D5E7FA"/>
            <stop offset="100%" stop-color="#C9E6E0"/>
        </linearGradient>
        <linearGradient id="v4sv1n3myb" x1="0%" x2="100%" y1="50.074%" y2="50%">
            <stop offset="0%" stop-color="#E7DEF5"/>
            <stop offset="45.364%" stop-color="#D4E6FA"/>
            <stop offset="100%" stop-color="#C8E6DE"/>
        </linearGradient>
        <linearGradient id="k8mo0kk3mc" x1="0%" x2="75.958%" y1="52.044%" y2="48.674%">
            <stop offset="0%" stop-color="#E6DEF5"/>
            <stop offset="52.929%" stop-color="#D5E6FA"/>
            <stop offset="100%" stop-color="#CCE7EE"/>
        </linearGradient>
    </defs>
    <g fill="none" fill-rule="evenodd">
        <g fill-rule="nonzero">
            <g>
                <g>
                    <path fill="#FFF" stroke="#F1F1F3" stroke-width="2" d="M199 145.154H1V6c0-1.38.56-2.63 1.464-3.536C3.37 1.56 4.62 1 6 1h188c1.38 0 2.63.56 3.536 1.464C198.44 3.37 199 4.62 199 6v139.154z" transform="translate(-895 -2628) translate(895 2628)"/>
                    <g fill="url(#lwah3s5yba)" transform="translate(-895 -2628) translate(895 2628) translate(12.308 27.582)">
                        <path d="M0 0H176V49.231H0z"/>
                    </g>
                    <path fill="#F1F1F3" d="M194 0c3.314 0 6 2.686 6 6v5.308c0 .552-.448 1-1 1H1c-.552 0-1-.448-1-1V6c0-3.314 2.686-6 6-6h188zM7.5 4.615c-.828 0-1.5.69-1.5 1.539 0 .85.672 1.538 1.5 1.538S9 7.004 9 6.154c0-.85-.672-1.539-1.5-1.539zm6 0c-.828 0-1.5.69-1.5 1.539 0 .85.672 1.538 1.5 1.538S15 7.004 15 6.154c0-.85-.672-1.539-1.5-1.539zm6 0c-.828 0-1.5.69-1.5 1.539 0 .85.672 1.538 1.5 1.538S21 7.004 21 6.154c0-.85-.672-1.539-1.5-1.539z" transform="translate(-895 -2628) translate(895 2628)"/>
                    <path fill="url(#v4sv1n3myb)" d="M18.944 15.275c1.105 0 2 .895 2 2v5.23c0 1.105-.895 2-2 2h-4.636c-1.105 0-2-.895-2-2v-5.23c0-1.105.895-2 2-2h4.636zm167.15 2.84c.883 0 1.598.715 1.598 1.598 0 .882-.715 1.597-1.597 1.597H169.36c-.882 0-1.598-.715-1.598-1.597 0-.883.716-1.598 1.598-1.598h16.735zm-27.901 0c.882 0 1.597.715 1.597 1.598 0 .882-.715 1.597-1.597 1.597h-16.735c-.883 0-1.598-.715-1.598-1.597 0-.883.715-1.598 1.598-1.598h16.735zm-27.903 0c.883 0 1.598.715 1.598 1.598 0 .882-.715 1.597-1.598 1.597h-16.734c-.883 0-1.598-.715-1.598-1.597 0-.883.715-1.598 1.598-1.598h16.734zm-27.902 0c.883 0 1.598.715 1.598 1.598 0 .882-.715 1.597-1.598 1.597H85.654c-.883 0-1.598-.715-1.598-1.597 0-.883.715-1.598 1.598-1.598h16.734zm-58.461 0c.882 0 1.597.715 1.597 1.598 0 .882-.715 1.597-1.597 1.597H27.192c-.882 0-1.598-.715-1.598-1.597 0-.883.716-1.598 1.598-1.598h16.735z" transform="translate(-895 -2628) translate(895 2628)"/>
                    <g fill="url(#k8mo0kk3mc)" transform="translate(-895 -2628) translate(895 2628) translate(11.615 87.692)">
                        <path d="M123.881 45.65c.742 0 1.343.601 1.343 1.343s-.601 1.343-1.343 1.343h-25.51c-.742 0-1.343-.601-1.343-1.343s.601-1.343 1.343-1.343h25.51zm-46.154 0c.742 0 1.343.601 1.343 1.343s-.601 1.343-1.343 1.343h-25.51c-.742 0-1.343-.601-1.343-1.343s.601-1.343 1.343-1.343h25.51zm-46.154 0c.742 0 1.343.601 1.343 1.343s-.601 1.343-1.343 1.343H6.063c-.742 0-1.343-.601-1.343-1.343s.601-1.343 1.343-1.343h25.51zm96.336-5.37c.742 0 1.343.6 1.343 1.342 0 .742-.601 1.343-1.343 1.343H94.343c-.742 0-1.343-.601-1.343-1.343 0-.741.601-1.342 1.343-1.342h33.566zm-46.154 0c.742 0 1.343.6 1.343 1.342 0 .742-.601 1.343-1.343 1.343H48.19c-.742 0-1.343-.601-1.343-1.343 0-.741.601-1.342 1.343-1.342h33.566zm-46.154 0c.742 0 1.343.6 1.343 1.342 0 .742-.601 1.343-1.343 1.343H2.035c-.742 0-1.343-.601-1.343-1.343 0-.741.601-1.342 1.343-1.342h33.566zM129.251 0v36.252H93V0h36.252zM83.099 0v36.252H46.846V0h36.252zM36.944 0v36.252H.692V0h36.252z"/>
                    </g>
                    <g fill="#FFC845">
                        <path d="M30.881 5.65c.742 0 1.343.601 1.343 1.343s-.601 1.343-1.343 1.343H5.371c-.742 0-1.343-.601-1.343-1.343S4.629 5.65 5.371 5.65h25.51zM34.91.28c.742 0 1.343.6 1.343 1.342 0 .742-.601 1.343-1.343 1.343H1.343C.6 2.965 0 2.364 0 1.622 0 .881.601.28 1.343.28h33.566z" transform="translate(-895 -2628) translate(895 2628) translate(152.308 127.692)"/>
                    </g>
                </g>
                <g stroke="#FFF" transform="translate(-895 -2628) translate(895 2628) translate(146 81)">
                    <circle cx="44" cy="44" r="44" fill="#5AB237" stroke-width="6"/>
                    <path fill="#FFF" stroke-width="4" d="M65.547 29.42L37.812 57.154l-13.36-13.36c-.56-.559-1.47-.559-2.03 0-.563.564-.563 1.473 0 2.035l14.375 14.375c.28.279.647.421 1.015.421.368 0 .735-.142 1.018-.42l28.75-28.75c.56-.564.56-1.472 0-2.035-.562-.56-1.473-.56-2.033 0z"/>
                </g>
            </g>
        </g>
    </g>
</svg>
