<?xml version="1.0" encoding="UTF-8"?>
<svg width="18px" height="18px" viewBox="0 0 18 18" version="1.1" xmlns="http://www.w3.org/2000/svg" xmlns:xlink="http://www.w3.org/1999/xlink">
    <!-- Generator: Sketch 63.1 (92452) - https://sketch.com -->
    <title>SL_logo</title>
    <desc>Created with Sketch.</desc>
    <defs>
        <linearGradient x1="46.2668169%" y1="-51.2718701%" x2="50.3231456%" y2="92.7196982%" id="linearGradient-1">
            <stop stop-color="#6BBE48" offset="0%"></stop>
            <stop stop-color="#6CBE45" offset="100%"></stop>
        </linearGradient>
    </defs>
    <g id="Sl_style_Payments-workflow" stroke="none" stroke-width="1" fill="none" fill-rule="evenodd">
        <g id="XCSL_header_idea" transform="translate(-1137.000000, -1538.000000)" fill-rule="nonzero">
            <g id="SL_logo" transform="translate(1137.000000, 1538.000000)">
                <path d="M12.42,0.202105263 C12.6442105,0.202105263 12.8273684,0.274736842 12.8273684,0.498947368 L12.8273684,0.498947368 L12.8273684,0.590526316 C12.8273684,0.814736842 12.4642105,1.03578947 12.2494737,1.03578947 L12.2494737,1.03578947 L11.8736842,1.03578947 L11.8736842,4.77789474 L17.3621053,14.2863158 C18.2463158,15.8178947 17.1410526,17.7284211 15.3757895,17.7284211 L15.3757895,17.7284211 L2.31157895,17.7284211 C0.546315789,17.7284211 -0.558947368,15.8178947 0.325263158,14.2863158 L0.325263158,14.2863158 L5.81368421,4.77789474 L5.81368421,1.03578947 L5.43789474,1.03578947 C5.22315789,1.03578947 4.86,0.814736842 4.86,0.590526316 L4.86,0.590526316 L4.86,0.498947368 C4.86,0.271578947 5.04315789,0.202105263 5.26736842,0.202105263 L5.26736842,0.202105263 Z M11.1315789,1.07368421 L6.55263158,1.07368421 L6.55263158,4.98631579 L1.07052632,14.4789474 C0.385263158,15.6663158 1.24105263,17.1505263 2.61157895,17.1505263 L15.0694737,17.1505263 C16.44,17.1505263 17.2989474,15.6663158 16.6136842,14.4789474 L11.1315789,4.98631579 L11.1315789,1.07368421 Z" id="Combined-Shape" fill="#FFFFFF"></path>
                <path d="M5.56421053,8.15684211 C5.95263158,7.78421053 6.9,7.34842105 8.04,8.51052632 C8.10315789,8.54526316 8.16315789,8.58 8.22315789,8.61157895 C10.1810526,9.66315789 10.7810526,8.72842105 11.0873684,8.51052632 C11.0936842,8.50421053 11.0968421,8.50105263 11.1031579,8.49789474 C11.28,8.36210526 11.8515789,7.76842105 12.1831579,8.22947368 L12.1831579,8.22947368 L12.3126316,8.45052632 L15.8305263,14.5452632 C16.3326316,15.4136842 15.7042105,16.5031579 14.6968421,16.5000068 L14.6968421,16.5000068 L2.98105263,16.5000068 C1.97684211,16.5000068 1.34842105,15.4136842 1.85052632,14.5421053 L1.85052632,14.5421053 L5.20736842,8.72842105 C5.20736842,8.72842105 5.48210526,8.23578947 5.56421053,8.15684211 Z M8.05263158,5.83894737 C8.48864586,5.83894737 8.84210526,6.19240678 8.84210526,6.62842105 C8.84210526,7.06443533 8.48864586,7.41789474 8.05263158,7.41789474 C7.6166173,7.41789474 7.26315789,7.06443533 7.26315789,6.62842105 C7.26315789,6.19240678 7.6166173,5.83894737 8.05263158,5.83894737 Z M9.99789474,4.91368421 C10.2542711,4.91368421 10.4621053,5.12151834 10.4621053,5.37789474 C10.4621053,5.63427113 10.2542711,5.84210526 9.99789474,5.84210526 C9.74151834,5.84210526 9.53368421,5.63427113 9.53368421,5.37789474 C9.53368421,5.12151834 9.74151834,4.91368421 9.99789474,4.91368421 Z M8.84210526,2.88631579 C9.13685091,2.88631579 9.37578947,3.12525435 9.37578947,3.42 C9.37578947,3.71474565 9.13685091,3.95368421 8.84210526,3.95368421 C8.54735961,3.95368421 8.30842105,3.71474565 8.30842105,3.42 C8.30842105,3.12525435 8.54735961,2.88631579 8.84210526,2.88631579 Z" id="Combined-Shape" fill="url(#linearGradient-1)"></path>
            </g>
        </g>
    </g>
</svg>