<svg xmlns="http://www.w3.org/2000/svg" width="22" height="22" viewBox="0 0 22 22">
    <g fill="none" fill-rule="evenodd">
        <g>
            <g>
                <path d="M0 0H30V30H0z" transform="translate(-418.000000, -2665.000000) translate(394.000000, 2646.000000) translate(20.000000, 15.000000)"/>
                <path fill="#FFF" d="M15 4c6.075 0 11 4.925 11 11s-4.925 11-11 11S4 21.075 4 15 8.925 4 15 4zm.046 4.044l-.12.007c-.557.06-.99.532-.99 1.104l-.002.505-.109.03c-1.412.425-2.457 1.568-2.457 2.985 0 1.549 1.277 2.818 2.95 3.104l1.077.246c.853.147 1.365.653 1.365 1.125 0 .573-.723 1.15-1.714 1.15-.931 0-1.627-.512-1.705-1.049l-.008-.1c0-.614-.498-1.112-1.111-1.112-.623 0-1.111.506-1.111 1.111l.006.189c.09 1.433 1.195 2.578 2.665 3.002l.152.04.001.494c0 .61.494 1.112 1.111 1.112l.123-.007c.562-.061.988-.54.988-1.105v-.493l.154-.04c1.534-.443 2.672-1.671 2.672-3.192 0-1.645-1.365-3-3.156-3.304l-1.074-.246c-.736-.128-1.163-.55-1.163-.925 0-.459.608-.943 1.456-.943.849 0 1.457.484 1.457.943 0 .622.506 1.111 1.112 1.111.614 0 1.111-.497 1.111-1.111l-.006-.183c-.086-1.332-1.101-2.396-2.452-2.802l-.11-.03v-.505c0-.609-.494-1.11-1.112-1.11z" transform="translate(-418.000000, -2665.000000) translate(394.000000, 2646.000000) translate(20.000000, 15.000000)"/>
            </g>
        </g>
    </g>
</svg>
