<svg xmlns="http://www.w3.org/2000/svg" width="18" height="19" viewBox="0 0 18 19">
    <g fill="none" fill-rule="evenodd">
        <g>
            <g>
                <path d="M0 0H28V26H0z" transform="translate(-420 -2607) translate(415 2603)"/>
                <path fill="#FFF" fill-rule="nonzero" d="M22.085 12.222c.506 0 .915.393.915.878 0 4.774-4.029 8.643-9 8.643-2.353 0-4.562-.873-6.22-2.396v1.975c0 .45-.352.821-.807.872l-.107.006c-.469 0-.855-.34-.908-.776l-.006-.102v-4.99h5.195c.505 0 .914.394.914.88 0 .45-.353.821-.808.872l-.107.006H9.058c1.319 1.206 3.072 1.896 4.942 1.896 3.961 0 7.17-3.082 7.17-6.886 0-.485.41-.878.915-.878zM21.134 4c.469 0 .855.34.908.776l.006.102v4.99h-5.195c-.505 0-.914-.394-.914-.88 0-.45.353-.821.808-.872l.107-.006h2.087C17.623 6.903 15.87 6.213 14 6.213c-3.961 0-7.17 3.082-7.17 6.886 0 .485-.41.878-.915.878-.506 0-.915-.393-.915-.878 0-4.774 4.029-8.643 9-8.643 2.354 0 4.563.873 6.22 2.396V4.878c0-.45.352-.821.807-.872L21.134 4z" transform="translate(-420 -2607) translate(415 2603)"/>
            </g>
        </g>
    </g>
</svg>
