<?xml version="1.0" encoding="UTF-8"?>
<svg width="26px" height="22px" viewBox="0 0 26 22" version="1.1" xmlns="http://www.w3.org/2000/svg" xmlns:xlink="http://www.w3.org/1999/xlink">
    <!-- Generator: Sketch 52.3 (67297) - http://www.bohemiancoding.com/sketch -->
    <title>warrning</title>
    <desc>Created with Sketch.</desc>
    <g id="Upgrade_tool3" stroke="none" stroke-width="1" fill="none" fill-rule="evenodd">
        <g id="5_2NEW_Upgradenote" transform="translate(-301.000000, -135.000000)" fill="#F7D457" fill-rule="nonzero">
            <g id="Group-8" transform="translate(301.000000, 39.000000)">
                <path d="M11.307797,97.0544896 C12.177863,95.6468266 13.5905923,95.6501813 14.4585848,97.0544896 L25.2436742,114.503477 C26.4052031,116.382692 25.5591105,117.906097 23.3549711,117.906097 L2.41141065,117.906097 C0.206779824,117.906097 -0.642572576,116.388761 0.522707564,114.503477 L11.307797,97.0544896 Z M12.8835643,102.906097 C12.3312796,102.906097 11.8835643,103.359133 11.8835643,103.903127 L11.8835643,109.909067 C11.8835643,110.459711 12.3274291,110.906097 12.8835643,110.906097 C13.435849,110.906097 13.8835643,110.453061 13.8835643,109.909067 L13.8835643,103.903127 C13.8835643,103.352482 13.4396995,102.906097 12.8835643,102.906097 Z M12.8835643,114.906097 C13.4358491,114.906097 13.8835643,114.458382 13.8835643,113.906097 C13.8835643,113.353812 13.4358491,112.906097 12.8835643,112.906097 C12.3312795,112.906097 11.8835643,113.353812 11.8835643,113.906097 C11.8835643,114.458382 12.3312795,114.906097 12.8835643,114.906097 Z" id="warning"></path>
            </g>
        </g>
    </g>
</svg>