<svg xmlns="http://www.w3.org/2000/svg" width="18" height="14" viewBox="0 0 18 14">
    <g fill="none" fill-rule="evenodd">
        <g>
            <g>
                <g>
                    <g>
                        <path d="M0 0H20V20H0z" transform="translate(-891 -2324) translate(394 2186) translate(376 135) translate(120) rotate(90 10 10)"/>
                        <path fill="#ECAF0F" fill-rule="nonzero" d="M9.461 3.475c.537-.278 1.209-.112 1.55.404l7.42 11.2c.13.196.2.427.2.662 0 .663-.538 1.2-1.2 1.2H2.59c-.235 0-.466-.07-.662-.2-.553-.365-.704-1.11-.338-1.662l7.42-11.2c.088-.134.203-.25.337-.338zm.55 1.066l-7.42 11.2h14.84l-7.42-11.2zM10 13.246c.344 0 .623.28.623.623 0 .344-.279.623-.623.623s-.623-.279-.623-.623.279-.623.623-.623zm0-5.71c.298 0 .546.218.592.503l.008.098v3.984c0 .332-.269.6-.6.6-.298 0-.546-.217-.592-.502L9.4 12.12V8.137c0-.332.269-.6.6-.6z" transform="translate(-891 -2324) translate(394 2186) translate(376 135) translate(120)"/>
                    </g>
                </g>
            </g>
        </g>
    </g>
</svg>
