<?xml version="1.0" encoding="UTF-8"?>
<svg width="14px" height="14px" viewBox="0 0 14 14" version="1.1" xmlns="http://www.w3.org/2000/svg" xmlns:xlink="http://www.w3.org/1999/xlink">
    <!-- Generator: sketchtool 62 (101010) - https://sketch.com -->
    <title>C518B9CC-261D-41E0-997B-343031A6F1AB</title>
    <desc>Created with sketchtool.</desc>
    <g id="Page-1" stroke="none" stroke-width="1" fill="none" fill-rule="evenodd">
        <g id="XC_menu+header" transform="translate(-420.000000, -6315.000000)">
            <g id="Group-35" transform="translate(235.000000, 6205.000000)">
                <g id="menu_expanded" transform="translate(157.000000, 97.000000)">
                    <g id="cross_mark" transform="translate(20.000000, 5.000000)">
                        <rect id="Rectangle" transform="translate(15.000000, 15.000000) rotate(90.000000) translate(-15.000000, -15.000000) " x="0" y="0" width="30" height="30"></rect>
                        <path d="M20.8338594,8.13828924 C21.1210217,7.93154098 21.5243331,7.9565415 21.7834668,8.21379045 C22.0713931,8.49962262 22.0722905,8.96394243 21.7854712,9.25087778 L21.7854712,9.25087778 L16.038,15 L21.7854712,20.7491222 C22.0722905,21.0360576 22.0713931,21.5003774 21.7834668,21.7862095 C21.5243331,22.0434585 21.1210217,22.068459 20.8338594,21.8617108 L20.7427976,21.7842121 L15,16.039 L9.25720241,21.7842121 L9.16614058,21.8617108 C8.87897831,22.068459 8.47566693,22.0434585 8.21653321,21.7862095 C7.92860685,21.5003774 7.92770946,21.0360576 8.21452884,20.7491222 L8.21452884,20.7491222 L13.961,15 L8.21452884,9.25087778 C7.92770946,8.96394243 7.92860685,8.49962262 8.21653321,8.21379045 C8.47566693,7.9565415 8.87897831,7.93154098 9.16614058,8.13828924 L9.25720241,8.21578792 L15,13.96 L20.7427976,8.21578792 Z" id="Combined-Shape" fill="#FFFFFF" fill-rule="nonzero"></path>
                    </g>
                </g>
            </g>
        </g>
    </g>
</svg>