<svg xmlns="http://www.w3.org/2000/svg" width="24" height="24" viewBox="0 0 24 24">
    <g fill="none" fill-rule="evenodd">
        <g>
            <g>
                <g transform="translate(-873 -250) translate(873 250)">
                    <circle cx="12" cy="12" r="12" fill="#2274a6"/>
                    <path fill="#FFF" d="M10.9 10.25c.28 0 .562.027.839.084.77.157 1.369.598 1.68 1.239.382.784.305 1.786-.214 2.822l-.875 1.745c-.468.93-.195 1.122-.048 1.225.03.02.124.069.356.069.42 0 .904-.161.909-.163.196-.065.414.016.519.195.104.18.067.41-.09.548-.045.04-1.135.985-2.754.985-.278 0-.56-.03-.835-.085-.772-.157-1.37-.597-1.68-1.239-.382-.783-.306-1.785.214-2.822l.875-1.745c.466-.93.192-1.124.044-1.227-.029-.02-.121-.068-.351-.068-.42 0-.905.162-.91.163-.2.069-.415-.014-.52-.194-.104-.18-.068-.41.09-.548.045-.04 1.134-.985 2.752-.985zM12.814 5C14.02 5 15 5.98 15 7.187c0 1.209-.98 2.188-2.187 2.188-1.208 0-2.188-.98-2.188-2.188 0-1.208.98-2.187 2.188-2.187z"/>
                </g>
            </g>
        </g>
    </g>
</svg>
