<?xml version="1.0" encoding="UTF-8"?>
<svg width="40px" height="40px" viewBox="0 0 40 40" version="1.1" xmlns="http://www.w3.org/2000/svg" xmlns:xlink="http://www.w3.org/1999/xlink">
    <title>XC-logo</title>
    <g id="Page-1" stroke="none" stroke-width="1" fill="none" fill-rule="evenodd">
        <g id="XC-logo" fill-rule="nonzero">
            <path d="M34.6341463,0 L5.36585366,0 C2.40237817,0 0,2.40237817 0,5.36585366 L0,34.6341463 C0,37.5976088 2.40238461,40 5.36585366,40 L34.6341463,40 C37.5976023,40 40,37.5976023 40,34.6341463 L40,5.36585366 C40,2.40238461 37.5976088,0 34.6341463,0 Z M5.36585366,0.975609756 L34.6341463,0.975609756 C37.058795,0.975609756 39.0243902,2.9411996 39.0243902,5.36585366 L39.0243902,34.6341463 C39.0243902,37.0587879 37.0587879,39.0243902 34.6341463,39.0243902 L5.36585366,39.0243902 C2.9411996,39.0243902 0.975609756,37.058795 0.975609756,34.6341463 L0.975609756,5.36585366 C0.975609756,2.94119256 2.94119256,0.975609756 5.36585366,0.975609756 Z" id="Path" fill="#FFFFFF"></path>
            <path d="M1,5.75 C1,3.126651 3.126651,1 5.75,1 L34.25,1 C36.87333,1 39,3.126651 39,5.75 L39,34.25 C39,36.87333 36.87333,39 34.25,39 L5.75,39 C3.126651,39 1,36.87333 1,34.25 L1,5.75 Z" id="Path" fill="#181818"></path>
            <path d="M28.1035,8.33337 C29.4104,8.33337 30.6554,8.53944 31.8378,8.9519 C33.0213,9.36436 33.8617,10.2713 34.3588,11.6737 C34.5458,12.2302 34.6909,13.0023 34.795,13.9898 C34.8985,14.9772 34.9814,15.872 35.044,16.6741 L29.5705,16.6741 C29.5705,16.3038 29.5637,15.9184 29.5516,15.5172 C29.538,15.116 29.5321,14.7202 29.5321,14.3289 C29.4906,12.9916 29.0137,12.3231 28.1018,12.3231 C27.1689,12.3231 26.6922,12.9915 26.6715,14.328 C26.6091,16.1376 26.5935,17.9472 26.6248,19.7569 C26.6556,21.5666 26.6715,23.3658 26.6715,25.1547 C26.6715,25.7104 26.723,26.2756 26.8264,26.8512 C26.9305,27.4271 27.3556,27.7148 28.1018,27.7148 C28.8276,27.7148 29.2471,27.4271 29.361,26.8512 C29.475,26.2749 29.5321,25.7092 29.5321,25.1535 L29.5321,22.6538 L35.082,22.6538 L35.082,23.7029 C35.082,24.4847 35.0092,25.426 34.8637,26.5268 C34.7186,27.6276 34.5005,28.4864 34.2103,29.1039 C33.6493,30.2774 32.7775,30.998 31.5944,31.2656 C30.4107,31.533 29.2481,31.6667 28.107,31.6667 C26.9443,31.6667 25.7766,31.533 24.6038,31.2656 C23.4309,30.9982 22.5641,30.2778 22.0038,29.1049 C21.692,28.4876 21.4484,27.598 21.272,26.4353 C21.0954,25.2727 21.0073,24.1049 21.0073,22.9319 L21.0073,17.5617 C21.0073,16.4507 21.0848,15.3602 21.2404,14.2904 C21.3959,13.22 21.5987,12.3459 21.8476,11.6666 C22.3456,10.2675 23.1812,9.36236 24.3527,8.9509 C25.5257,8.53927 26.7756,8.33337 28.1035,8.33337 Z" id="Path" fill="#FFFFFF"></path>
            <polygon id="Path" fill="#E78A2F" points="12.7024 16.9263 12.6404 16.9263 10.8414 8.62598 5.22792 8.62598 8.60852 19.4561 4.9176 31.3663 10.6865 31.3663 12.5782 22.4491 12.6404 22.4491 14.5941 31.3663 20.3629 31.3663 16.6721 19.487 20.0837 8.62598 14.4701 8.62598"></polygon>
        </g>
    </g>
</svg>
