<svg width="8" height="7" viewBox="0 0 8 7" fill="none" xmlns="http://www.w3.org/2000/svg">
<path fill-rule="evenodd" clip-rule="evenodd" d="M7.314 0.293018C7.22121 0.200073 7.111 0.126335 6.98969 0.0760241C6.86837 0.0257133 6.73833 -0.000183105 6.607 -0.000183105C6.47566 -0.000183105 6.34562 0.0257133 6.2243 0.0760241C6.10299 0.126335 5.99278 0.200073 5.89999 0.293018L2.536 3.65702L1.706 2.82902C1.51849 2.64164 1.26422 2.53643 0.999142 2.53652C0.734059 2.53662 0.479871 2.64201 0.292495 2.82952C0.10512 3.01703 -9.37056e-05 3.27129 6.26221e-08 3.53637C9.38308e-05 3.80145 0.105487 4.05564 0.292996 4.24302L1.829 5.77802C1.92178 5.87096 2.03199 5.9447 2.1533 5.99501C2.27462 6.04532 2.40466 6.07122 2.536 6.07122C2.66733 6.07122 2.79737 6.04532 2.91869 5.99501C3.04 5.9447 3.15021 5.87096 3.243 5.77802L7.31299 1.70702C7.40594 1.61423 7.47968 1.50403 7.52999 1.38271C7.5803 1.2614 7.6062 1.13135 7.6062 1.00002C7.6062 0.868685 7.5803 0.73864 7.52999 0.617325C7.47968 0.49601 7.40594 0.385806 7.31299 0.293018" fill="white"/>
</svg>
