<svg width="30" height="30" viewBox="0 0 30 30" fill="none" xmlns="http://www.w3.org/2000/svg">
<path d="M12.9302 5.01928C12.6928 5.05323 12.2575 5.19469 12.0766 5.29654C11.7713 5.47195 11.5282 5.7096 11.3756 5.96988C11.223 6.2245 11.1664 6.49609 11.1721 6.89217C11.1777 7.48629 11.3134 7.88803 11.7317 8.53307C11.8731 8.74809 12.0314 9.00837 12.0822 9.11588C12.167 9.29128 12.1783 9.33089 12.1783 9.58551C12.1783 9.84013 12.167 9.87974 12.0822 10.0608C11.9522 10.3267 11.6696 10.621 11.4378 10.7341C11.336 10.7851 11.1551 10.8473 11.0421 10.8756C10.7368 10.9435 9.92271 10.9322 9.18214 10.853C8.63943 10.7964 7.13568 10.5814 7.04523 10.5418C7.00565 10.5304 7 11.2151 7 16.0756C7 21.3377 7.00565 21.6263 7.05088 21.6376C7.12437 21.6603 8.6677 21.8809 9.10865 21.9319C9.32347 21.9545 9.77573 21.9828 10.1206 21.9941C10.8329 22.0167 11.0929 21.9771 11.4208 21.8244C11.6752 21.7055 11.9296 21.4339 12.0766 21.1397C12.1783 20.936 12.184 20.9021 12.184 20.6757C12.184 20.4494 12.1727 20.4098 12.0766 20.2061C12.0201 20.0816 11.8618 19.827 11.7374 19.6346C11.3473 19.0518 11.2003 18.6331 11.1721 18.0729C11.1438 17.4675 11.2795 17.0884 11.6526 16.7149C11.907 16.4603 12.2518 16.2623 12.6363 16.1604C12.8454 16.1038 12.9528 16.0925 13.3429 16.0925C13.733 16.0925 13.8404 16.1038 14.0326 16.1604C14.6036 16.3245 15.0502 16.6753 15.2424 17.1223C15.3498 17.3713 15.3894 17.575 15.3894 17.9032C15.3837 18.2653 15.3328 18.4916 15.1689 18.8142C15.0332 19.0801 14.9993 19.1367 14.7393 19.4592C13.9987 20.3758 14.027 21.383 14.8071 21.7451C15.3781 22.0111 15.9999 22.0111 18.1029 21.7451C18.6061 21.6829 19.1262 21.632 19.2505 21.632H19.4823L19.4597 21.3038C19.4484 21.1284 19.4088 20.8115 19.3692 20.6022C19.1996 19.7195 19.1544 19.397 19.1544 19.0744C19.1601 18.1861 19.4936 17.773 20.2511 17.7334C20.8052 17.7051 21.0991 17.8353 21.9075 18.469C22.0771 18.5991 22.5124 18.8085 22.7386 18.8651C22.959 18.9217 23.4113 18.9273 23.6374 18.8821C24.1123 18.7859 24.5363 18.435 24.7681 17.9541C24.9546 17.5693 24.9999 17.36 24.9999 16.8903C25.0055 16.2453 24.8472 15.7643 24.508 15.3287C24.0332 14.7232 23.2247 14.5422 22.3259 14.842C21.998 14.9496 21.8397 15.0344 21.4327 15.306C21.2461 15.4305 21.003 15.572 20.9013 15.6285C20.7204 15.7134 20.6808 15.7247 20.4321 15.7247C20.1777 15.7247 20.1381 15.7134 19.9572 15.6285C19.6915 15.4984 19.3975 15.2155 19.2844 14.9835C19.1375 14.6949 19.0979 14.446 19.0979 13.8632C19.1035 13.1446 19.1827 12.3694 19.3806 11.1302C19.4314 10.7964 19.4767 10.5248 19.471 10.5248C19.4484 10.5078 18.6456 10.5983 17.1419 10.7794C16.7688 10.8247 16.4578 10.8416 15.9717 10.8416C15.3498 10.8473 15.2933 10.836 15.0898 10.7737C14.4396 10.5701 14.1626 10.1909 14.2022 9.56288C14.2305 9.13851 14.3944 8.78204 14.8128 8.26148C15.0615 7.95027 15.2594 7.56551 15.3328 7.2543C15.3724 7.09021 15.3837 6.97139 15.3668 6.70545C15.3442 6.19055 15.2254 5.91329 14.9032 5.58511C14.6658 5.34746 14.3435 5.1664 13.9987 5.07587C13.7217 5.00231 13.2185 4.97968 12.9302 5.01928Z" fill="white"/>
</svg>
