<svg width="30" height="30" viewBox="0 0 30 30" fill="none" xmlns="http://www.w3.org/2000/svg">
<path fill-rule="evenodd" clip-rule="evenodd" d="M12.356 7L20.8608 15.7919C21.323 16.2698 21.3582 17.0222 20.9642 17.5374L20.8656 17.6519L16.3041 22.3675C15.8446 22.8424 15.1166 22.8751 14.6161 22.4651L14.5049 22.3626L6 13.5705V8.31386C6 7.63181 6.49568 7.0784 7.13247 7.00765L7.27095 7H12.356ZM15.2434 7L23.6251 15.7919C24.0873 16.2698 24.1225 17.0222 23.7285 17.5374L23.6299 17.6519L19.4255 22.2394C18.9307 22.7508 18.2678 22.8775 17.7697 22.3626L17.704 22.1973L21.954 17.6519C22.4495 17.1397 22.447 16.3065 21.9492 15.7919L13.4443 7H15.2434ZM8.17645 10.3748C8.17645 9.75343 8.66369 9.24975 9.26471 9.24975C9.86571 9.24975 10.3529 9.75343 10.3529 10.3748C10.3529 10.9961 9.86571 11.4998 9.26471 11.4998C8.66369 11.4998 8.17645 10.9961 8.17645 10.3748Z" fill="white"/>
</svg>
