<svg width="30" height="30" viewBox="0 0 30 30" fill="none" xmlns="http://www.w3.org/2000/svg">
<path fill-rule="evenodd" clip-rule="evenodd" d="M15 9.5C15.5523 9.5 16 9.05228 16 8.5C16 7.94772 15.5523 7.5 15 7.5C14.4477 7.5 14 7.94772 14 8.5C14 9.05228 14.4477 9.5 15 9.5ZM15.5 10.95C16.6411 10.7184 17.5 9.70948 17.5 8.5C17.5 7.11929 16.3807 6 15 6C13.6193 6 12.5 7.11929 12.5 8.5C12.5 9.63772 13.26 10.5979 14.3 10.9007V13.5821C12.9808 13.8974 12 15.0842 12 16.5C12 17.0286 12.1367 17.5253 12.3767 17.9566L10.3236 19.2899C9.86749 18.8037 9.21921 18.5 8.5 18.5C7.11929 18.5 6 19.6193 6 21C6 22.3807 7.11929 23.5 8.5 23.5C9.88071 23.5 11 22.3807 11 21C11 20.7711 10.9692 20.5494 10.9116 20.3388L13.1664 18.8746C13.6734 19.2667 14.3094 19.5 15 19.5C15.6906 19.5 16.3266 19.2667 16.8336 18.8746L19.0884 20.3388C19.0308 20.5494 19 20.7711 19 21C19 22.3807 20.1193 23.5 21.5 23.5C22.8807 23.5 24 22.3807 24 21C24 19.6193 22.8807 18.5 21.5 18.5C20.7808 18.5 20.1325 18.8037 19.6764 19.2899L17.6233 17.9566C17.8633 17.5253 18 17.0286 18 16.5C18 15.0135 16.9189 13.7795 15.5 13.5415V10.95ZM22.5 21C22.5 21.5523 22.0523 22 21.5 22C20.9477 22 20.5 21.5523 20.5 21C20.5 20.4477 20.9477 20 21.5 20C22.0523 20 22.5 20.4477 22.5 21ZM8.5 22C9.05228 22 9.5 21.5523 9.5 21C9.5 20.4477 9.05228 20 8.5 20C7.94772 20 7.5 20.4477 7.5 21C7.5 21.5523 7.94772 22 8.5 22Z" fill="white"/>
</svg>
