<svg width="30" height="30" viewBox="0 0 30 30" fill="none" xmlns="http://www.w3.org/2000/svg">
<path fill-rule="evenodd" clip-rule="evenodd" d="M7 20C7 21.1046 7.89543 22 9 22H21C22.1046 22 23 21.1046 23 20V11.2C23 10.0954 22.1046 9.20001 21 9.20001H9C7.89543 9.20001 7 10.0954 7 11.2V20ZM10.56 11.3939C10.215 11.4639 10.005 11.5789 9.74498 11.8389C9.57998 11.9989 9.52998 12.0739 9.45498 12.2239C9.31998 12.4989 9.28998 12.6489 9.28998 12.9639C9.29498 13.4239 9.42998 13.7489 9.74998 14.0689C10.07 14.3889 10.395 14.5239 10.855 14.5239C11.17 14.5239 11.325 14.4889 11.595 14.3589C11.745 14.2889 11.82 14.2289 11.97 14.0789C12.3 13.7489 12.435 13.4289 12.44 12.9639C12.44 12.6489 12.405 12.4939 12.275 12.2239C12.14 11.9539 11.86 11.6739 11.595 11.5439C11.49 11.4939 11.35 11.4339 11.275 11.4189C11.075 11.3689 10.745 11.3589 10.56 11.3939ZM13.235 16.9235L15.345 14.8135C16.505 13.6535 17.46 12.7085 17.47 12.7085C17.48 12.7135 18.255 13.4835 19.195 14.4235L20.9 16.1285V17.9735V19.8185H15.085H9.27505V19.0285V18.2435L10.595 16.9235L11.915 15.6035L12.575 16.2635L13.235 16.9235Z" fill="white"/>
</svg>
