<svg width="16" height="18" viewBox="0 0 16 18" fill="none" xmlns="http://www.w3.org/2000/svg">
<path fill-rule="evenodd" clip-rule="evenodd" d="M16 16C16 17.1046 15.1046 18 14 18H2C0.895431 18 0 17.1046 0 16V2C0 0.895431 0.895431 0 2 0H14C15.1046 0 16 0.89543 16 2V16ZM2.5 4.49999C2.5 3.83725 3.03726 3.29999 3.7 3.29999C4.36274 3.29999 4.9 3.83725 4.9 4.49999C4.9 5.16273 4.36274 5.69999 3.7 5.69999C3.03726 5.69999 2.5 5.16273 2.5 4.49999ZM2.5 8.99999C2.5 8.33725 3.03726 7.79999 3.7 7.79999C4.36274 7.79999 4.9 8.33725 4.9 8.99999C4.9 9.66273 4.36274 10.2 3.7 10.2C3.03726 10.2 2.5 9.66273 2.5 8.99999ZM3.7 12.3C3.03726 12.3 2.5 12.8372 2.5 13.5C2.5 14.1627 3.03726 14.7 3.7 14.7C4.36274 14.7 4.9 14.1627 4.9 13.5C4.9 12.8372 4.36274 12.3 3.7 12.3ZM6.5 4.5C6.5 4.08579 6.83579 3.75 7.25 3.75H12.75C13.1642 3.75 13.5 4.08579 13.5 4.5C13.5 4.91421 13.1642 5.25 12.75 5.25H7.25C6.83579 5.25 6.5 4.91421 6.5 4.5ZM7.25 12.75C6.83579 12.75 6.5 13.0858 6.5 13.5C6.5 13.9142 6.83579 14.25 7.25 14.25H12.75C13.1642 14.25 13.5 13.9142 13.5 13.5C13.5 13.0858 13.1642 12.75 12.75 12.75H7.25ZM6.5 9C6.5 8.58579 6.83579 8.25 7.25 8.25H12.75C13.1642 8.25 13.5 8.58579 13.5 9C13.5 9.41421 13.1642 9.75 12.75 9.75H7.25C6.83579 9.75 6.5 9.41421 6.5 9Z" fill="white"/>
</svg>
