<svg width="30" height="30" viewBox="0 0 30 30" fill="none" xmlns="http://www.w3.org/2000/svg">
<path fill-rule="evenodd" clip-rule="evenodd" d="M10.6092 8.39487C10.9108 8.18911 11.2677 8.05361 11.5994 8.01848C12.3484 7.93317 13.0119 8.14395 13.4844 8.61568C13.5649 8.70099 13.9419 9.16269 14.3139 9.64446C14.6858 10.1312 14.9975 10.5227 15.0025 10.5227C15.0075 10.5227 15.3192 10.1262 15.6912 9.64446C16.405 8.72107 16.5759 8.52535 16.8272 8.35974C17.2444 8.07871 17.8325 7.95324 18.3955 8.02852C19.039 8.11383 19.5768 8.43502 19.984 8.97199C20.3811 9.50394 20.5168 10.2617 20.3409 10.9492C20.1147 11.8275 19.2752 12.5602 18.3905 12.6405C18.3 12.6505 19.2551 12.6605 20.5118 12.6656H20.5252C22.7789 12.6756 22.799 12.6757 22.8542 12.7208C22.8844 12.7459 22.9296 12.791 22.9548 12.8211C23 12.8814 23 12.8914 23 14.6679C23 16.4444 23 16.4595 22.9548 16.5147C22.9296 16.5448 22.8844 16.59 22.8542 16.6151C22.7989 16.6552 22.7637 16.6602 22.2359 16.6653L21.673 16.6703V18.8734C21.673 20.9894 21.673 21.2074 21.5926 21.39C21.5834 21.411 21.5731 21.4315 21.5616 21.4544L21.5573 21.4629C21.487 21.6034 21.2809 21.8142 21.1351 21.8844C21.1228 21.8907 21.1121 21.8966 21.102 21.9022C21.0946 21.9063 21.0875 21.9102 21.0804 21.914C20.9162 22.0001 20.7069 22.0001 15.7137 21.9999H14.9925H14.2683C9.2951 22.0001 9.08819 22.0001 8.9246 21.9159C8.91749 21.9122 8.91048 21.9084 8.90315 21.9044C8.89165 21.8982 8.8794 21.8915 8.86491 21.8844C8.72416 21.8142 8.51304 21.6034 8.44266 21.4629L8.4384 21.4544C8.42693 21.4315 8.41664 21.411 8.40741 21.39C8.32705 21.2074 8.32705 20.9894 8.32705 18.8734V16.6703L7.76406 16.6653C7.23626 16.6602 7.20107 16.6552 7.14577 16.6151C7.11561 16.59 7.07037 16.5448 7.04524 16.5147C7 16.4545 7 16.4444 7 14.6679C7 12.8914 7 12.8763 7.04524 12.8211C7.07037 12.791 7.11561 12.7459 7.14577 12.7208C7.20096 12.6757 7.22109 12.6756 9.46474 12.6656H9.47817C10.7298 12.6605 11.7201 12.6555 11.6799 12.6505C11.5592 12.6405 11.2777 12.5853 11.1521 12.5401C10.5639 12.3394 9.99592 11.8124 9.76469 11.2554C9.51335 10.6632 9.52341 9.94055 9.78479 9.36343C9.9356 9.01716 10.2875 8.61066 10.6092 8.39487ZM12.4943 9.51403C12.439 9.46886 12.3385 9.41366 12.2732 9.38856C12.1123 9.33336 11.8007 9.31831 11.6398 9.35845C11.2879 9.45882 11.0014 9.76495 10.926 10.1162C10.8958 10.2768 10.916 10.5428 10.9712 10.6883C11.0668 10.9393 11.298 11.1651 11.5543 11.2705C11.6749 11.3206 11.685 11.3207 12.8029 11.3257H12.806C13.7963 11.3307 13.937 11.3257 13.9219 11.3006C13.9119 11.2855 13.6103 10.8941 13.2483 10.4324C12.8512 9.92554 12.5547 9.56421 12.4943 9.51403ZM18.4408 9.38851C18.6972 9.48888 18.9284 9.71471 19.0239 9.97065C19.0893 10.1362 19.0993 10.4022 19.0591 10.5779C18.9687 10.9342 18.657 11.2353 18.3102 11.3055C18.2398 11.3206 17.8376 11.3256 17.1339 11.3256L16.0682 11.3206L16.7217 10.4775C17.3802 9.63441 17.4858 9.50895 17.6315 9.43368C17.8527 9.31825 18.2096 9.3032 18.4408 9.38851ZM16.6414 20.2938C16.6615 20.2285 16.6665 19.3453 16.6665 16.4346V12.6557H14.9977H13.3288V16.4296C13.3288 19.2349 13.3338 20.2235 13.3539 20.2837C13.3841 20.4042 13.4997 20.5246 13.6354 20.5898L13.7561 20.6501L14.9424 20.6551C16.0985 20.6651 16.1337 20.6601 16.2745 20.62C16.4504 20.5648 16.6012 20.4293 16.6414 20.2938Z" fill="white"/>
</svg>
