<svg width="30" height="30" viewBox="0 0 30 30" fill="none" xmlns="http://www.w3.org/2000/svg">
<path fill-rule="evenodd" clip-rule="evenodd" d="M8 9.24C8 8.00275 9.04453 7 10.3333 7H16.1667V11.48C16.1667 12.0995 16.688 12.6 17.3333 12.6H22V20.76C22 21.9955 20.9536 23 19.6667 23H10.3333C9.04453 23 8 21.9955 8 20.76V9.24ZM17.3333 7L22 11.48H17.3333V7ZM11 16.25C11 15.8358 11.3358 15.5 11.75 15.5H18.25C18.6642 15.5 19 15.8358 19 16.25C19 16.6642 18.6642 17 18.25 17H11.75C11.3358 17 11 16.6642 11 16.25ZM11.75 18.5C11.3358 18.5 11 18.8358 11 19.25C11 19.6642 11.3358 20 11.75 20H18.25C18.6642 20 19 19.6642 19 19.25C19 18.8358 18.6642 18.5 18.25 18.5H11.75Z" fill="white"/>
</svg>
