<svg width="30" height="30" viewBox="0 0 30 30" fill="none" xmlns="http://www.w3.org/2000/svg">
<path fill-rule="evenodd" clip-rule="evenodd" d="M13.4691 22.7026C13.5093 22.8433 13.5948 22.9438 13.7004 22.974C13.8362 23.0142 16.1846 23.0041 16.3003 22.9689C16.4864 22.9036 16.4964 22.8684 16.6624 21.7778L16.8132 20.7626L17.0898 20.652C17.2457 20.5968 17.4569 20.5063 17.5575 20.4611C17.6631 20.4158 17.7637 20.3857 17.7788 20.3957L18.5331 20.9586C18.9304 21.2602 19.2824 21.5165 19.3126 21.5366C19.4031 21.5868 19.5841 21.5768 19.6847 21.5165C19.8255 21.431 21.2185 20.0339 21.3844 19.8127C21.5051 19.6469 21.5252 19.6067 21.5252 19.4911C21.5252 19.3303 21.5102 19.3102 20.8866 18.506C20.6251 18.1693 20.3988 17.8728 20.3837 17.8476C20.3636 17.8125 20.3887 17.7321 20.4792 17.5461C20.5497 17.4104 20.6452 17.1842 20.6955 17.0485C20.7609 16.8525 20.7961 16.7922 20.8413 16.7822C20.8715 16.7721 21.3191 16.7018 21.827 16.6264C22.3399 16.551 22.7825 16.4756 22.8076 16.4605C22.8378 16.4454 22.8881 16.3902 22.9233 16.3449L22.9886 16.2545L22.9987 15.0382C23.0037 14.2693 22.9937 13.7818 22.9786 13.7164C22.9635 13.6612 22.9132 13.5757 22.8679 13.5355C22.8559 13.5241 22.8478 13.5147 22.8388 13.5063C22.7804 13.4516 22.6819 13.4397 21.1783 13.2088L20.786 13.1485L20.6703 12.852C20.605 12.6912 20.5144 12.4751 20.4642 12.3746L20.3736 12.1936L20.6653 11.8066C20.8262 11.5956 21.0827 11.2689 21.2336 11.0779C21.3844 10.8919 21.5303 10.701 21.5504 10.6608C21.6208 10.5251 21.6007 10.3994 21.48 10.2386C21.1984 9.85663 20.4139 9.04747 20.0065 8.71074C19.6294 8.39914 19.5037 8.35391 19.3075 8.45443C19.2522 8.48458 18.8952 8.75095 18.5079 9.0525C18.1258 9.35405 17.7938 9.60031 17.7788 9.60031C17.7586 9.60031 17.6229 9.54503 17.477 9.47969L17.4658 9.47506C17.3208 9.41508 17.1225 9.33305 17.0244 9.29876C16.8434 9.23845 16.8384 9.23343 16.8233 9.12286C16.6674 7.9619 16.5568 7.32362 16.4864 7.18793C16.4687 7.15272 16.4555 7.12456 16.4359 7.10196C16.3546 7.00838 16.1636 7.01007 15.0984 7.00197C14.4446 6.99695 13.8563 7.00197 13.7909 7.01202C13.7306 7.01705 13.64 7.06228 13.5897 7.10249L13.4992 7.17787L13.3433 8.20314L13.1824 9.2284L12.9461 9.31887C12.8153 9.36912 12.6041 9.45456 12.4784 9.50985C12.3476 9.57016 12.2269 9.60534 12.2118 9.59528C12.1968 9.58523 11.8749 9.34399 11.5028 9.06255C10.6781 8.43432 10.6529 8.41925 10.5071 8.41925C10.3461 8.41925 10.2405 8.50971 9.41078 9.33394C8.62126 10.118 8.49554 10.2738 8.47542 10.4748C8.46033 10.6407 8.48548 10.6909 8.80732 11.103C9.34038 11.7865 9.63708 12.1785 9.62702 12.1936C9.54153 12.3494 9.3605 12.7666 9.29512 12.9626L9.20963 13.2139L8.22398 13.3596C7.68087 13.44 7.21821 13.5154 7.18804 13.5305C7.1629 13.5456 7.11261 13.6008 7.07741 13.6461L7.01203 13.7365L7.00197 14.9176C6.99694 15.571 7.00197 16.154 7.01203 16.2193C7.03215 16.35 7.15787 16.5108 7.25844 16.5409C7.31879 16.556 9.15934 16.8375 9.19957 16.8375C9.20963 16.8375 9.25489 16.933 9.29512 17.0536C9.34038 17.1742 9.4309 17.3853 9.49627 17.531C9.56165 17.6717 9.61697 17.8024 9.61697 17.8175C9.61697 17.8527 9.099 18.5412 8.79224 18.9131C8.38993 19.4006 8.36479 19.4609 8.47039 19.667C8.63131 19.9836 9.84326 21.2099 10.2607 21.4813C10.4266 21.5868 10.5222 21.6069 10.6479 21.5567C10.6881 21.5416 11.0502 21.2702 11.4575 20.9586C11.8649 20.647 12.2068 20.3907 12.2169 20.3907C12.2269 20.3907 12.3778 20.451 12.5488 20.5264C12.7147 20.6018 12.9259 20.6872 13.0114 20.7124C13.0665 20.7318 13.1017 20.7387 13.1265 20.7586C13.1788 20.8005 13.185 20.9 13.2327 21.2953C13.288 21.7225 13.4288 22.5568 13.4691 22.7026ZM16.9188 16.8479C16.5568 17.2198 16.2048 17.4359 15.727 17.5766C15.5259 17.637 15.4152 17.652 15.0783 17.6571C14.6458 17.6671 14.5201 17.652 14.2083 17.5565C13.7658 17.4158 13.4087 17.1947 13.0517 16.8127C12.5337 16.2649 12.3024 15.6417 12.3376 14.8728C12.3728 14.1541 12.6293 13.5862 13.1472 13.0886C13.5143 12.7368 13.8613 12.5358 14.324 12.4101C14.6408 12.3247 15.3599 12.3247 15.6818 12.4101C15.9634 12.4905 16.3556 12.6765 16.5719 12.8423C16.9339 13.1238 17.2809 13.551 17.4519 13.938C17.6078 14.2948 17.648 14.5059 17.648 15.0034C17.6531 15.3955 17.643 15.4909 17.5877 15.6769C17.4519 16.1644 17.2608 16.4961 16.9188 16.8479Z" fill="white"/>
</svg>
