<svg width="30" height="30" viewBox="0 0 30 30" fill="none" xmlns="http://www.w3.org/2000/svg">
<path d="M21.4844 13.975C21.3625 13.9906 21.2375 14 21.1063 14C20.2938 14 19.5688 13.6438 19.0719 13.0938C18.575 13.6438 17.85 14 17.0344 14C16.2188 14 15.4938 13.6438 14.9969 13.0938C14.5 13.6438 13.7781 14 12.9594 14C12.1469 14 11.4219 13.6438 10.925 13.0938C10.4281 13.6438 9.70312 14 8.88624 14C8.75937 14 8.63156 13.9906 8.50749 13.975C6.77874 13.7437 5.96077 11.7063 6.88531 10.2438L8.67687 7.41031C8.83624 7.15559 9.12093 7 9.42499 7H20.575C20.8781 7 21.1625 7.15556 21.3219 7.41031L23.1125 10.2438C24.0406 11.7094 23.2188 13.7437 21.4844 13.975ZM21.6156 14.9656C21.7219 14.95 21.875 14.925 22 14.8938V21C22 22.1031 21.1031 23 20 23H9.99999C8.89562 23 7.99999 22.1031 7.99999 21V14.8938C8.12093 14.925 8.24562 14.95 8.37406 14.9656H8.37781C8.54218 14.9875 8.71343 15 8.88624 15C9.27499 15 9.64999 14.9406 9.99999 14.8313V19H20V14.8344C20.35 14.9406 20.7219 15 21.1063 15C21.2813 15 21.45 14.9875 21.6156 14.9656Z" fill="white"/>
</svg>
