<svg width="30" height="30" viewBox="0 0 30 30" fill="none" xmlns="http://www.w3.org/2000/svg">
<path d="M22.8688 10.8155C22.7778 10.437 22.2972 10.3105 22.0219 10.5857L19.6245 12.9826H17.0219V10.381L19.4193 7.98414C19.6947 7.70899 19.5681 7.2284 19.1896 7.13761C18.4477 6.95939 17.6443 6.9463 16.8119 7.14539C14.8874 7.6056 13.3857 9.2398 13.0787 11.1933C12.9157 12.0051 12.994 12.816 13.2383 13.5485L7.66051 19.1242C6.77983 20.0046 6.77983 21.4312 7.66051 22.3113C8.07266 22.7527 8.64892 23 9.19824 23C9.74757 23 10.352 22.7799 10.7927 22.3397L16.3705 16.764C17.1052 17.0062 17.9148 17.0846 18.756 16.952C20.7106 16.6439 22.3451 15.1425 22.8055 13.2202C23.0598 12.3589 23.0473 11.5574 22.8688 10.8155ZM9.47698 21.2468C9.06201 21.2468 8.72534 20.9103 8.72534 20.4955C8.72534 20.0803 9.06201 19.7441 9.47698 19.7441C9.89195 19.7441 10.2286 20.0803 10.2286 20.4955C10.2286 20.9118 9.89195 21.2468 9.47698 21.2468Z" fill="white"/>
</svg>
