<svg width="30" height="30" viewBox="0 0 30 30" fill="none" xmlns="http://www.w3.org/2000/svg">
<path d="M11.9684 15C13.8522 15 15.3789 13.4329 15.3789 11.5C15.3789 9.56707 13.8522 8 11.9684 8C10.0846 8 8.55789 9.56707 8.55789 11.5C8.55789 13.4329 10.0846 15 11.9684 15ZM13.3193 16.3125H10.6175C8.06683 16.3125 6 18.4344 6 21.0512C6 21.5762 6.41353 22 6.92351 22H17.0123C17.5238 22 17.9368 21.5762 17.9368 21.0512C17.9368 18.4344 15.8692 16.3125 13.3193 16.3125ZM19.7129 16.75H17.7451C18.9695 17.7809 19.7368 19.323 19.7368 21.0512C19.7368 21.4012 19.6356 21.7238 19.4704 22H23.1474C23.619 22 24 21.6063 24 21.1004C24 18.7078 22.0922 16.75 19.7129 16.75ZM18.4579 15C20.1072 15 21.4421 13.6301 21.4421 11.9375C21.4421 10.2449 20.1072 8.875 18.4579 8.875C17.7888 8.875 17.1779 9.10893 16.6802 9.49051C16.9871 10.0954 17.1789 10.7727 17.1789 11.5C17.1789 12.4713 16.8611 13.3632 16.3372 14.0897C16.8779 14.65 17.6266 15 18.4579 15Z" fill="white"/>
</svg>
